<svg xmlns="http://www.w3.org/2000/svg" xmlns:xlink="http://www.w3.org/1999/xlink" width="196.59" height="37.59" viewBox="0 0 196.59 37.59"><defs><clipPath id="clip-path" transform="translate(0)"><rect width="196.59" height="37.59" fill="none"/></clipPath></defs><g id="Layer_2" data-name="Layer 2"><g id="Layer_1-2" data-name="Layer 1"><g clip-path="url(#clip-path)"><path d="M33.39,15.72v3.6h4v4.4h-4v8.35c0,2.4-.4,3.68-2,4.44s-3.88.8-6.88.8a17.33,17.33,0,0,0-1.44-4.72c2,.08,4.16.08,4.8.08s.84-.16.84-.68V23.72H20.36a31.37,31.37,0,0,1,4.8,6l-3.8,2.43a32,32,0,0,0-4.56-6.27l3.44-2.12H15.4V21.6l-3.52,1.12V37.39H7.52V24l-6,1.76L.4,21.24c2-.44,4.44-1.08,7.12-1.8V12.08H4.84a32.36,32.36,0,0,1-1.48,5.08A25.47,25.47,0,0,0,0,15C1.28,11.8,1.92,6.84,2.28,2.12l4,.64q-.24,2.4-.6,4.8H7.52V.08h4.36V7.56H15.2v3.76H24V7.92H16.92V3.6H24V0h4.72V3.6h7.35V7.92H28.72v3.4h9.07v4.4Zm-4.67,0H14.52V12.08H11.88V18.2l3.68-1,.32,2.16H28.72Z" transform="translate(0)" fill="#005cdc"/><path d="M81.15,11.84c-.56,6-1.56,11-3.32,15.2a16.23,16.23,0,0,0,5.4,6.55,15,15,0,0,0-2.88,3.56,18.21,18.21,0,0,1-4.8-5.95,21.9,21.9,0,0,1-6.63,6.31,24.61,24.61,0,0,0-3-3.2,23.31,23.31,0,0,0,3-2c-4.72.51-9.56,1-13.28,1.35l-.6-4,5.64-.36V26.24H56.48V22.68h4.16V20H55.88V16.32h12A20.13,20.13,0,0,0,69.16,14H55.72V10.88c-.6,1.2-1.28,2.44-2,3.64V37.39H49.4V20.76c-.76,1-1.56,1.84-2.32,2.64a28.16,28.16,0,0,0-2.52-4.32A37.4,37.4,0,0,0,52.08,8.4l3.64,1.32V3.44h3.2v7h1.72V.08h3.84V10.4h1.76V3.48H69.6V13a48.65,48.65,0,0,0,3-12.92l4.35.64c-.36,2.4-.8,4.8-1.32,7.12h7.16v4ZM55.72,1.6a41.38,41.38,0,0,1-8.52,9.68,21.8,21.8,0,0,0-2.36-3.64A28,28,0,0,0,51.44,0ZM69.64,31.72a18.3,18.3,0,0,0,4-5.24,55.31,55.31,0,0,1-1.88-8,19.87,19.87,0,0,1-1.16,1.8c-.28-.48-.8-1.28-1.36-2.08V20H64.64v2.68h4.12v3.56H64.64V29c1.64-.12,3.28-.28,5-.4Zm4.87-19.88c-.12.4-.28.8-.4,1.2A59.11,59.11,0,0,0,75.63,21,57.59,57.59,0,0,0,77,11.84Z" transform="translate(0)" fill="#005cdc"/><path d="M98.8,13.6a5.12,5.12,0,1,1-5.12,5.12A5.16,5.16,0,0,1,98.8,13.6" transform="translate(0)" fill="#005cdc"/><path d="M115.88,2.2h12V15.08h-7.56c-.12,1.2-.2,2.44-.32,3.6h7.88s0,1.2-.08,1.8c-.4,9.68-.84,13.72-2,15.15a4.41,4.41,0,0,1-3,1.6,34.84,34.84,0,0,1-4.84.12,12.21,12.21,0,0,0-1.44-4.67c1.72.16,3.36.16,4.16.16a1.47,1.47,0,0,0,1.4-.48c.64-.64,1-3.28,1.36-9.6h-3.8l-.24,1.92L115.16,24c.56-3.48,1-8.88,1.28-13.2h6.92V6.4h-7.48Zm32.79,35.39a16.47,16.47,0,0,0-1-2.59c-6.83.59-13.95,1.11-19.11,1.47L128,31.88c2.64-.08,6-.28,9.56-.52V26.2h-8V14.72h8V11.6c-3.08.24-6,.4-8.4.56l-.64-4.44L132,7.56A49.31,49.31,0,0,0,135.6,0l5.11,1.16C139.6,3.24,138.28,5.4,137,7.32c2.44-.12,5-.24,7.59-.4-.64-.84-1.31-1.72-1.95-2.48l4-1.76a36.06,36.06,0,0,1,5.88,8.56l-4.28,2a19.12,19.12,0,0,0-1.08-2.32c-1.71.12-3.4.28-5.07.4v3.44h8.39V26.2h-8.39V31l3.28-.24c-.56-.92-1.16-1.8-1.77-2.64l3.85-1.6a34.48,34.48,0,0,1,5.35,9.19Zm-11.11-19H133.8v3.68h3.76Zm4.56,3.68H146V18.64h-3.87Z" transform="translate(0)" fill="#005cdc"/><path d="M194.31,28.6c-1-.92-2.19-1.88-3.39-2.76-1.76,4.48-4.76,8-10,10.71l-4.24-3.43c6-2.56,8.76-6.36,10.08-10a27.77,27.77,0,0,0-9.28-3.2,82.37,82.37,0,0,1-4.6,9.52A6.77,6.77,0,0,1,166.68,33c-3.48,0-6.08-2.4-6.08-6.4,0-6.12,5.56-10.84,13.52-11.2,1.12-2.56,2.24-5.24,3.16-7.12-1.56,0-5,.16-6.76.28-.84,0-2.24.2-3.24.36l-.2-5.12a32.05,32.05,0,0,0,3.28.16c2.24,0,6.48-.16,8.32-.32a9.82,9.82,0,0,0,2.68-.6l3.16,2.48a9.27,9.27,0,0,0-1.32,1.68,76.66,76.66,0,0,0-3.88,8.48,34.71,34.71,0,0,1,8.52,2.56c0-.48.08-.92.12-1.36a25.69,25.69,0,0,0,0-4.32l5.2.6a67.47,67.47,0,0,1-.77,7.36c1.65.92,3.08,1.88,4.24,2.64Zm-22.23-8.68c-4.4.68-6.8,3.36-6.8,5.84,0,1.12.68,1.88,1.48,1.88s1.36-.36,2.08-1.36a51.23,51.23,0,0,0,3.24-6.36" transform="translate(0)" fill="#005cdc"/></g></g></g></svg>