<svg xmlns="http://www.w3.org/2000/svg" xmlns:xlink="http://www.w3.org/1999/xlink" width="216.15" height="37.43" viewBox="0 0 216.15 37.43"><defs><clipPath id="clip-path"><rect width="216.15" height="37.43" fill="none"/></clipPath></defs><g id="Layer_2" data-name="Layer 2"><g id="Layer_1-2" data-name="Layer 1"><g clip-path="url(#clip-path)"><path d="M28,26.12h8.55v3.59H28v3.2c0,2.12-.44,3.24-2,3.88s-3.72.64-6.68.64a15.91,15.91,0,0,0-1.48-4.12c2,.12,4.16.12,4.76.08s.84-.16.84-.6V29.71H11.52a26.09,26.09,0,0,1,4.16,3.52l-3.44,2.92a30.13,30.13,0,0,0-5.32-4.68L9,29.71H.2V26.12H23.4V24.44c-2.68,0-5.16,0-7-.08-4-.16-6.76-1-8.68-3.56C5.8,22.12,3.84,23.36,1.6,24.72L0,21c1.48-.72,3.24-1.6,4.92-2.56V13.56H.32V10H9.24v7.76c1.32,2.2,3.72,3.08,7.12,3.2,4.84.2,15.28.08,20.79-.32A20.38,20.38,0,0,0,36,24.24c-2.11.08-5,.16-8,.2ZM6.68,8.28a28,28,0,0,0-5.4-5.16L4.36.52A26.19,26.19,0,0,1,9.92,5.44Zm13.8-.48c.08-.4.2-.8.28-1.24H10.44V3.36h6A17.75,17.75,0,0,0,15,.76L18.92,0a17,17,0,0,1,1.84,3.32h5.48A29.85,29.85,0,0,0,28,0L32.4.68c-.6,1-1.21,1.92-1.76,2.68h5.87v3.2H25.12L24.6,7.8h8.67v12H13.6V7.8Zm8.19,2.12H18v1.2H28.67Zm0,3.2H18v1.24H28.67Zm0,3.24H18v1.28H28.67Z"/><path d="M66.24,2.32c0,7.56,1.08,22.16,15.79,30.83a25.61,25.61,0,0,0-3.84,4.16c-8.27-5-12.51-12.55-14.71-19.71-3,9-7.8,15.59-14.76,19.75a38,38,0,0,0-4.36-3.88C52.68,29.28,57.44,21.56,59.64,11l2.44.44c-.28-1.52-.44-3-.56-4.32H52.4V2.32Z"/><path d="M106.76,30.92c1.52-.2,2.64-.4,3.68-.64,5.08-1.2,9-4.84,9-10.6,0-5.48-3-9.56-8.28-10.48A86.08,86.08,0,0,1,108.8,20c-2.36,8-5.8,12.87-10.12,12.87S90.6,28,90.6,21.32c0-9.12,8-17,18.24-17,9.8,0,16,6.84,16,15.48,0,8.32-5.11,14.23-15.11,15.75Zm-3.08-12a63.58,63.58,0,0,0,2.12-9.6c-6.56,1.36-10,7.12-10,11.48,0,4,1.6,6,3.08,6,1.64,0,3.24-2.48,4.84-7.84"/><path d="M140.64,18.8a31.07,31.07,0,0,0-7.2-4.2L136,11a27.91,27.91,0,0,1,7.4,3.8Zm4.68,5.32c-2,4.24-4.36,8.83-6.6,12.75l-4.16-3a125.71,125.71,0,0,0,7.16-12.75Zm-2.52-16a27.47,27.47,0,0,0-7.08-4.32l2.6-3.56a31.63,31.63,0,0,1,7.24,4Zm5.64,11.24h4.28v3.88c0,4.44-.68,10-6,14.07a13.92,13.92,0,0,0-3.36-3.12c4.6-3.27,5.12-7.67,5.12-11.11ZM155,4.88V.12h4.84V4.88h10.63V9.12H157.56c-.84,1.56-1.72,3.12-2.52,4.52,2.4,0,5-.12,7.56-.24-.68-.72-1.36-1.48-2-2.12l3.68-2a38.77,38.77,0,0,1,6.87,8.4l-4,2.16a14.75,14.75,0,0,0-1.48-2.56c-7,.44-14.31.76-19.59,1l-.48-4.44c1.36,0,2.88,0,4.56-.08.68-1.44,1.44-3.12,2-4.68h-6.8V4.88Zm0,14.84h4.16v16H155Zm12.15,13.35a.74.74,0,0,0,.52-.16c.16-.08.24-.4.32-1s.08-2,.12-3.79a10.78,10.78,0,0,0,3.2,1.76,28,28,0,0,1-.48,4.67,3,3,0,0,1-1.32,1.8,4.83,4.83,0,0,1-2.2.52h-2a3.94,3.94,0,0,1-2.71-1c-.64-.64-.92-1.52-.92-4.19V19.36H166v12.4a3.45,3.45,0,0,0,.08,1.11.57.57,0,0,0,.44.2Z"/><path d="M216.15,31.68a10.47,10.47,0,0,1-7.43,3c-3,0-5-2.19-5-6,0-4.32,1.4-10.12,1.4-13.72,0-2-1-2.92-2.64-2.92-3,0-7.28,3.64-10.48,7.2,0,1.12-.08,2.2-.08,3.2,0,3.24,0,6.56.24,10.28,0,.72.2,2.15.28,3H187c.08-.84.12-2.27.12-2.91.08-3.08.08-5.36.16-8.72-1.72,2.52-3.64,5.44-5,7.32L179.2,27c2.24-2.72,6.24-8,8.48-11.32l.16-2.76-7.2.92-.48-5.08a33.69,33.69,0,0,0,3.44,0c1.16-.08,2.88-.28,4.56-.52.08-1.48.16-2.6.16-3a21.13,21.13,0,0,0-.16-3.52l5.8.16c-.24,1.12-.56,3.16-.88,5.64l1.48,1.88c-.52.68-1.36,2-2,3a6,6,0,0,1-.08.84c3.12-2.72,7.68-5.88,11.52-5.88,4.24,0,6.23,2.52,6.23,5.84,0,4.12-1.32,9.92-1.32,14,0,1,.52,1.72,1.52,1.72,1.44,0,3.32-1,5.08-2.8Z"/></g></g></g></svg>