<svg xmlns="http://www.w3.org/2000/svg" xmlns:xlink="http://www.w3.org/1999/xlink" width="64.82" height="55.78" viewBox="0 0 64.82 55.78"><defs><clipPath id="clip-path" transform="translate(0 0)"><rect width="64.82" height="55.78" fill="none"/></clipPath></defs><g id="Layer_2" data-name="Layer 2"><g id="Layer_1-2" data-name="Layer 1"><g clip-path="url(#clip-path)"><rect x="1.93" y="11.49" width="42.36" height="42.36" rx="5.78" fill="none" stroke="#005cdc" stroke-width="3.85"/><path d="M59.23,3.85a1.74,1.74,0,0,0-1.15.44L27.45,31.36,11.64,22a1.78,1.78,0,0,0-.89-.24,1.74,1.74,0,0,0-1.34,2.85L26.48,45.37a1.73,1.73,0,0,0,1.35.64h0a1.73,1.73,0,0,0,1.35-.65L60.58,6.69a1.74,1.74,0,0,0-.14-2.35A1.72,1.72,0,0,0,59.23,3.85Z" transform="translate(0 0)" fill="none" stroke="#fff" stroke-width="7.7"/><path d="M59.23,3.85a1.74,1.74,0,0,0-1.15.44L27.45,31.36,11.64,22a1.78,1.78,0,0,0-.89-.24,1.74,1.74,0,0,0-1.34,2.85L26.48,45.37a1.73,1.73,0,0,0,1.35.64h0a1.73,1.73,0,0,0,1.35-.65L60.58,6.69a1.74,1.74,0,0,0-.14-2.35,1.72,1.72,0,0,0-1.21-.49" transform="translate(0 0)" fill="#ff9000"/></g></g></g></svg>