<svg xmlns="http://www.w3.org/2000/svg" xmlns:xlink="http://www.w3.org/1999/xlink" width="587.44" height="93.63" viewBox="0 0 587.44 93.63"><defs><clipPath id="clip-path" transform="translate(0 -0.2)"><rect width="587.44" height="93.83" fill="none"/></clipPath></defs><g id="Layer_2" data-name="Layer 2"><g id="Layer_1-2" data-name="Layer 1"><g clip-path="url(#clip-path)"><path d="M191.32,30.83c4.08,1.44,8.68,3.36,11.4,4.68l-5.52,2.12a78.87,78.87,0,0,0-10.4-4.72l3.6-2.08H178.72l3.64,1.6a49.57,49.57,0,0,1-12.48,5.24,48.24,48.24,0,0,0-3.52-3.48,47,47,0,0,0,11-3.36h-5.92V14.52h13.28A11.37,11.37,0,0,0,182,11.6a9.85,9.85,0,0,0,2.32-2h-3.6v4.16h-4.24V9.6h-3.52a13.37,13.37,0,0,1-3.84,6.64,13.71,13.71,0,0,0-3.12-3,10.86,10.86,0,0,0,3.4-8.56V1.08l3,.76a48.86,48.86,0,0,0,8.32-1.6L183.64,3a51.23,51.23,0,0,1-10.16,1.72V5c0,.36,0,.8,0,1.2h11V9.4a7.24,7.24,0,0,0,1.4-4.64V1.12l3.2.76a61.74,61.74,0,0,0,9-1.64l2.88,2.84A62.44,62.44,0,0,1,190,4.8V5c0,.36,0,.76,0,1.16h12.52V9.6h-5v4.2h-4.24V9.6h-4a10.63,10.63,0,0,1-3.92,4.92h13V30.83ZM176,19.08H193.4V17.36H176Zm0,4.44H193.4V21.8H176ZM176,28H193.4V26.19H176Z" transform="translate(0 -0.2)" fill="#005cdc"/><polygon points="223.16 37.55 209.88 37.55 209.88 33.23 218.4 33.23 218.4 12 223.16 12 223.16 37.55" fill="#005cdc"/><path d="M253.92,28.31c.08-1.16.12-3,.16-4.71-2.92,1.6-4.52,3.15-4.52,5.11,0,2.2,1.88,2.8,5.76,2.8a60.59,60.59,0,0,0,11.24-1.16l-.16,5.16a109.6,109.6,0,0,1-11.2.64c-6.2,0-10.88-1.48-10.88-6.6s4.8-8.23,9.32-10.55a3.1,3.1,0,0,0-2.76-1.36,9.8,9.8,0,0,0-6.2,2.72A50.73,50.73,0,0,0,241,24.72l-4.24-3.16a38.72,38.72,0,0,0,8.72-10.88H245c-1.6,0-4.52-.08-6.68-.28V5.76a50.82,50.82,0,0,0,7,.44h1.92a22,22,0,0,0,.8-4.52l5.2.44c-.2,1-.48,2.32-1,3.92a91.47,91.47,0,0,0,11.2-1.16l0,4.64a129,129,0,0,1-12.92,1,24.2,24.2,0,0,1-2.28,4,12.4,12.4,0,0,1,4.48-.8A5.4,5.4,0,0,1,258,16.84c2-1,3.72-1.64,5.36-2.36s2.92-1.36,4.36-2l2,4.6A42,42,0,0,0,265,18.72c-1.76.68-4,1.56-6.44,2.68,0,2.2.12,5.11.16,6.91Z" transform="translate(0 -0.2)" fill="#005cdc"/><path d="M315.52,32.67v3.76H279.24V32.67h15.52V30.55h-12.6V27h12.6V25.19H283.48V12.52h11.28V11H279.48V7.28h15.28V5.52c-3.84.16-7.76.28-11.36.32a12.54,12.54,0,0,0-1-3.64c9.32-.2,20.16-.88,26.92-2l2.2,3.68c-3.48.56-7.64,1-12,1.32V7.28h15.68V11H299.56v1.52h11.88V25.19H299.56V27h13.36v3.55H299.56v2.12Zm-27.4-15.23h6.64v-1.8h-6.64Zm6.64,2.84h-6.64v1.8h6.64Zm4.8-2.84h7v-1.8h-7Zm7,2.84h-7v1.8h7Z" transform="translate(0 -0.2)" fill="#005cdc"/><path d="M337.48,26.32A53.39,53.39,0,0,0,334,22V37.55h-4.68V24a33.23,33.23,0,0,1-4.44,3.6,20.57,20.57,0,0,0-2.16-4.52,29.84,29.84,0,0,0,10.48-11.2h-9V7.6h5.12V.24H334V7.6h1.64l.8-.2,2.64,1.72A40.23,40.23,0,0,1,335,17.28c1.76,1.52,4.64,4.28,5.4,5.08Zm18.92,6.87c.68,0,.84-.52.92-4.44a11.71,11.71,0,0,0,3.8,1.68c-.4,5.4-1.48,6.76-4.2,6.76h-2.8c-3.48,0-4.24-1.28-4.24-5.16V24.75h-2c-.64,5.72-2.4,10.16-9,12.8a11.91,11.91,0,0,0-2.68-3.68c5.4-1.88,6.64-5,7.16-9.12h-2.6V2.16H358.4V24.75h-4.2V32c0,1.12.08,1.24.68,1.24ZM345.08,8.56h8.76V5.92h-8.76Zm0,6.24h8.76V12.12h-8.76Zm0,6.2h8.76V18.32h-8.76Z" transform="translate(0 -0.2)" fill="#005cdc"/><path d="M379.4,2.48a40.65,40.65,0,0,0-.52,5.28c-.2,4.24-.48,13.12-.48,18,0,4,2.4,5.27,5.44,5.27,6.56,0,10.72-3.75,13.56-8.07l3.6,4.44a20.63,20.63,0,0,1-17.2,9c-6.48,0-10.68-2.84-10.68-9.59,0-5.32.4-15.72.4-19.12A24.87,24.87,0,0,0,373,2.4Z" transform="translate(0 -0.2)" fill="#005cdc"/><path d="M430.4,11.2c-2.36.52-5,1-7.68,1.28-.36,1.72-.76,3.48-1.2,5.08a127.61,127.61,0,0,1-6.28,18.31L409.68,34c2.36-4,5.36-12.27,6.84-17.83.28-1,.56-2.16.84-3.28-.92,0-1.8.08-2.6.08-1.92,0-3.4-.08-4.8-.16l-.12-5a39,39,0,0,0,5,.32c1.16,0,2.32,0,3.52-.12q.24-1.32.36-2.28a20.57,20.57,0,0,0,.16-4l6,.48c-.28,1.08-.64,2.84-.84,3.72l-.32,1.52c2.24-.36,4.48-.8,6.64-1.32Zm-.8,13a13.7,13.7,0,0,0-.56,3.32c0,1.71,1,3,5.24,3a45.92,45.92,0,0,0,8.24-.8l-.2,5.08a63.39,63.39,0,0,1-8.08.56c-6.68,0-10.08-2.32-10.08-6.31a27.19,27.19,0,0,1,.68-5.28Zm-2.32-10c2.2-.2,5-.4,7.6-.4a68.77,68.77,0,0,1,7,.36L441.72,19a57.22,57.22,0,0,0-6.8-.48,58.2,58.2,0,0,0-7.64.44Z" transform="translate(0 -0.2)" fill="#005cdc"/><path d="M33.67,63a20.14,20.14,0,0,0-1.56,2.08c-1.87,3.12-5.67,8.16-9.63,11l-4.12-3.32a23.79,23.79,0,0,0,7.36-7.44H4.88c-1.68,0-3,.12-4.88.28V60a31.71,31.71,0,0,0,4.88.4H26.44a19.93,19.93,0,0,0,4-.36ZM17.36,68.4c0,9.92-.2,18.07-11.12,23.91L1.6,88.51a15.81,15.81,0,0,0,4.2-2.2c5.08-3.52,6-7.75,6-14.31a22.17,22.17,0,0,0-.28-3.6Z" transform="translate(0 -0.2)" fill="#005cdc"/><path d="M74.52,65.84a26.71,26.71,0,0,0-.8,3.2A37.25,37.25,0,0,1,70,80.36c-3.2,5.91-9.2,10.15-16.32,12l-4.16-4.8A32.58,32.58,0,0,0,55.16,86a19.63,19.63,0,0,0,9.08-6.83A23.75,23.75,0,0,0,67.8,68.88H48v5.84c0,.92,0,2.16.12,3H42.56a30.34,30.34,0,0,0,.2-3.36V67.4a25.54,25.54,0,0,0-.2-3.44,33.59,33.59,0,0,0,4.08.2H55.2V61.08a19.76,19.76,0,0,0-.32-3.68H61a29.07,29.07,0,0,0-.28,3.68v3.08h7A9.73,9.73,0,0,0,71,63.72Z" transform="translate(0 -0.2)" fill="#005cdc"/><path d="M109.88,80.88a115.54,115.54,0,0,0-14.44-6V86.23c0,1.16.2,4,.36,5.56H89.56a42.8,42.8,0,0,0,.4-5.56v-23a27.9,27.9,0,0,0-.4-4.84H95.8a43.5,43.5,0,0,0-.36,4.84v5.88a130.64,130.64,0,0,1,16.72,6.2Z" transform="translate(0 -0.2)" fill="#005cdc"/><path d="M131.12,62.44l5.84,1.2c-.36,1.16-.8,3.12-1,4a100,100,0,0,1-3.4,12,55.16,55.16,0,0,1-5.92,11.43l-5.6-2.36a48.13,48.13,0,0,0,6.24-11.11,57.64,57.64,0,0,0,3.8-15.2m10.16,1.2,5.32-1.72C148.24,65,151,71.16,152.48,75c1.44,3.6,3.56,10,4.68,13.95l-5.92,1.92a123.42,123.42,0,0,0-4.16-14.11,112.05,112.05,0,0,0-5.8-13.16m12.72,0L150.8,65a50.6,50.6,0,0,0-3.12-5.56l3.16-1.32c1,1.48,2.4,4,3.16,5.48m4.8-1.84-3.2,1.4a42.14,42.14,0,0,0-3.2-5.52l3.16-1.32a62.56,62.56,0,0,1,3.24,5.44" transform="translate(0 -0.2)" fill="#005cdc"/><path d="M200,65.84a26.71,26.71,0,0,0-.8,3.2,37.25,37.25,0,0,1-3.72,11.32c-3.2,5.91-9.2,10.15-16.32,12L175,87.55A32.58,32.58,0,0,0,180.6,86a19.63,19.63,0,0,0,9.08-6.83,23.75,23.75,0,0,0,3.56-10.28H173.4v5.84c0,.92,0,2.16.12,3H168a30.34,30.34,0,0,0,.2-3.36V67.4A25.54,25.54,0,0,0,168,64a33.59,33.59,0,0,0,4.08.2h8.56V61.08a19.76,19.76,0,0,0-.32-3.68h6.16a29.07,29.07,0,0,0-.28,3.68v3.08h7a9.73,9.73,0,0,0,3.32-.44Z" transform="translate(0 -0.2)" fill="#005cdc"/><path d="M225.28,81.08a37.93,37.93,0,0,0,14.56-15.56L243,71.16A42.43,42.43,0,0,1,228.16,86a43.32,43.32,0,0,1-14.84,5.64L210,86.31a41.23,41.23,0,0,0,15.32-5.23m0-13-4.08,4.2a83.17,83.17,0,0,0-10-8.64l3.76-4a84,84,0,0,1,10.32,8.44" transform="translate(0 -0.2)" fill="#005cdc"/><path d="M262.16,69.68a139.16,139.16,0,0,1,16.72,6.24l-2.24,5.55a108.4,108.4,0,0,0-14.48-6V86.83c0,1.12.2,3.92.4,5.56h-6.28a43.31,43.31,0,0,0,.4-5.56v-23a28.23,28.23,0,0,0-.4-4.84h6.24a43.5,43.5,0,0,0-.36,4.84Zm10.64-1.76a32.59,32.59,0,0,0-3.52-6.16l3.36-1.44c1.12,1.68,2.72,4.24,3.64,6Zm5.48-2.24a37.45,37.45,0,0,0-3.72-6l3.32-1.56A53,53,0,0,1,281.64,64Z" transform="translate(0 -0.2)" fill="#005cdc"/><path d="M308.28,84.31c.08-1.16.12-3,.16-4.71-2.92,1.6-4.52,3.15-4.52,5.11,0,2.2,1.88,2.8,5.76,2.8a60.59,60.59,0,0,0,11.24-1.16l-.16,5.16a109.6,109.6,0,0,1-11.2.64c-6.2,0-10.88-1.48-10.88-6.6S303.48,77.32,308,75a3.1,3.1,0,0,0-2.76-1.36,9.8,9.8,0,0,0-6.2,2.72,50.73,50.73,0,0,0-3.68,4.36l-4.24-3.16a38.72,38.72,0,0,0,8.72-10.88h-.48c-1.6,0-4.52-.08-6.68-.28V61.76a50.82,50.82,0,0,0,7,.44h1.92a22,22,0,0,0,.8-4.52l5.2.44c-.2,1-.48,2.32-1,3.92a91.47,91.47,0,0,0,11.2-1.16l0,4.64a129,129,0,0,1-12.92,1,24.2,24.2,0,0,1-2.28,4,12.4,12.4,0,0,1,4.48-.8,5.4,5.4,0,0,1,5.28,3.08c2-1,3.72-1.64,5.36-2.36s2.92-1.36,4.36-2l2,4.6a42,42,0,0,0-4.72,1.68c-1.76.68-4,1.56-6.44,2.68,0,2.2.12,5.11.16,6.91Z" transform="translate(0 -0.2)" fill="#005cdc"/><path d="M348,73.68a32.24,32.24,0,0,1,7.6-1c6.08,0,10.88,3.24,10.88,8.68,0,4.67-2.44,8.19-8.72,9.75a32.27,32.27,0,0,1-5.2.64l-1.84-5.08a30.28,30.28,0,0,0,4.88-.28c3.2-.56,5.76-2.2,5.76-5.07,0-2.68-2.4-4.24-5.84-4.24a28.12,28.12,0,0,0-7.44,1.08c.08,3.16.2,6.19.2,7.55,0,4.92-1.8,6.2-4.36,6.2-3.88,0-9.36-3.32-9.36-7.52,0-3.47,4-7,8.88-9.15,0-.92,0-1.84,0-2.76V69.12c-.76,0-1.48.08-2.12.08-1.8,0-3.8,0-5.52-.2l-.08-4.8a43.4,43.4,0,0,0,5.48.32c.72,0,1.48,0,2.28-.08,0-1.4,0-2.56,0-3.24a31.44,31.44,0,0,0-.28-3.48h5.44c-.08.72-.24,2.44-.32,3.44s-.08,1.84-.12,2.84a54.25,54.25,0,0,0,7.28-1.48l.12,5a76.5,76.5,0,0,1-7.56,1.24c0,1.2,0,2.4,0,3.56Zm-4.36,11.11c0-1,0-2.79-.12-4.87-2.44,1.24-4,2.87-4,4.27,0,1.2,1.84,2.32,2.88,2.32.72,0,1.28-.36,1.28-1.72M360,62a87.5,87.5,0,0,1,9.72,5.56l-2.4,4.08a60.17,60.17,0,0,0-9.52-5.76Z" transform="translate(0 -0.2)" fill="#005cdc"/><path d="M389.16,77.24c-1.28.4-2.56.8-3.84,1.16V88.51c0,2.2-.36,3.4-1.56,4.16s-2.92.92-5.56.88a19.42,19.42,0,0,0-1.16-4.4,31.53,31.53,0,0,0,3.28,0c.48,0,.68-.16.68-.68V79.68c-1.32.4-2.64.76-3.8,1.08l-1-4.56c1.36-.28,3-.72,4.84-1.16V68.12h-4.2V63.76H381V56.24h4.32v7.52H389v4.36h-3.64v5.76l3.24-.92Zm17,3.83a25.18,25.18,0,0,0,8.32,7.24,18.49,18.49,0,0,0-3.2,3.64,27.41,27.41,0,0,1-7.64-7.56v9.12h-4.72V84.35a25.49,25.49,0,0,1-8.88,8,18.61,18.61,0,0,0-3-3.64,22.27,22.27,0,0,0,9.36-7.6h-6.92V76.84h9.48v-4h4.52c-1-.72-1.2-2-1.2-4.08V63h4.24v5.76c0,1,.16,1.08.88,1.08h1.92c.72,0,.88-.36,1-3a10,10,0,0,0,3.68,1.48c-.4,4.2-1.48,5.28-4.12,5.28h-3.16a6,6,0,0,1-3-.56v3.8h9.64v4.23Zm-6-18c-.36,6.08-1.68,9.64-8.88,11.48A12.48,12.48,0,0,0,389,71.16c5.84-1.32,6.6-3.6,6.84-8.12Zm-6.32,3.16h-4V58H413.2V66H409V62.08H393.88Z" transform="translate(0 -0.2)" fill="#005cdc"/><path d="M432.48,58.48a40.65,40.65,0,0,0-.52,5.28c-.2,4.24-.48,13.12-.48,18,0,4,2.4,5.27,5.44,5.27,6.56,0,10.72-3.75,13.56-8.07l3.6,4.43a20.62,20.62,0,0,1-17.2,9c-6.48,0-10.68-2.84-10.68-9.59,0-5.32.4-15.72.4-19.12a24.87,24.87,0,0,0-.52-5.36Z" transform="translate(0 -0.2)" fill="#005cdc"/><path d="M478.72,87c1.52-.2,2.64-.4,3.68-.64,5.08-1.2,9-4.83,9-10.59,0-5.48-3-9.56-8.28-10.48a86.08,86.08,0,0,1-2.36,10.76C478.4,84.08,475,89,470.64,89s-8.08-4.83-8.08-11.51c0-9.12,8-17,18.24-17,9.8,0,16,6.84,16,15.48,0,8.32-5.12,14.23-15.12,15.75Zm-3.08-12a63.58,63.58,0,0,0,2.12-9.6c-6.56,1.36-10,7.12-10,11.48,0,4,1.6,6,3.08,6,1.64,0,3.24-2.48,4.84-7.84" transform="translate(0 -0.2)" fill="#005cdc"/><path d="M522.84,67.12c-.12,1.72-.24,3.48-.44,5.2h15.44a19.46,19.46,0,0,1-.16,2.08c-.72,10.87-1.56,15.35-3.16,17.11a5.91,5.91,0,0,1-4.32,1.84,54.79,54.79,0,0,1-6.84,0,11.07,11.07,0,0,0-1.68-4.68c2.76.28,5.56.28,6.72.28a2.57,2.57,0,0,0,1.92-.52c1-.88,1.76-4.36,2.32-11.63h-11c-1.52,6.75-4.84,13-12.84,17a15.21,15.21,0,0,0-3.36-4c10.8-5,11.72-14.11,12.16-22.67H506.16V62.56h15.32V56h4.92v6.52h15.8v4.56Z" transform="translate(0 -0.2)" fill="#005cdc"/><path d="M554,75c1.84-1.88,4.92-6,7.36-8.8,2.76-3.16,5.36-3.44,8.24-.64,2.68,2.64,5.84,6.72,8.2,9.28a135.07,135.07,0,0,0,9.68,9.71l-4.08,4.68c-2.84-2.68-6.24-6.47-8.76-9.43s-5.4-6.68-7.28-8.76c-1.4-1.52-2.12-1.32-3.28.12-1.56,2-4.4,5.92-6.08,8.16-.92,1.28-1.8,2.72-2.52,3.76l-4.8-5A33.6,33.6,0,0,0,554,75" transform="translate(0 -0.2)" fill="#005cdc"/></g></g></g></svg>