<svg xmlns="http://www.w3.org/2000/svg" xmlns:xlink="http://www.w3.org/1999/xlink" width="330.16" height="37.35" viewBox="0 0 330.16 37.35"><defs><clipPath id="clip-path"><rect width="330.16" height="37.35" fill="none"/></clipPath></defs><g id="Layer_2" data-name="Layer 2"><g id="Layer_1-2" data-name="Layer 1"><g clip-path="url(#clip-path)"><path d="M13.44,17.44a32.24,32.24,0,0,1,7.6-1c6.08,0,10.87,3.24,10.87,8.68,0,4.68-2.44,8.2-8.71,9.75a31.26,31.26,0,0,1-5.2.65L16.16,30.4A30.28,30.28,0,0,0,21,30.12c3.2-.56,5.75-2.2,5.75-5.08,0-2.68-2.39-4.24-5.83-4.24a28.12,28.12,0,0,0-7.44,1.08c.08,3.16.2,6.2.2,7.56,0,4.92-1.8,6.2-4.36,6.2C5.48,35.64,0,32.32,0,28.12c0-3.48,4-7,8.88-9.16,0-.92,0-1.84,0-2.76V12.88c-.76,0-1.48.08-2.12.08-1.8,0-3.8,0-5.52-.2L1.12,8a43.4,43.4,0,0,0,5.48.32c.72,0,1.48,0,2.28-.08,0-1.4,0-2.56,0-3.24a31.44,31.44,0,0,0-.28-3.48h5.44c-.08.72-.24,2.44-.32,3.44s-.08,1.84-.12,2.84a54.25,54.25,0,0,0,7.28-1.48l.12,5a76.5,76.5,0,0,1-7.56,1.24c0,1.2,0,2.4,0,3.56ZM9.08,28.56c0-1,0-2.8-.12-4.88-2.44,1.24-4,2.88-4,4.28,0,1.2,1.84,2.32,2.88,2.32.72,0,1.28-.36,1.28-1.72M25.4,5.76a88.22,88.22,0,0,1,9.71,5.56l-2.4,4.08A60.07,60.07,0,0,0,23.2,9.64Z"/><path d="M48.6,16.36v21H43.88V1.48H59.16V16.36Zm0-9.08h6.12V5.12H48.6Zm6.12,3.2H48.6v2.28h6.12Zm2.44,21.2v2.24H52.72V19.12H68.19V31.68Zm0-3.92h6.6V23h-6.6Zm20.43,3.88c0,2.64-.56,4-2.24,4.76s-4.16.92-7.83.92a17.19,17.19,0,0,0-1.6-4.89,54.07,54.07,0,0,0,5.79.08c.76,0,1-.23,1-.95V16.4H61.92V1.48H77.59ZM66.44,7.28h6.31V5.08H66.44Zm6.31,3.2H66.44V12.8h6.31Z"/><path d="M107.52,0a40.22,40.22,0,0,0,17.11,13.76A23.25,23.25,0,0,0,121.55,18a47.2,47.2,0,0,1-6.11-3.8V17H95.52V14.2a55.73,55.73,0,0,1-6.2,3.92,19.42,19.42,0,0,0-3-3.88C93.2,10.92,99.6,4.88,102.6,0ZM92.88,21h25.36V37.35h-4.88V35.88H97.56v1.47H92.88Zm20.6-8.16a43.82,43.82,0,0,1-8.2-8.12,40.87,40.87,0,0,1-8,8.12ZM97.56,31.68h15.8V25.16H97.56Z"/><path d="M160,2.6a33.74,33.74,0,0,0-.24,3.4c0,1.56-.08,3-.12,4.28,1.08-.08,2.08-.16,3-.2l3.79-.28v4.88c-.68,0-2.75,0-3.83,0-.84,0-1.88.08-3,.16a69.29,69.29,0,0,1-.6,7.92c-.4,2.08-1.4,2.6-3.44,2.6a50.13,50.13,0,0,1-6-.6l.12-4.36a24.71,24.71,0,0,0,3.64.48c.8,0,1.12-.16,1.24-.92a44.77,44.77,0,0,0,.28-4.76c-3.48.28-7.36.64-10.76,1,0,3.64-.08,7.28,0,9,.12,3.88.44,4.76,6.4,4.76a73.67,73.67,0,0,0,11.84-1l-.2,5.44a111.3,111.3,0,0,1-11.28.64c-10.28,0-11.52-2.16-11.68-9,0-1.68,0-5.52,0-9.24l-2.68.28c-1.24.16-3.72.56-4.76.72l-.52-5.08c1.12,0,3-.08,5-.24l3-.28v-4a29.91,29.91,0,0,0-.32-4.4h5.6a31.33,31.33,0,0,0-.24,4.12c0,.92,0,2.24,0,3.8,3.36-.32,7.2-.68,10.8-1V6.2a30.68,30.68,0,0,0-.28-3.6Z"/><path d="M205.48,7.2a16.29,16.29,0,0,0-.88,2.8c-.92,3.92-2.68,10.12-6,14.56a32,32,0,0,1-16.08,11l-4.36-4.79c7.92-1.84,12.44-5.32,15.68-9.36a25.32,25.32,0,0,0,4.68-11.28H179.88c-1.8,0-3.72.08-4.76.16V4.68c1.2.12,3.48.32,4.8.32H198.4a13.41,13.41,0,0,0,3.16-.32Z"/><path d="M240.76,14.72c1,0,2.56-.16,3.24-.24v4.84c-.92,0-2.16-.08-3-.08h-4.8c.12,4.76.24,10.2.28,14.28,0,2.07-1.56,3.51-3.88,3.51-1.92,0-4.4-.08-6.2-.2L226,32.28a36.54,36.54,0,0,0,4.6.36c.76,0,1-.44,1-1.24,0-2,0-4.88-.08-7.92A45.27,45.27,0,0,1,218.68,34l-3.48-4c5.64-2.6,11.2-7,14-10.76h-8.56c-1.16,0-2.6.08-3.76.16V14.48a35.5,35.5,0,0,0,3.64.24H231.4c0-.88,0-1.68-.08-2.44,0-1-.16-2.24-.32-3.32h5.16a29.32,29.32,0,0,0-.16,3.32l0,2.44Z"/><path d="M253.6,15.32c1.44.12,4.36.24,6.44.24h21.48c1.84,0,3.64-.16,4.68-.24V21.6c-1,0-3-.2-4.68-.2H260c-2.28,0-5,.08-6.44.2Z"/><path d="M324.76,35.64c-.52-1.36-1.16-3-1.88-4.72-6.52.76-18.64,2-23.68,2.56l-3.76.48-.92-5.84c1.36,0,3.08,0,4.4,0L300,28c2.32-5.92,5.76-16.88,6.92-21a29.68,29.68,0,0,0,1-4.6l6.36,1.28a45.51,45.51,0,0,0-1.72,4.44C311.24,12,308,22.2,306,27.56c4.88-.48,10.56-1.12,14.6-1.6a48.35,48.35,0,0,0-4.2-7.32l5-2a123,123,0,0,1,8.76,16.64Z"/></g></g></g></svg>