<svg xmlns="http://www.w3.org/2000/svg" xmlns:xlink="http://www.w3.org/1999/xlink" width="49.05" height="34.93" viewBox="0 0 49.05 34.93"><defs><clipPath id="clip-path" transform="translate(0 0)"><rect width="49.05" height="34.93" fill="none"/></clipPath></defs><g id="Layer_2" data-name="Layer 2"><g id="Layer_1-2" data-name="Layer 1"><g clip-path="url(#clip-path)"><path d="M26.31,31.6c-1.62,1.18-4.16,2.55-9.16,2.55s-8.82-1.52-12-4.65A17.24,17.24,0,0,1,0,17.05,17.44,17.44,0,0,1,5,4.9,17.8,17.8,0,0,1,17.74,0,18.49,18.49,0,0,1,30.38,4.7a16.72,16.72,0,0,1,5.09,12.45,15,15,0,0,1-1.37,6.32,12.24,12.24,0,0,1-3.18,4.41l5.68,6.17-7.1.88Zm-.49-8.67a9.28,9.28,0,0,0,1.91-5.88,9.94,9.94,0,0,0-2.79-7.2A10,10,0,0,0,17.74,7a10,10,0,0,0-7.16,2.89A10.9,10.9,0,0,0,7.74,17.2a10.22,10.22,0,0,0,2.75,7.1,9.39,9.39,0,0,0,7,2.89,9.06,9.06,0,0,0,3.92-.83l-5.88-5.78,7.3-.79Z" transform="translate(0 0)" fill="#005cdc"/><path d="M44.59,25.28a4.46,4.46,0,1,1-4.46,4.46,4.41,4.41,0,0,1,4.46-4.46" transform="translate(0 0)" fill="#005cdc"/></g></g></g></svg>