<svg xmlns="http://www.w3.org/2000/svg" xmlns:xlink="http://www.w3.org/1999/xlink" width="392.82" height="65.05" viewBox="0 0 392.82 65.05"><defs><clipPath id="clip-path" transform="translate(0 0)"><rect width="392.82" height="65.05" fill="none"/></clipPath></defs><g id="Layer_2" data-name="Layer 2"><g id="Layer_1-2" data-name="Layer 1"><g clip-path="url(#clip-path)"><path d="M91.42,20.28v3.6l-6.59.23a14.4,14.4,0,0,1,1.72,2.58L82.27,28a17.32,17.32,0,0,0-2.36-3.76l-2.08.07a22.77,22.77,0,0,1-3.12,3.55,28.71,28.71,0,0,0-4.19-2.09c.48-.38,1-.8,1.44-1.25l-5.32.18A17,17,0,0,1,68,27.3L63.8,28.6A17.71,17.71,0,0,0,62,24.9l-.44,0a29.73,29.73,0,0,1-3.27,3.95,24.23,24.23,0,0,0-3.88-2.42,22.35,22.35,0,0,0,5.88-8.2l4.43,1c-.28.65-.6,1.3-.92,1.95l8.88-.31v2.84a20,20,0,0,0,3.83-6.09l4.56.92q-.42,1-1,2.07ZM61.68,39.63v16.2L57.37,56V29.07l14.87-.52V39.27Zm0-8V33L68,32.78V31.46Zm6.28,5V35.34l-6.28.22v1.36ZM89.78,50.09c0,2.2-.44,3.38-1.88,4.07s-3.51.92-6.47,1a13.62,13.62,0,0,0-1-3.44L70,52.06v1.4l-4.28.15V41l15.11-.52V51c1.6,0,3.2-.07,3.72-.09s.8-.18.8-.78V38.81l-10.72.37V28.46l15.15-.52ZM70,43.5v1.68L76.63,45V43.27Zm6.63,5.73V47.51L70,47.74v1.72Zm2.28-18.16v1.32l6.44-.22V30.85Zm6.44,5V34.73L78.91,35v1.36Z" transform="translate(0 0)" fill="#005cdc"/><path d="M138.91,46.62l-15.71.55v6.51l-4.87.17V47.34l-15.43.53V43.48l15.43-.54v-2.6l-11.91.41V23.92l3.35-.12a37.11,37.11,0,0,0-3.31-4.8l4.07-2a32.14,32.14,0,0,1,4,5.46l-2.48,1.29,7.08-.25a25.54,25.54,0,0,0-3-5.41l4.28-1.75A29.1,29.1,0,0,1,124,22.14l-2.87,1.26,6.11-.21A38.41,38.41,0,0,0,131,16.1l5.31,1.33c-1.2,2-2.51,3.93-3.71,5.57l3.15-.11V39.73l-12.51.44v2.6l15.71-.55ZM118.33,27.38l-7.32.25v2.68l7.32-.25Zm0,9V33.7L111,34v2.72Zm12.47-9.48-7.6.27v2.68l7.6-.27Zm0,6.32-7.6.27v2.72l7.6-.27Z" transform="translate(0 0)" fill="#005cdc"/><path d="M171.49,16.92c0,7.56,1.08,22.12,15.79,30.29a26.64,26.64,0,0,0-3.84,4.29c-8.27-4.71-12.51-12.12-14.7-19.2-3,9.06-7.8,15.87-14.75,20.27a36.32,36.32,0,0,0-4.36-3.73c8.31-4.49,13.07-12.37,15.27-23l2.44.36c-.28-1.51-.44-2.95-.56-4.3l-9.12.32V17.41Z" transform="translate(0 0)" fill="#005cdc"/><path d="M231,20.93s0,1.64-.12,2.28c-.79,15.94-1.59,22-3.35,24.11a5.59,5.59,0,0,1-4.08,2.38A40.22,40.22,0,0,1,217,50a10.66,10.66,0,0,0-1.64-4.86c2.51.11,4.87,0,5.91,0a2.44,2.44,0,0,0,1.88-.71c1.2-1.28,2-6.54,2.64-18.45l-11.19.4c-.64,8.3-3.44,18.11-14.67,24.86a18.11,18.11,0,0,0-3.72-3.75c9.91-5.74,12.59-13.91,13.27-20.94l-12,.42V22.1l12.23-.43V13.43l5.08-.18v8.24Z" transform="translate(0 0)" fill="#005cdc"/><path d="M246.51,43.4l9.26-.32V9.13l-7.59.27v-5A23.19,23.19,0,0,0,257.37.17l5-.17V42.85l8.28-.29v6.56L246.51,50Z" transform="translate(0 0)" fill="#005cdc"/><path d="M307.53,10.37A43.93,43.93,0,0,0,319.4,24.2a23.89,23.89,0,0,0-4,4.42c-.84-.73-1.68-1.58-2.56-2.47v.28c-.44,12.09-.92,16.82-2.32,18.55a5,5,0,0,1-3.64,2,39.41,39.41,0,0,1-6,.33,11.11,11.11,0,0,0-1.56-4.74c2.2.08,4.28.05,5.28,0a1.89,1.89,0,0,0,1.59-.61c.8-.87,1.24-4.45,1.6-12.82l-7.87.28c-1,7.71-3.6,14.64-13.95,18.88A15.17,15.17,0,0,0,282.75,44c9-3.23,11.11-8.54,11.91-14.41l-6.75.23V27.06a32.75,32.75,0,0,1-3.2,3,27.16,27.16,0,0,0-4.08-3.7A34.83,34.83,0,0,0,292.43,11l5.11,1.3a50.5,50.5,0,0,1-7.91,12.88l21.58-.76a64.23,64.23,0,0,1-8.35-12Z" transform="translate(0 0)" fill="#005cdc"/><path d="M329.88,42.21a4.45,4.45,0,0,1,4.16-4.7c2.36-.08,4.15,1.79,4.15,4.41A4.38,4.38,0,0,1,334,46.58a4,4,0,0,1-4.16-4.37m.68-23.48-.16-6.85,7.31-.26-.19,6.86-1.4,15.79-4.12.14Z" transform="translate(0 0)" fill="#005cdc"/><line x1="10.7" y1="5" x2="30.01" y2="57.38" fill="none" stroke="#005cdc" stroke-linecap="round" stroke-linejoin="round" stroke-width="2"/><line x1="1" y1="13.71" x2="24.86" y2="64.05" fill="none" stroke="#005cdc" stroke-linecap="round" stroke-linejoin="round" stroke-width="2"/><line x1="382.12" y1="4.02" x2="362.81" y2="57.74" fill="none" stroke="#005cdc" stroke-linecap="round" stroke-linejoin="round" stroke-width="2"/><line x1="391.82" y1="12.05" x2="367.96" y2="64.05" fill="none" stroke="#005cdc" stroke-linecap="round" stroke-linejoin="round" stroke-width="2"/></g></g></g></svg>