<svg xmlns="http://www.w3.org/2000/svg" xmlns:xlink="http://www.w3.org/1999/xlink" width="113.28" height="47" viewBox="0 0 113.28 47"><defs><clipPath id="clip-path"><rect width="113.28" height="47" fill="none"/></clipPath></defs><g id="Layer_2" data-name="Layer 2"><g id="Layer_1-2" data-name="Layer 1"><rect x="36.65" width="5.35" height="29.98" fill="#231815"/><rect width="5.35" height="29.98" fill="#231815"/><g clip-path="url(#clip-path)"><path d="M113.28,23.13c0,4.67-2.27,6.85-7.16,6.85H89.89c-4.84,0-7.19-2.18-7.19-6.85V6.85C82.7,2.23,85.05,0,89.89,0h16.23c4.89,0,7.16,2.23,7.16,6.85Zm-5.4-14.92c0-2.89-.73-3.52-4.28-3.52H92.37c-3.55,0-4.32.63-4.32,3.52V21.77c0,2.89.77,3.52,4.32,3.52H103.6c3.55,0,4.28-.63,4.28-3.52Z" fill="#231815"/><polygon points="73.29 0 63.13 13.61 52.96 0 46.43 0 60.43 18.67 60.43 29.98 65.82 29.98 65.82 18.67 79.82 0 73.29 0" fill="#231815"/><polygon points="25.24 0 12.06 13.69 5.35 13.69 5.35 18.61 14.29 18.61 32.22 0 25.24 0" fill="#ee7800"/><polygon points="32.22 29.98 17.78 14.99 14.29 18.61 25.24 29.98 32.22 29.98" fill="#231815"/><polygon points="12.52 45.24 18.95 45.24 18.95 47 10.35 47 10.35 37.59 12.52 37.59 12.52 45.24" fill="#231815"/><polygon points="31.13 37.59 31.13 39.35 24.17 39.35 24.17 41.4 30.09 41.4 30.09 43.12 24.17 43.12 24.17 45.24 31.13 45.24 31.13 47 21.99 47 21.99 37.59 31.13 37.59" fill="#231815"/><rect x="74.37" y="37.59" width="2.18" height="9.41" fill="#231815"/><path d="M100.82,40.59V40c0-.42-.2-.62-.65-.62H96.61c-1,0-1.19.18-1.19,1v3.87c0,.83.2,1,1.19,1h3.56c.45,0,.65-.2.65-.62V43.46H98.21V41.74h4.72V44.9c0,1.55-.58,2.1-2.19,2.1H95.5c-1.54,0-2.26-.67-2.26-2.15V39.74c0-1.48.72-2.15,2.26-2.15h5.24c1.61,0,2.19.55,2.19,2.1v.9Z" fill="#231815"/><path d="M36.14,47l.75-1.8H42l.78,1.8h2.37l-4.19-9.41H38.05L33.86,47Zm3.29-7.78,1.82,4.26H37.62Z" fill="#231815"/><polygon points="68.91 37.59 68.91 45.27 64.27 37.59 60.98 37.59 60.98 47 63 47 63 39.34 67.64 47 70.94 47 70.94 37.59 68.91 37.59" fill="#231815"/><polygon points="87.87 37.59 87.87 45.27 83.22 37.59 79.94 37.59 79.94 47 81.95 47 81.95 39.34 86.59 47 89.9 47 89.9 37.59 87.87 37.59" fill="#231815"/><path d="M50.18,43.83h2.39L55.41,47h2.7L55,43.73h.36a1.92,1.92,0,0,0,2.2-2.19V39.69c0-1.44-.67-2.1-2.2-2.1H48V47h2.18Zm0-4.48h4.09c.95,0,1.11.16,1.11.94v.84c0,.78-.16.94-1.11.94H50.18Z" fill="#231815"/></g></g></g></svg>