<svg xmlns="http://www.w3.org/2000/svg" xmlns:xlink="http://www.w3.org/1999/xlink" width="170.92" height="35" viewBox="0 0 170.92 35"><defs><clipPath id="clip-path"><rect width="170.92" height="35" fill="none"/></clipPath></defs><g id="Layer_2" data-name="Layer 2"><g id="Layer_1-2" data-name="Layer 1"><rect y="0.02" width="10.26" height="34.25" fill="#e62320"/><rect x="160.74" y="9.69" width="10.17" height="24.58" fill="#e62320"/><rect x="160.74" width="10.16" height="7.01" fill="#e62320"/><g clip-path="url(#clip-path)"><path d="M140.39,20.15c0-2.44,1.31-3.69,3.35-3.69a3.58,3.58,0,0,1,3.56,3.69V34.26h10.17V19.09c0-5.4-2.32-9.93-9.38-9.93-5.52,0-7.05,1.53-8.52,3.28h0V9.66h-9.34v24.6h10.15Z" fill="#e62320"/><path d="M90.61,34.51h0A7,7,0,0,1,84.14,28V14.43H80.61V9.22h3.53V1.5H94.31V9.22h4.55v5.21H94.31v9.7a3,3,0,0,0,3,3.25h1.33V34a37.2,37.2,0,0,1-8,.51" fill="#e62320"/><path d="M32.54,21.25l-3.68,13H19.53L11.09,9.65h9.69c.78,1.71,3.54,11.31,3.84,12.62A93.38,93.38,0,0,1,28.47,9.65h8.16a105.37,105.37,0,0,1,3.83,12.63c.19-.8,3.21-11.33,4-12.63H54L46.42,34.24H36.84Z" fill="#e62320"/><path d="M62.75,17.65H54.21c.32-7.23,5.3-9.52,12.78-9.52,7.73,0,12.51,2.44,12.52,7V30.87a12,12,0,0,0,1.06,3.39H70.81a7,7,0,0,1-.93-2.55C66.89,34.3,64.7,35,61.55,35,59.41,35,53,33.93,53,27.58c0-7.24,8.55-8.19,13.67-9,3.45-.57,3.18-2.49,3.18-2.49,0-1.13-1.42-2-3.17-2s-3.41,1.05-4,3.64m3.38,6.24c-1.72.34-3.78,1.17-3.78,2.89,0,1.55.8,2.34,2.8,2.34,0,0,3,0,4.13-2.23a10.65,10.65,0,0,0,.6-4.15,24.17,24.17,0,0,1-3.75,1.15" fill="#e62320"/><path d="M110.32,17.65h-8.54c.31-7.23,5.3-9.52,12.77-9.52,7.74,0,12.51,2.44,12.53,7V30.87a11.64,11.64,0,0,0,1.06,3.39h-9.78a7,7,0,0,1-.91-2.55c-3,2.59-5.19,3.29-8.33,3.29-2.14,0-8.53-1.07-8.53-7.42,0-7.24,8.56-8.19,13.68-9,3.45-.57,3.18-2.49,3.18-2.49,0-1.13-1.43-2-3.18-2s-3.4,1.05-4,3.64m3.38,6.24c-1.72.34-3.78,1.17-3.78,2.89,0,1.55.8,2.34,2.79,2.34,0,0,3.05,0,4.14-2.23a10.84,10.84,0,0,0,.6-4.15,24.17,24.17,0,0,1-3.75,1.15" fill="#e62320"/></g></g></g></svg>