<svg xmlns="http://www.w3.org/2000/svg" xmlns:xlink="http://www.w3.org/1999/xlink" width="140.98" height="48.93" viewBox="0 0 140.98 48.93"><defs><clipPath id="clip-path" transform="translate(0.98 0.99)"><path d="M27.19,9.34l-1.07,1.41a.73.73,0,0,0-.09.56l.28.91a.19.19,0,0,0,.33.09l.72-.63a.73.73,0,0,0,.21-.52L27.41,9.4c0-.1-.05-.15-.1-.15s-.08,0-.12.09" fill="none"/></clipPath><linearGradient id="linear-gradient" y1="46.93" x2="1" y2="46.93" gradientTransform="matrix(0, -46.71, -46.71, 0, 2218.86, 43.36)" gradientUnits="userSpaceOnUse"><stop offset="0" stop-color="#f6ab00"/><stop offset="0.07" stop-color="#f29200"/><stop offset="0.16" stop-color="#ef7e00"/><stop offset="0.24" stop-color="#ee7100"/><stop offset="0.32" stop-color="#ed6d00"/><stop offset="0.6" stop-color="#ea3b11"/><stop offset="0.86" stop-color="#e7101f"/><stop offset="1" stop-color="#e60024"/></linearGradient><clipPath id="clip-path-2" transform="translate(0.98 0.99)"><path d="M16.3,25.66a.42.42,0,0,1-.13-.48L17.57,22l0,0h0c0-.07,0-.12,0-.14l.4-3.44a.41.41,0,0,1,.35-.35l3.47-.38h.05c.07,0,.12,0,.13-.05l3.17-1.38a.42.42,0,0,1,.48.13l2.07,2.81s0,0,0,0h0c0,.06.08.09.11.09l2.78,2.06a.41.41,0,0,1,.13.47L29.37,25s0,0,0,0h0a.19.19,0,0,0,0,.14l-.39,3.44a.42.42,0,0,1-.35.35l-3.47.38h-.05c-.07,0-.12,0-.13.06l-3.18,1.38a.41.41,0,0,1-.47-.13l-2.07-2.81s0,0,0,0v0c0-.06-.08-.08-.11-.08Zm5.22-14.21,2.35,2.65a.41.41,0,0,1,0,.49l-2,2.85L18.68,16a.4.4,0,0,1-.22-.44l.72-3.47c0-.17,0-.2-.15-.08l-3.15,3.47-.45.44L12,19c-.13.11-.1.18.07.15l3.48-.71a.42.42,0,0,1,.43.23l1.44,3.18-2.84,2a.41.41,0,0,1-.49,0l-2.65-2.35c-.12-.12-.19-.08-.13.09l1.42,4.46c0,.16.12.43.16.6l1,4.53c0,.17.12.17.17,0l1.13-3.36a.4.4,0,0,1,.41-.27l3.48.35.33,3.47a.4.4,0,0,1-.27.41l-3.36,1.12c-.16,0-.16.12,0,.16l4.58,1,.6.16,4.4,1.43c.17,0,.21,0,.09-.14l-2.34-2.66a.41.41,0,0,1,0-.49l2-2.84L28.27,31a.43.43,0,0,1,.22.44l-.72,3.47c0,.17,0,.2.15.07l3.15-3.46a6.2,6.2,0,0,1,.45-.44L35,28c.13-.12.1-.18-.07-.15l-3.48.71A.41.41,0,0,1,31,28.3l-1.44-3.19,2.84-2a.41.41,0,0,1,.49,0l2.64,2.35c.13.12.2.08.14-.09l-1.42-4.46c0-.16-.12-.44-.16-.61l-1-4.52c0-.17-.11-.17-.16,0L31.8,19.14a.43.43,0,0,1-.41.27l-3.48-.35-.33-3.47a.4.4,0,0,1,.26-.41l3.37-1.12c.16-.05.16-.13,0-.16l-4.58-1a5.9,5.9,0,0,1-.6-.17l-4.4-1.42-.1,0c-.08,0-.08.06,0,.16" fill="none"/></clipPath><linearGradient id="linear-gradient-2" y1="46.93" y2="46.93" gradientTransform="matrix(0, -46.58, -46.58, 0, 2209.23, 46.65)" xlink:href="#linear-gradient"/><clipPath id="clip-path-3" transform="translate(0.98 0.99)"><path d="M35.3,19.61l-.65.7a.19.19,0,0,0,.09.33l.9.31a.73.73,0,0,0,.56-.08l1.44-1c.14-.1.12-.2,0-.22l-1.76-.21h0a.75.75,0,0,0-.48.2" fill="none"/></clipPath><linearGradient id="linear-gradient-3" y1="46.93" y2="46.93" gradientTransform="matrix(0, -46.55, -46.55, 0, 2220.68, 39.8)" xlink:href="#linear-gradient"/><clipPath id="clip-path-4" transform="translate(0.98 0.99)"><path d="M31.57,31.82l.19.94a.7.7,0,0,0,.35.44l1.6.74c.16.07.23,0,.16-.16l-.69-1.63a.7.7,0,0,0-.43-.36l-.94-.21h-.06c-.13,0-.21.1-.18.25" fill="none"/></clipPath><linearGradient id="linear-gradient-4" y1="46.92" y2="46.92" gradientTransform="matrix(0, -46.51, -46.51, 0, 2215.34, 43.22)" xlink:href="#linear-gradient"/><clipPath id="clip-path-5" transform="translate(0.98 0.99)"><path d="M20.31,34.67l-.72.63a.72.72,0,0,0-.21.52l.16,1.76c0,.17.12.2.22.06l1.06-1.42a.66.66,0,0,0,.1-.55l-.29-.91a.2.2,0,0,0-.17-.16.19.19,0,0,0-.15.07" fill="none"/></clipPath><linearGradient id="linear-gradient-5" y1="46.92" y2="46.92" gradientTransform="matrix(0, -46.7, -46.7, 0, 2211.62, 50.06)" xlink:href="#linear-gradient"/><clipPath id="clip-path-6" transform="translate(0.98 0.99)"><path d="M10.75,26.11l-1.44,1c-.15.1-.12.2,0,.22l1.76.21a.7.7,0,0,0,.52-.19l.66-.71a.19.19,0,0,0-.09-.33l-.9-.3a.52.52,0,0,0-.18,0,.7.7,0,0,0-.38.11" fill="none"/></clipPath><linearGradient id="linear-gradient-6" y1="46.93" y2="46.93" gradientTransform="matrix(0, -46.56, -46.56, 0, 2195.69, 53.47)" xlink:href="#linear-gradient"/><clipPath id="clip-path-7" transform="translate(0.98 0.99)"><path d="M13.07,13.2l.7,1.63a.69.69,0,0,0,.43.35l.93.22c.18,0,.28-.07.25-.24l-.19-.94a.73.73,0,0,0-.35-.44L13.23,13l-.1,0c-.08,0-.11.07-.06.19" fill="none"/></clipPath><linearGradient id="linear-gradient-7" y1="46.93" y2="46.93" gradientTransform="matrix(0, -46.51, -46.51, 0, 2197.02, 50)" xlink:href="#linear-gradient"/><clipPath id="clip-path-8" transform="translate(0.98 0.99)"><path d="M28.47,3.47,23.8,3.7h-.63l-4.62-.23c-.18,0-.2.07-.05.16l3,1.95a.42.42,0,0,1,.15.47L20.37,9.37c-.06.17,0,.21.13.1l2.77-2.21a.4.4,0,0,1,.49,0l2.77,2.2c.14.11.2.07.14-.1L25.42,6.05a.41.41,0,0,1,.15-.47l2.95-1.95c.14-.09.13-.16,0-.16h0" fill="none"/></clipPath><linearGradient id="linear-gradient-8" y1="46.94" y2="46.94" gradientTransform="matrix(0, -46.48, -46.48, 0, 2205.37, 44.25)" xlink:href="#linear-gradient"/><clipPath id="clip-path-9" transform="translate(0.98 0.99)"><path d="M23.51,0s-.07,0-.1.12l-.66,1.64a.68.68,0,0,0,.06.56l.51.81a.18.18,0,0,0,.34,0l.52-.79a.69.69,0,0,0,.07-.56L23.63.12c0-.08-.06-.12-.1-.12Z" fill="none"/></clipPath><linearGradient id="linear-gradient-9" y1="46.93" y2="46.93" gradientTransform="matrix(0, -46.64, -46.64, 0, 2212.28, 43.74)" xlink:href="#linear-gradient"/><clipPath id="clip-path-10" transform="translate(0.98 0.99)"><path d="M28.47,21.85l-4.67.23c-.18,0-.46,0-.63,0l-4.62-.22c-.18,0-.2.07-.05.16l3,1.95a.41.41,0,0,1,.15.46l-1.24,3.32c-.06.16,0,.21.13.1l2.77-2.21a.4.4,0,0,1,.49,0l2.77,2.2c.14.11.2.06.14-.1l-1.25-3.31a.41.41,0,0,1,.15-.47L28.52,22c.14-.09.13-.16,0-.16h0" fill="none"/></clipPath><linearGradient id="linear-gradient-10" y1="46.94" y2="46.94" gradientTransform="matrix(0, -46.48, -46.48, 0, 2205.33, 46.78)" xlink:href="#linear-gradient"/><clipPath id="clip-path-11" transform="translate(0.98 0.99)"><path d="M23.41,18.5l-.66,1.64a.69.69,0,0,0,.06.56l.51.81a.18.18,0,0,0,.34,0l.52-.8a.67.67,0,0,0,.07-.55l-.62-1.66c0-.08-.07-.12-.11-.12s-.08,0-.11.12" fill="none"/></clipPath><linearGradient id="linear-gradient-11" y1="46.93" y2="46.93" gradientTransform="matrix(0, -46.64, -46.64, 0, 2212.26, 46.2)" xlink:href="#linear-gradient"/><clipPath id="clip-path-12" transform="translate(0.98 0.99)"><path d="M29.07,3.81,30.66,7a.41.41,0,0,1-.1.48L27.83,9.71c-.14.11-.11.18.07.16l3.5-.54a.42.42,0,0,1,.42.25l1.3,3.3c.07.15.14.15.17,0l.57-3.5A.41.41,0,0,1,34.23,9l3.53-.22c.18,0,.19-.08,0-.16L33.63,6.52c-.15-.08-.4-.22-.55-.32L29.19,3.7a.19.19,0,0,0-.11,0s-.06,0,0,.15" fill="none"/></clipPath><linearGradient id="linear-gradient-12" y1="46.92" y2="46.92" gradientTransform="matrix(0, -46.57, -46.57, 0, 2217.62, 39.89)" xlink:href="#linear-gradient"/><clipPath id="clip-path-13" transform="translate(0.98 0.99)"><path d="M35.09,3.22,33.7,4.32a.69.69,0,0,0-.24.51l0,1a.19.19,0,0,0,.3.18l.85-.43A.69.69,0,0,0,35,5.08l.3-1.75c0-.11,0-.17-.07-.17a.19.19,0,0,0-.12.06" fill="none"/></clipPath><linearGradient id="linear-gradient-13" y1="46.93" y2="46.93" gradientTransform="matrix(0, -46.69, -46.69, 0, 2225.55, 38.68)" xlink:href="#linear-gradient"/><clipPath id="clip-path-14" transform="translate(0.98 0.99)"><path d="M38.14,9.25l-.2,3.54a.41.41,0,0,1-.33.36l-3.49.59c-.18,0-.18.1,0,.16l3.3,1.29a.44.44,0,0,1,.25.43l-.53,3.5c0,.17.05.2.15.07l2.25-2.74a.41.41,0,0,1,.48-.1l3.17,1.58c.16.07.21,0,.11-.13l-2.54-3.93c-.09-.14-.24-.39-.32-.54L38.31,9.22c0-.07-.07-.11-.1-.11s-.06.05-.07.14" fill="none"/></clipPath><linearGradient id="linear-gradient-14" y1="46.91" y2="46.91" gradientTransform="matrix(0, -46.55, -46.55, 0, 2222.28, 37.73)" xlink:href="#linear-gradient"/><clipPath id="clip-path-15" transform="translate(0.98 0.99)"><path d="M43.65,11.74,41.9,12a.69.69,0,0,0-.46.32l-.44.85a.19.19,0,0,0,.17.3l.95,0a.7.7,0,0,0,.51-.22l1.13-1.36c.1-.12.07-.2,0-.2h-.06" fill="none"/></clipPath><linearGradient id="linear-gradient-15" y1="46.93" y2="46.93" gradientTransform="matrix(0, -46.55, -46.55, 0, 2226.95, 35.64)" xlink:href="#linear-gradient"/><clipPath id="clip-path-16" transform="translate(0.98 0.99)"><path d="M43.28,18.5l-1.94,3a.43.43,0,0,1-.47.15l-3.32-1.24c-.16-.06-.2,0-.1.13l2.22,2.77a.44.44,0,0,1,0,.49l-2.21,2.77c-.11.14-.06.2.1.14l3.31-1.25a.42.42,0,0,1,.47.15l2,2.95c.09.15.17.12.16-.05l-.24-4.67c0-.18,0-.46,0-.63l.22-4.62c0-.1,0-.15,0-.15s-.06,0-.11.1" fill="none"/></clipPath><linearGradient id="linear-gradient-16" y1="46.94" y2="46.94" gradientTransform="matrix(0, -46.54, -46.54, 0, 2224.62, 38.12)" xlink:href="#linear-gradient"/><clipPath id="clip-path-17" transform="translate(0.98 0.99)"><path d="M44.6,22.8l-.81.52a.19.19,0,0,0,0,.34l.8.52a.68.68,0,0,0,.56.07l1.65-.62c.17-.06.17-.16,0-.22l-1.65-.66a.66.66,0,0,0-.21,0,.75.75,0,0,0-.35.08" fill="none"/></clipPath><linearGradient id="linear-gradient-17" y1="46.93" y2="46.93" gradientTransform="matrix(0, -46.4, -46.4, 0, 2222.67, 35.61)" xlink:href="#linear-gradient"/><clipPath id="clip-path-18" transform="translate(0.98 0.99)"><path d="M37.06,27.89l.53,3.51a.4.4,0,0,1-.24.42l-3.3,1.3c-.16.06-.15.14,0,.17l3.49.57a.41.41,0,0,1,.33.37l.22,3.53c0,.18.08.19.16,0l2.14-4.17c.08-.16.22-.4.31-.55l2.5-3.89c.1-.14.05-.2-.11-.12L40,30.66a.41.41,0,0,1-.48-.1l-2.26-2.73c0-.06-.08-.09-.11-.09s-.06.05,0,.15" fill="none"/></clipPath><linearGradient id="linear-gradient-18" y1="46.94" y2="46.94" gradientTransform="matrix(0, -46.63, -46.63, 0, 2227.55, 40.31)" xlink:href="#linear-gradient"/><clipPath id="clip-path-19" transform="translate(0.98 0.99)"><path d="M42.1,33.46l-1,0a.19.19,0,0,0-.17.3l.43.85a.69.69,0,0,0,.45.33l1.74.3c.17,0,.22-.06.12-.19l-1.1-1.39a.66.66,0,0,0-.49-.24h0" fill="none"/></clipPath><linearGradient id="linear-gradient-19" y1="46.92" y2="46.92" gradientTransform="matrix(0, -46.46, -46.46, 0, 2222.63, 38.6)" xlink:href="#linear-gradient"/><clipPath id="clip-path-20" transform="translate(0.98 0.99)"><path d="M33,34.1l-1.29,3.3a.4.4,0,0,1-.42.24l-3.5-.52c-.18,0-.21,0-.07.15l2.74,2.25a.41.41,0,0,1,.1.48L29,43.17c-.08.15,0,.2.12.11l3.93-2.54c.15-.09.39-.24.55-.32l4.11-2.11c.15-.08.14-.16,0-.17l-3.53-.2a.43.43,0,0,1-.37-.33l-.58-3.5c0-.08,0-.13-.07-.13s-.07,0-.1.12" fill="none"/></clipPath><linearGradient id="linear-gradient-20" y1="46.92" y2="46.92" gradientTransform="matrix(0, -46.5, -46.5, 0, 2214.54, 44.03)" xlink:href="#linear-gradient"/><clipPath id="clip-path-21" transform="translate(0.98 0.99)"><path d="M33.46,41.17l-.06.95a.68.68,0,0,0,.23.51L35,43.76c.13.11.22.06.19-.11l-.25-1.75a.71.71,0,0,0-.33-.46L33.75,41a.27.27,0,0,0-.12,0,.18.18,0,0,0-.17.2" fill="none"/></clipPath><linearGradient id="linear-gradient-21" y1="46.93" y2="46.93" gradientTransform="matrix(0, -46.55, -46.55, 0, 2218.8, 43.75)" xlink:href="#linear-gradient"/><clipPath id="clip-path-22" transform="translate(0.98 0.99)"><path d="M26.42,37.45l-2.76,2.22a.44.44,0,0,1-.49,0l-2.78-2.21c-.13-.11-.19-.06-.13.1l1.25,3.31a.42.42,0,0,1-.15.47l-3,2c-.14.09-.12.16.05.16l4.68-.24h.63l4.62.22c.17,0,.2-.06.05-.16l-3-1.94a.43.43,0,0,1-.15-.47l1.24-3.32c0-.1,0-.16,0-.16a.22.22,0,0,0-.12.06" fill="none"/></clipPath><linearGradient id="linear-gradient-22" y1="46.91" y2="46.91" gradientTransform="matrix(0, -46.48, -46.48, 0, 2203.54, 48.94)" xlink:href="#linear-gradient"/><clipPath id="clip-path-23" transform="translate(0.98 0.99)"><path d="M23.27,43.79l-.53.8a.72.72,0,0,0-.06.56l.61,1.65c0,.08.07.13.12.13h0s.08,0,.11-.12l.65-1.65a.65.65,0,0,0-.05-.56l-.51-.81a.22.22,0,0,0-.17-.11.21.21,0,0,0-.17.11" fill="none"/></clipPath><linearGradient id="linear-gradient-23" y1="46.93" y2="46.93" gradientTransform="matrix(0, -46.65, -46.65, 0, 2212.47, 49.63)" xlink:href="#linear-gradient"/><clipPath id="clip-path-24" transform="translate(0.98 0.99)"><path d="M13.64,34.07l-.58,3.49a.4.4,0,0,1-.36.33l-3.54.22c-.17,0-.18.08,0,.16l4.17,2.14.54.31,3.89,2.5c.15.1.2.05.12-.11L16.27,40a.41.41,0,0,1,.1-.49l2.73-2.25c.13-.11.1-.18-.07-.15l-3.5.53a.42.42,0,0,1-.43-.24l-1.29-3.3c0-.08-.07-.11-.1-.11s-.06,0-.07.13" fill="none"/></clipPath><linearGradient id="linear-gradient-24" y1="46.94" y2="46.94" gradientTransform="matrix(0, -46.57, -46.57, 0, 2199.9, 53.4)" xlink:href="#linear-gradient"/><clipPath id="clip-path-25" transform="translate(0.98 0.99)"><path d="M13.13,41l-.86.43a.72.72,0,0,0-.33.45l-.29,1.74c0,.17,0,.22.19.12l1.39-1.1a.71.71,0,0,0,.23-.51l0-1a.18.18,0,0,0-.18-.2l-.11,0" fill="none"/></clipPath><linearGradient id="linear-gradient-25" y1="46.93" y2="46.93" gradientTransform="matrix(0, -46.7, -46.7, 0, 2203.99, 54.74)" xlink:href="#linear-gradient"/><clipPath id="clip-path-26" transform="translate(0.98 0.99)"><path d="M9.65,27.73,7.41,30.47a.42.42,0,0,1-.48.11L3.76,29c-.16-.08-.21,0-.12.12l2.55,3.93c.09.15.23.39.31.55l2.12,4.11c.08.15.15.14.16,0L9,34.14a.43.43,0,0,1,.33-.37l3.49-.58c.17,0,.18-.11,0-.17l-3.3-1.29a.42.42,0,0,1-.25-.42l.53-3.51c0-.1,0-.15,0-.15s-.07,0-.12.08" fill="none"/></clipPath><linearGradient id="linear-gradient-26" y1="46.94" y2="46.94" gradientTransform="matrix(0, -46.55, -46.55, 0, 2193.58, 55.55)" xlink:href="#linear-gradient"/><clipPath id="clip-path-27" transform="translate(0.98 0.99)"><path d="M4.29,33.62,3.16,35c-.1.13-.06.22.12.19L5,34.93a.71.71,0,0,0,.46-.33l.44-.85a.19.19,0,0,0-.17-.29l-1-.06h0a.76.76,0,0,0-.49.22" fill="none"/></clipPath><linearGradient id="linear-gradient-27" y1="46.93" y2="46.93" gradientTransform="matrix(0, -46.56, -46.56, 0, 2189.23, 57.63)" xlink:href="#linear-gradient"/><clipPath id="clip-path-28" transform="translate(0.98 0.99)"><path d="M3.47,18.45l.23,4.68c0,.17,0,.45,0,.63l-.23,4.62c0,.17.07.19.16.05l1.95-3a.42.42,0,0,1,.47-.15l3.32,1.24c.16.06.2,0,.09-.14L7.26,23.66a.4.4,0,0,1,0-.49l2.21-2.78c.1-.13.06-.19-.1-.13L6.05,21.51a.43.43,0,0,1-.47-.15l-1.95-3c0-.06-.08-.09-.11-.09s0,.05,0,.14" fill="none"/></clipPath><linearGradient id="linear-gradient-28" y1="46.92" y2="46.92" gradientTransform="matrix(0, -46.53, -46.53, 0, 2189.67, 55.14)" xlink:href="#linear-gradient"/><clipPath id="clip-path-29" transform="translate(0.98 0.99)"><path d="M1.78,22.68l-1.66.61c-.08,0-.12.07-.12.11H0s0,.08.12.11l1.65.65a.66.66,0,0,0,.55-.05l.81-.51a.18.18,0,0,0,0-.34l-.79-.53A.71.71,0,0,0,2,22.65a.64.64,0,0,0-.2,0" fill="none"/></clipPath><linearGradient id="linear-gradient-29" y1="46.93" y2="46.93" gradientTransform="matrix(0, -46.41, -46.41, 0, 2179.41, 57.51)" xlink:href="#linear-gradient"/><clipPath id="clip-path-30" transform="translate(0.98 0.99)"><path d="M8.65,9.13,6.52,13.29c-.08.16-.22.4-.31.55L3.7,17.73c-.09.15,0,.2.12.12L7,16.26a.41.41,0,0,1,.48.11L9.71,19.1c.11.13.18.1.16-.07l-.54-3.5a.44.44,0,0,1,.25-.43l3.29-1.29c.17-.07.16-.14,0-.17l-3.5-.58A.4.4,0,0,1,9,12.7L8.82,9.16c0-.09,0-.14-.07-.14s-.06,0-.1.11" fill="none"/></clipPath><linearGradient id="linear-gradient-30" y1="46.91" y2="46.91" gradientTransform="matrix(0, -46.62, -46.62, 0, 2195.4, 53.04)" xlink:href="#linear-gradient"/><clipPath id="clip-path-31" transform="translate(0.98 0.99)"><path d="M3.22,11.84l1.1,1.39a.68.68,0,0,0,.51.23l1,0A.19.19,0,0,0,6,13.13l-.43-.86a.72.72,0,0,0-.45-.33l-1.74-.29H3.27c-.12,0-.15.08,0,.2" fill="none"/></clipPath><linearGradient id="linear-gradient-31" y1="46.93" y2="46.93" gradientTransform="matrix(0, -46.47, -46.47, 0, 2185.23, 54.58)" xlink:href="#linear-gradient"/><clipPath id="clip-path-32" transform="translate(0.98 0.99)"><path d="M17.8,3.64,13.87,6.18a5.89,5.89,0,0,1-.54.32L9.22,8.62c-.16.08-.14.15,0,.16L12.79,9a.41.41,0,0,1,.36.33l.59,3.49c0,.17.1.18.16,0l1.29-3.3a.44.44,0,0,1,.43-.25l3.5.53c.17,0,.21-.05.07-.16L16.45,7.41a.43.43,0,0,1-.1-.49l1.58-3.17c.05-.1,0-.15,0-.15a.24.24,0,0,0-.12,0" fill="none"/></clipPath><linearGradient id="linear-gradient-32" y1="46.94" y2="46.94" gradientTransform="matrix(0, -46.51, -46.51, 0, 2197.06, 49.2)" xlink:href="#linear-gradient"/><clipPath id="clip-path-33" transform="translate(0.98 0.99)"><path d="M11.74,3.27,12,5a.67.67,0,0,0,.32.45l.85.45a.19.19,0,0,0,.3-.17l0-1a.71.71,0,0,0-.22-.52L11.94,3.16a.19.19,0,0,0-.12-.05c-.06,0-.09.05-.08.16" fill="none"/></clipPath><linearGradient id="linear-gradient-33" y1="46.93" y2="46.93" gradientTransform="matrix(0, -46.56, -46.56, 0, 2197.31, 49.52)" xlink:href="#linear-gradient"/><clipPath id="clip-path-34" transform="translate(0.98 0.99)"><rect width="140" height="46.93" fill="none"/></clipPath></defs><g id="Layer_2" data-name="Layer 2"><g id="Layer_1-2" data-name="Layer 1"><g clip-path="url(#clip-path)"><rect x="25.29" y="9.06" width="2.98" height="3.55" transform="translate(-0.85 15.84) rotate(-30)" fill="url(#linear-gradient)"/></g><g clip-path="url(#clip-path-2)"><rect x="6.78" y="6.82" width="33.38" height="33.38" transform="translate(-7.63 15.88) rotate(-30)" fill="url(#linear-gradient-2)"/></g><g clip-path="url(#clip-path-3)"><rect x="34.36" y="18.71" width="3.61" height="3" transform="translate(-4.28 21.78) rotate(-30)" fill="url(#linear-gradient-3)"/></g><g clip-path="url(#clip-path-4)"><rect x="31.09" y="31.14" width="3.3" height="3.31" transform="translate(-11.03 21.76) rotate(-30)" fill="url(#linear-gradient-4)"/></g><g clip-path="url(#clip-path-5)"><rect x="18.68" y="34.41" width="2.98" height="3.55" transform="matrix(0.87, -0.5, 0.5, 0.87, -14.41, 15.93)" fill="url(#linear-gradient-5)"/></g><g clip-path="url(#clip-path-6)"><rect x="8.99" y="25.3" width="3.6" height="2.99" transform="translate(-10.97 9.98) rotate(-30)" fill="url(#linear-gradient-6)"/></g><g clip-path="url(#clip-path-7)"><rect x="12.58" y="12.58" width="3.28" height="3.29" transform="translate(-4.23 10.01) rotate(-30)" fill="url(#linear-gradient-7)"/></g><g clip-path="url(#clip-path-8)"><rect x="17.51" y="1.3" width="11.98" height="10.45" transform="matrix(0.87, -0.5, 0.5, 0.87, 0.87, 13.62)" fill="url(#linear-gradient-8)"/></g><g clip-path="url(#clip-path-9)"><rect x="21.98" y="-0.19" width="3.04" height="3.65" transform="translate(3.31 12.96) rotate(-30)" fill="url(#linear-gradient-9)"/></g><g clip-path="url(#clip-path-10)"><rect x="17.51" y="19.68" width="11.98" height="10.45" transform="translate(-8.32 16.08) rotate(-30)" fill="url(#linear-gradient-10)"/></g><g clip-path="url(#clip-path-11)"><rect x="21.98" y="18.19" width="3.04" height="3.65" transform="translate(-5.88 15.42) rotate(-30)" fill="url(#linear-gradient-11)"/></g><g clip-path="url(#clip-path-12)"><rect x="26.03" y="1.72" width="13.57" height="13.25" transform="translate(1.2 18.52) rotate(-30)" fill="url(#linear-gradient-12)"/></g><g clip-path="url(#clip-path-13)"><rect x="32.86" y="2.89" width="3.03" height="3.41" transform="translate(3.29 18.8) rotate(-30)" fill="url(#linear-gradient-13)"/></g><g clip-path="url(#clip-path-14)"><rect x="32.02" y="7.43" width="13.28" height="13.56" transform="translate(-0.95 22.23) rotate(-30)" fill="url(#linear-gradient-14)"/></g><g clip-path="url(#clip-path-15)"><rect x="40.67" y="11.12" width="3.44" height="3.03" transform="translate(0.34 23.88) rotate(-30)" fill="url(#linear-gradient-15)"/></g><g clip-path="url(#clip-path-16)"><rect x="35.19" y="17.56" width="10.43" height="11.95" transform="translate(-5.37 24.35) rotate(-30)" fill="url(#linear-gradient-16)"/></g><g clip-path="url(#clip-path-17)"><rect x="43.47" y="21.99" width="3.67" height="3.04" transform="translate(-4.71 26.8) rotate(-30)" fill="url(#linear-gradient-17)"/></g><g clip-path="url(#clip-path-18)"><rect x="31.97" y="26.07" width="13.27" height="13.55" transform="translate(-10.27 24.7) rotate(-30)" fill="url(#linear-gradient-18)"/></g><g clip-path="url(#clip-path-19)"><rect x="40.63" y="32.85" width="3.46" height="3.06" transform="translate(-10.54 26.78) rotate(-30)" fill="url(#linear-gradient-19)"/></g><g clip-path="url(#clip-path-20)"><rect x="25.94" y="32.05" width="13.58" height="13.27" transform="translate(-13.97 22.54) rotate(-30)" fill="url(#linear-gradient-20)"/></g><g clip-path="url(#clip-path-21)"><rect x="32.79" y="40.71" width="3.03" height="3.42" transform="translate(-15.63 23.83) rotate(-30)" fill="url(#linear-gradient-21)"/></g><g clip-path="url(#clip-path-22)"><rect x="17.42" y="35.18" width="11.99" height="10.45" transform="translate(-16.09 18.12) rotate(-30)" fill="url(#linear-gradient-22)"/></g><g clip-path="url(#clip-path-23)"><rect x="21.92" y="43.5" width="3.02" height="3.62" transform="translate(-18.53 18.78) rotate(-30)" fill="url(#linear-gradient-23)"/></g><g clip-path="url(#clip-path-24)"><rect x="7.32" y="32" width="13.57" height="13.25" transform="translate(-16.44 13.22) rotate(-30)" fill="url(#linear-gradient-24)"/></g><g clip-path="url(#clip-path-25)"><rect x="11.02" y="40.67" width="3.04" height="3.42" transform="matrix(0.87, -0.5, 0.5, 0.87, -18.53, 12.94)" fill="url(#linear-gradient-25)"/></g><g clip-path="url(#clip-path-26)"><rect x="1.63" y="25.98" width="13.28" height="13.56" transform="translate(-14.29 9.52) rotate(-30)" fill="url(#linear-gradient-26)"/></g><g clip-path="url(#clip-path-27)"><rect x="2.8" y="32.78" width="3.46" height="3.04" transform="translate(-15.57 7.86) rotate(-30)" fill="url(#linear-gradient-27)"/></g><g clip-path="url(#clip-path-28)"><rect x="1.31" y="17.47" width="10.43" height="11.95" transform="translate(-9.87 7.4) rotate(-30)" fill="url(#linear-gradient-28)"/></g><g clip-path="url(#clip-path-29)"><rect x="-0.18" y="21.93" width="3.64" height="3.02" transform="translate(-10.52 4.95) rotate(-30)" fill="url(#linear-gradient-29)"/></g><g clip-path="url(#clip-path-30)"><rect x="1.69" y="7.35" width="13.27" height="13.56" transform="translate(-4.97 7.05) rotate(-30)" fill="url(#linear-gradient-30)"/></g><g clip-path="url(#clip-path-31)"><rect x="2.86" y="11.04" width="3.44" height="3.04" transform="translate(-4.68 4.97) rotate(-30)" fill="url(#linear-gradient-31)"/></g><g clip-path="url(#clip-path-32)"><rect x="7.4" y="1.66" width="13.58" height="13.26" transform="translate(-1.26 9.2) rotate(-30)" fill="url(#linear-gradient-32)"/></g><g clip-path="url(#clip-path-33)"><rect x="11.12" y="2.85" width="3.02" height="3.42" transform="translate(0.39 7.92) rotate(-30)" fill="url(#linear-gradient-33)"/></g><g clip-path="url(#clip-path-34)"><polygon points="53.25 40.78 63.41 40.78 63.41 27.19 77.95 27.19 77.95 21.65 63.41 21.65 63.41 13.65 78.75 13.65 78.75 8.13 53.25 8.13 53.25 40.78" fill="#e60024"/><path d="M99.49,7.14c-11.16,0-18.66,6.58-18.66,16.38,0,7.42,4.73,16.26,18.06,16.26a27.15,27.15,0,0,0,12.55-2.94V30.29c-4,2.29-6.85,3-10,3-6,0-10.6-4.4-10.6-9.89s4.06-10,10.5-10a26,26,0,0,1,10.08,2.5V9.18c-4-.93-7.88-2-12-2" transform="translate(0.98 0.99)" fill="#e60024"/><polygon points="116.5 40.78 140.98 40.78 140.98 35.26 126.55 35.26 126.55 27.18 139.65 27.18 139.65 21.67 126.55 21.67 126.55 13.65 140.96 13.65 140.96 8.13 116.5 8.13 116.5 40.78" fill="#e60024"/></g></g></g></svg>