<svg xmlns="http://www.w3.org/2000/svg" xmlns:xlink="http://www.w3.org/1999/xlink" width="130.53" height="25" viewBox="0 0 130.53 25"><defs><clipPath id="clip-path" transform="translate(0 0)"><rect width="130.52" height="25" fill="none"/></clipPath></defs><g id="Layer_2" data-name="Layer 2"><g id="Layer_1-2" data-name="Layer 1"><polygon points="40.51 2.28 40.51 6.76 46.61 6.76 46.61 25 51.14 19.84 51.14 19.76 51.14 6.76 57.27 6.76 57.27 2.28 40.51 2.28" fill="#294b7a"/><g clip-path="url(#clip-path)"><path d="M14.42,4.32a8.07,8.07,0,0,0-5.48-2.1H0V23.08H4.49V17H8.94a8.07,8.07,0,0,0,5.48-2.1,7.07,7.07,0,0,0,2.31-5.28v0a7.07,7.07,0,0,0-2.31-5.29m-2.18,5.3A2.48,2.48,0,0,1,11,12.11a4.53,4.53,0,0,1-2,.37H4.49V6.76H8.94a4.59,4.59,0,0,1,2,.36,2.5,2.5,0,0,1,1.31,2.5" transform="translate(0 0)" fill="#294b7a"/><path d="M128.4,11.76h0c-1.31-1.17-3-1.35-4.89-1.35h-2.78a4.43,4.43,0,0,1-1.62-.24,1.45,1.45,0,0,1-.92-1.48A1.66,1.66,0,0,1,119.1,7a3.74,3.74,0,0,1,1.55-.25h8.22V2.22h-8.14a7.05,7.05,0,0,0-4.87,1.61,6.72,6.72,0,0,0-2.14,4.86h0a6.73,6.73,0,0,0,2,4.9c1.31,1.17,2.94,1.33,5,1.33h2.85a3.85,3.85,0,0,1,1.48.23,1.41,1.41,0,0,1,.9,1.46,1.67,1.67,0,0,1-.95,1.7,3.6,3.6,0,0,1-1.51.26h-8.89v4.51h8.9a7.09,7.09,0,0,0,4.87-1.61,6.69,6.69,0,0,0,2.15-4.81v-.05a6.71,6.71,0,0,0-2.13-4.85" transform="translate(0 0)" fill="#294b7a"/><polygon points="59.99 5.42 59.99 23.08 64.74 23.08 64.74 0 59.99 5.34 59.99 5.42" fill="#294b7a"/><path d="M30.54,16.52a7.77,7.77,0,0,0,2.68-1.61,7.11,7.11,0,0,0,2.31-5.28v0a7.11,7.11,0,0,0-2.31-5.29,8.07,8.07,0,0,0-5.48-2.1H18.8V23.08h4.49V14.66l7.27,8.44h5.61l-.32-.37Zm.5-6.9a2.5,2.5,0,0,1-1.29,2.5,4.58,4.58,0,0,1-2,.36H23.29V6.76h4.45a4.59,4.59,0,0,1,2,.36A2.49,2.49,0,0,1,31,9.62" transform="translate(0 0)" fill="#294b7a"/><path d="M94.59,3.82A4.87,4.87,0,0,0,93,7.47v10.4a4.83,4.83,0,0,0,1.65,3.65,5.52,5.52,0,0,0,3.92,1.58h13.24V18.6H98.09a.6.6,0,0,1-.43-.18.72.72,0,0,1-.23-.55V14.94h12.29l0-4.5H97.43V7.51A.71.71,0,0,1,97.67,7a.61.61,0,0,1,.43-.18h13.66V2.24H98.53a5.65,5.65,0,0,0-3.94,1.58" transform="translate(0 0)" fill="#294b7a"/><path d="M84,2.27H73.57a4.9,4.9,0,0,0-3.65,1.65,5.58,5.58,0,0,0-1.57,3.94V23.08h4.5V7.41A.55.55,0,0,1,73,7a.73.73,0,0,1,.55-.24h2.94V23.06l4.5,0V6.75h2.93a.73.73,0,0,1,.55.24.59.59,0,0,1,.17.43V23.08H89.2V7.85a5.56,5.56,0,0,0-1.57-3.93A4.9,4.9,0,0,0,84,2.27" transform="translate(0 0)" fill="#294b7a"/></g></g></g></svg>