<svg xmlns="http://www.w3.org/2000/svg" xmlns:xlink="http://www.w3.org/1999/xlink" width="158.26" height="35" viewBox="0 0 158.26 35"><defs><clipPath id="clip-path" transform="translate(0 0)"><rect width="158.26" height="35" fill="none"/></clipPath></defs><g id="Layer_2" data-name="Layer 2"><g id="Layer_1-2" data-name="Layer 1"><polygon points="144.3 28.91 139.19 28.91 136.13 17.66 133.12 28.91 127.95 28.91 123.33 12.22 128.39 12.22 130.96 23.73 134.17 12.22 138.43 12.22 141.48 23.73 144.01 12.22 148.96 12.22 144.3 28.91" fill="#fff"/><g clip-path="url(#clip-path)"><path d="M122.43,19.68a8.59,8.59,0,0,0-1.85-5.92,7,7,0,0,0-5.51-2.06,8.19,8.19,0,0,0-6.25,2.42,9.14,9.14,0,0,0-2.28,6.54A8.37,8.37,0,0,0,109,27.1c1.6,1.5,3.91,2.26,6.92,2.26a14.37,14.37,0,0,0,3.2-.33A17.29,17.29,0,0,0,122.15,28v-4.3h-.54A8.8,8.8,0,0,1,119.35,25a7.35,7.35,0,0,1-2.95.61,5.57,5.57,0,0,1-3.65-1,4,4,0,0,1-1.34-3h11Zm-11-1.26a3.59,3.59,0,0,1,1-2.57,3.32,3.32,0,0,1,2.28-.8,2.73,2.73,0,0,1,2.21.84,4.07,4.07,0,0,1,.75,2.53Z" transform="translate(0 0)" fill="#fff"/><path d="M105.73,17.32h-.43a3.9,3.9,0,0,0-1-.18q-.68-.06-1.14-.06a9.91,9.91,0,0,0-1.82.15,9.36,9.36,0,0,0-1.69.51V28.91H94.84V12.22h4.82v2.46a9.93,9.93,0,0,1,2.77-2,5.6,5.6,0,0,1,2.16-.5l.58,0,.56,0Z" transform="translate(0 0)" fill="#fff"/><path d="M92.16,13.56h-.59c-.25-.24-.56-.52-.94-.84a12.75,12.75,0,0,0-1.29-1,7.89,7.89,0,0,0-1.59-.8,5,5,0,0,0-1.83-.33,5.63,5.63,0,0,0-2.06.38,4.89,4.89,0,0,0-1.81,1.25,6.39,6.39,0,0,0-1.28,2.25,10.47,10.47,0,0,0-.49,3.39,9.93,9.93,0,0,0,.53,3.47,6.05,6.05,0,0,0,1.33,2.2A4.73,4.73,0,0,0,84,24.73a6.08,6.08,0,0,0,2,.35,5.89,5.89,0,0,0,1.85-.31,7.31,7.31,0,0,0,1.7-.85A11.31,11.31,0,0,0,90.7,23c.38-.33.68-.61.93-.85h.53v5.29l-1.43.7a11.21,11.21,0,0,1-1.43.57,17.67,17.67,0,0,1-1.83.47,13.3,13.3,0,0,1-2.36.16,11.4,11.4,0,0,1-4.1-.72,8.73,8.73,0,0,1-3.23-2.17,9.88,9.88,0,0,1-2.09-3.6,15.17,15.17,0,0,1-.74-5,15.22,15.22,0,0,1,.7-4.77,10.38,10.38,0,0,1,2.07-3.67,8.56,8.56,0,0,1,3.21-2.27,10.7,10.7,0,0,1,4.2-.81,15.39,15.39,0,0,1,2.26.16,13.61,13.61,0,0,1,1.87.41,13,13,0,0,1,1.62.63c.49.23.91.45,1.28.65Z" transform="translate(0 0)" fill="#fff"/><path d="M54.94,19.68a8.59,8.59,0,0,0-1.85-5.92,7,7,0,0,0-5.51-2.06,8.18,8.18,0,0,0-6.25,2.42,9.14,9.14,0,0,0-2.28,6.54,8.37,8.37,0,0,0,2.41,6.44c1.6,1.5,3.91,2.26,6.93,2.26A14.34,14.34,0,0,0,51.58,29,17.29,17.29,0,0,0,54.66,28v-4.3h-.54A9,9,0,0,1,51.86,25a7.4,7.4,0,0,1-3,.61,5.54,5.54,0,0,1-3.64-1,4,4,0,0,1-1.34-3h11Zm-11-1.26a3.59,3.59,0,0,1,1-2.57,3.3,3.3,0,0,1,2.28-.8,2.73,2.73,0,0,1,2.21.84,4.07,4.07,0,0,1,.75,2.53Z" transform="translate(0 0)" fill="#fff"/><path d="M71.65,14.05a5,5,0,0,0-4.39-2.29,5.74,5.74,0,0,0-2.67.61A12,12,0,0,0,62.33,14V5.79H57.51V28.91h4.62l.2-.83a7.08,7.08,0,0,0,1.8.86,7.38,7.38,0,0,0,2.21.3,6,6,0,0,0,4.89-2.48,10.11,10.11,0,0,0,2-6.42,11.14,11.14,0,0,0-1.54-6.29M67.29,24.19a3.33,3.33,0,0,1-2.85,1.25,7.07,7.07,0,0,1-1.12-.08,4.51,4.51,0,0,1-1-.28V16.7A5.15,5.15,0,0,1,63.71,16a4.41,4.41,0,0,1,1.4-.23A2.54,2.54,0,0,1,67.54,17a7,7,0,0,1,.69,3.43,6.24,6.24,0,0,1-.94,3.75" transform="translate(0 0)" fill="#fff"/><path d="M114.68,15.05a3.3,3.3,0,0,0-2.28.8,3.57,3.57,0,0,0-1,2.57h6.24a4.07,4.07,0,0,0-.75-2.53,2.73,2.73,0,0,0-2.21-.84" transform="translate(0 0)" fill="#1c50a1"/><path d="M47.19,15.05a3.3,3.3,0,0,0-2.28.8,3.57,3.57,0,0,0-1,2.57h6.25a4.07,4.07,0,0,0-.75-2.53,2.73,2.73,0,0,0-2.21-.84" transform="translate(0 0)" fill="#1c50a1"/><path d="M65.11,15.81a4.41,4.41,0,0,0-1.4.23,5.15,5.15,0,0,0-1.38.66v8.38a4.51,4.51,0,0,0,1,.28,7.07,7.07,0,0,0,1.12.08,3.33,3.33,0,0,0,2.85-1.25,6.24,6.24,0,0,0,.94-3.75A7,7,0,0,0,67.54,17a2.54,2.54,0,0,0-2.43-1.2" transform="translate(0 0)" fill="#1c50a1"/><path d="M0,35H158.26V0H0Zm28.13-6.09L24.56,14.5,21.09,28.91H15.4L10,6.79H15.4L18.46,22,22.13,6.79h5.12L30.74,22,34,6.79h5.23L33.82,28.91Zm26.81-7.35h-11a4,4,0,0,0,1.34,3,5.54,5.54,0,0,0,3.64,1,7.4,7.4,0,0,0,3-.61,9,9,0,0,0,2.26-1.31h.54V28A17.29,17.29,0,0,1,51.58,29a14.34,14.34,0,0,1-3.19.33c-3,0-5.33-.76-6.93-2.26a8.37,8.37,0,0,1-2.41-6.44,9.14,9.14,0,0,1,2.28-6.54,8.18,8.18,0,0,1,6.25-2.42,7,7,0,0,1,5.51,2.06,8.59,8.59,0,0,1,1.85,5.92Zm16.29,5.2a6,6,0,0,1-4.89,2.48,7.38,7.38,0,0,1-2.21-.3,7.08,7.08,0,0,1-1.8-.86l-.2.83H57.51V5.79h4.82V14a12,12,0,0,1,2.26-1.59,5.74,5.74,0,0,1,2.67-.61,5,5,0,0,1,4.39,2.29,11.14,11.14,0,0,1,1.54,6.29,10.11,10.11,0,0,1-2,6.42m20.93-13.2h-.59c-.25-.24-.56-.52-.94-.85a14.43,14.43,0,0,0-1.29-1,7.89,7.89,0,0,0-1.59-.8,5.08,5.08,0,0,0-1.83-.33,5.63,5.63,0,0,0-2.06.38,4.89,4.89,0,0,0-1.81,1.25,6.39,6.39,0,0,0-1.28,2.25,10.47,10.47,0,0,0-.49,3.39,9.93,9.93,0,0,0,.53,3.47,6.14,6.14,0,0,0,1.33,2.2A4.73,4.73,0,0,0,84,24.73a6.08,6.08,0,0,0,2,.35,5.93,5.93,0,0,0,1.85-.31,7.31,7.31,0,0,0,1.7-.85A12.8,12.8,0,0,0,90.7,23c.38-.33.68-.61.93-.85h.53v5.29l-1.43.7a9.87,9.87,0,0,1-1.43.56,15.6,15.6,0,0,1-1.83.48,13.3,13.3,0,0,1-2.36.16,11.4,11.4,0,0,1-4.1-.72,8.73,8.73,0,0,1-3.23-2.17,9.88,9.88,0,0,1-2.09-3.6,15.17,15.17,0,0,1-.74-5,15.22,15.22,0,0,1,.7-4.77,10.38,10.38,0,0,1,2.07-3.67,8.56,8.56,0,0,1,3.21-2.27,10.7,10.7,0,0,1,4.2-.81,15.39,15.39,0,0,1,2.26.16,13.61,13.61,0,0,1,1.87.41,13,13,0,0,1,1.62.63c.49.23.91.45,1.28.65Zm13.57,3.76h-.43a3.81,3.81,0,0,0-1-.18q-.68-.06-1.14-.06a9.91,9.91,0,0,0-1.82.15,9.36,9.36,0,0,0-1.69.51V28.91H94.84V12.22h4.82v2.46a9.93,9.93,0,0,1,2.77-2,5.6,5.6,0,0,1,2.16-.5l.58,0,.56,0Zm16.7,4.24h-11a4,4,0,0,0,1.34,3,5.57,5.57,0,0,0,3.65,1,7.39,7.39,0,0,0,2.95-.61,8.8,8.8,0,0,0,2.26-1.31h.54V28A17.29,17.29,0,0,1,119.07,29a14.37,14.37,0,0,1-3.2.33c-3,0-5.32-.76-6.92-2.26a8.37,8.37,0,0,1-2.41-6.44,9.14,9.14,0,0,1,2.28-6.54,8.18,8.18,0,0,1,6.25-2.42,7,7,0,0,1,5.51,2.06,8.59,8.59,0,0,1,1.85,5.92Zm21.87,7.35h-5.11l-3.06-11.25-3,11.25H128l-4.62-16.69h5.06L131,23.73l3.21-11.51h4.26l3,11.51L144,12.22h5Z" transform="translate(0 0)" fill="#1c50a1"/><polygon points="28.13 28.91 24.56 14.5 21.09 28.91 15.4 28.91 10.04 6.79 15.4 6.79 18.46 22.02 22.13 6.79 27.25 6.79 30.74 22.02 33.95 6.79 39.18 6.79 33.82 28.91 28.13 28.91" fill="#fff"/></g></g></g></svg>