<svg xmlns="http://www.w3.org/2000/svg" xmlns:xlink="http://www.w3.org/1999/xlink" width="172.11" height="40" viewBox="0 0 172.11 40"><defs><clipPath id="clip-path" transform="translate(0 0)"><rect width="172.11" height="40" fill="none"/></clipPath></defs><g id="Layer_2" data-name="Layer 2"><g id="Layer_1-2" data-name="Layer 1"><g clip-path="url(#clip-path)"><path d="M21.52,21.06,12,23l-3.15,9.5L15.49,40l9.81-2,3.14-9.5L21.79,21Zm-.08,1,5.9,6.63-2.79,8.44-8.7,1.79L9.94,32.3l2.8-8.44,8.7-1.79" transform="translate(0 0)" fill="#a62126"/><path d="M12,23.77,18.47,31l9.52-2-.19-1-9,1.86-6.09-6.85Z" transform="translate(0 0)" fill="#a62126"/><rect x="12.43" y="34.5" width="9.45" height="0.97" transform="translate(-21.45 40.25) rotate(-71.64)" fill="#a62126"/><polygon points="16.08 25.48 6.83 27.39 0.55 20.33 3.52 11.37 12.77 9.46 19.05 16.51 16.08 25.48" fill="#fff"/><path d="M12.67,9,3.15,11,0,20.45l6.65,7.47,9.8-2,3.15-9.5L13,8.92Zm-.08,1,5.91,6.64c-.16.48-2.63,7.94-2.8,8.43L7,26.85,1.1,20.22c.16-.49,2.63-7.95,2.8-8.43L12.59,10" transform="translate(0 0)" fill="#a62126"/><path d="M3.16,11.69,9.62,19l9.53-2L19,16l-9,1.85L3.89,11Z" transform="translate(0 0)" fill="#a62126"/><rect x="3.59" y="22.42" width="9.44" height="0.98" transform="translate(-16.04 23.61) rotate(-71.7)" fill="#a62126"/><polygon points="34.44 30.07 25.18 31.98 18.91 24.93 21.88 15.96 31.13 14.05 37.41 21.11 34.44 30.07" fill="#fff"/><path d="M31,13.57l-9.53,2L18.35,25,25,32.52l9.8-2L38,21,31.3,13.52Zm-.08,1,5.9,6.64-2.79,8.43-8.7,1.8-5.9-6.64,2.79-8.43,8.7-1.8" transform="translate(0 0)" fill="#a62126"/><path d="M21.51,16.28,28,23.55l9.52-2-.19-.95-9,1.85-6.09-6.84Z" transform="translate(0 0)" fill="#a62126"/><rect x="21.95" y="27.01" width="9.45" height="0.97" transform="translate(-7.84 44.14) rotate(-71.62)" fill="#a62126"/><polygon points="27.82 16.55 18.58 18.46 12.3 11.41 15.27 2.44 24.52 0.53 30.8 7.59 27.82 16.55" fill="#fff"/><path d="M24.42.06,14.9,2l-3.15,9.5L18.4,19l9.8-2,3.15-9.5L24.7,0Zm-.08,1c.34.38,5.56,6.25,5.91,6.63l-2.8,8.43-8.7,1.8-5.9-6.64,2.79-8.43,8.7-1.79" transform="translate(0 0)" fill="#a62126"/><path d="M14.9,2.77,21.37,10l9.52-2-.19-1L21.72,9,15.63,2.12Z" transform="translate(0 0)" fill="#a62126"/><rect x="15.34" y="13.49" width="9.45" height="0.98" transform="translate(0.47 28.62) rotate(-71.64)" fill="#a62126"/><path d="M43.26,31.57H40.5L46.11,12h2.77l-.5,1.74c2.1-1.39,3.82-2.31,6.09-2.31,2.09,0,3.43.89,4,2.66,2.23-1.45,4.31-2.62,6.76-2.66,2.77,0,4.57,1.53,3.1,6.63L64.41,31.57H61.64l3.67-12.81c.59-2.05,1.81-5.07-1.13-5.07-2,0-4.43,1.35-6,2.59L53.84,31.57H51.07l3.67-12.81c.59-2.05,1.81-5.07-1.14-5.07-2.39.07-4.17,1.31-6,2.59Z" transform="translate(0 0)" fill="#4c4948"/><path d="M83.21,27.74a10.49,10.49,0,0,1-8.32,4.4c-4.36,0-7-3-4.87-10.36s6.45-10.36,10.81-10.36c5.64,0,5.54,6,3.78,10.82H72.8c-1.61,5.6.21,7.56,3,7.56a7.33,7.33,0,0,0,4.45-2.06Zm-.84-7.84c.8-2.52.48-6.14-2.42-6.14-3.13,0-5.58,3.37-6.41,6.14Z" transform="translate(0 0)" fill="#4c4948"/><path d="M104.66,4h2.77l-7.91,27.6H96.75l.64-2.23c-1.78,1.63-3.64,2.8-5.8,2.8-2.67,0-6.47-2.45-4.31-10,2.2-7.7,7-10.75,10.35-10.75A5.12,5.12,0,0,1,101.79,14Zm-3.73,13a3.66,3.66,0,0,0-3.67-3.16c-3.87,0-6.21,5.32-7.05,8.27-1.65,5.74.54,7.63,2.46,7.63s4.4-2,5.66-3.66Z" transform="translate(0 0)" fill="#4c4948"/><path d="M113.64,7h-2.76l.87-3h2.77Zm-7,24.55h-2.77L109.45,12h2.77Z" transform="translate(0 0)" fill="#4c4948"/><path d="M121.41,31.57l.43-2.48c-2,1.56-4.25,3.05-6.55,3.05-3,0-4.71-2.52-3.83-5.61,1.61-5.6,7.85-6.81,12.51-8l1-.25.32-1.1c.63-2.23-.54-3.44-2.74-3.44s-4.06,1.42-5.68,3.09l-1.53-1.46c2.3-2.34,4.9-4,7.88-4,2.66,0,6,1.63,4.74,6.1l-2.79,9.72a12.43,12.43,0,0,0-.71,4.33Zm1.68-10.68c-2.85.78-8,1.85-9,5.36-.47,1.63.34,3.26,2,3.26,2.19,0,4.65-1.52,6.48-3.19l1.65-5.75Z" transform="translate(0 0)" fill="#4c4948"/><path d="M162.74,26.61c-1.13,2.18-4.06,5.38-7.38,5.38-2.14,0-4.77-1.29-3.39-6.12L156,12h5.18l-3.38,11.79c-.45,1.58-1.27,4.06,1,4.06a6.35,6.35,0,0,0,4.13-1.58L166.94,12h5.17L166.5,31.57h-5.18Z" transform="translate(0 0)" fill="#4c4948"/><path d="M152.38,4.36H146L131.4,21.29l-1.13,3.95h10.66l-1.81,6.33h5.46l1.81-6.33H150l1.24-4.3h-3.62ZM142.17,20.94h-5.09l7.66-9Z" transform="translate(0 0)" fill="#4c4948"/></g></g></g></svg>