<svg xmlns="http://www.w3.org/2000/svg" xmlns:xlink="http://www.w3.org/1999/xlink" width="304.99" height="37.59" viewBox="0 0 304.99 37.59"><defs><clipPath id="clip-path" transform="translate(0 0)"><rect width="304.99" height="37.59" fill="none"/></clipPath></defs><g id="Layer_2" data-name="Layer 2"><g id="Layer_1-2" data-name="Layer 1"><g clip-path="url(#clip-path)"><path d="M35.79,31.6v4.67H0V31.6H15.2V23.88H3.8v-4.6H15.2V12.36H1.68V7.72h16a59.12,59.12,0,0,0-6-4.88L15.6.12a45.43,45.43,0,0,1,7.68,6L21.16,7.72H33.83v4.64H20.44v6.92H31.91v4.6H20.44V31.6Z" transform="translate(0 0)" fill="#005cdc"/><path d="M65.56,10.72a58,58,0,0,1-6.88,1.36A73.12,73.12,0,0,1,50.2,29L45.36,26.6a60.44,60.44,0,0,0,8.08-14c-.68,0-1.36,0-2,0-1.64,0-3.24,0-5-.12l-.36-4.64a50.35,50.35,0,0,0,5.28.28c1.16,0,2.36,0,3.56-.12A33.73,33.73,0,0,0,56,1.4L61.48,2c-.32,1.28-.8,3.28-1.36,5.4a41.84,41.84,0,0,0,5.32-1.24Zm5.2,3.56c-.12,1.68,0,3.32,0,5.08,0,1.12.12,3,.24,5a26.45,26.45,0,0,1,8.19,5.08l-2.64,4.23a35.26,35.26,0,0,0-5.35-4.19v.36c0,3.67-2,6.55-7.64,6.55-4.92,0-8.8-2.2-8.8-6.55C54.76,26,58,23,63.52,23c.92,0,1.84.08,2.68.16-.12-3-.32-6.44-.44-8.84ZM66.4,27.4a14,14,0,0,0-3.2-.4c-2.28,0-3.76,1-3.76,2.36s1.24,2.48,3.4,2.48c2.68,0,3.56-1.56,3.56-3.68Zm11.15-11A52.73,52.73,0,0,0,68,10.76L70.6,6.84a71.13,71.13,0,0,1,9.75,5.36Z" transform="translate(0 0)" fill="#005cdc"/><path d="M116.2,26.2h8.55v3.6H116.2V33c0,2.11-.44,3.23-2,3.87s-3.72.64-6.68.64A15.71,15.71,0,0,0,106,33.4c2,.11,4.16.11,4.76.07s.84-.15.84-.59V29.8H99.72a26.09,26.09,0,0,1,4.16,3.52l-3.44,2.91a30.11,30.11,0,0,0-5.32-4.67l2.12-1.76H88.4V26.2h23.2V24.52c-2.68,0-5.16,0-7-.08-4-.16-6.76-1-8.68-3.56C94,22.2,92,23.44,89.8,24.8L88.2,21c1.48-.72,3.24-1.6,4.92-2.56V13.64h-4.6V10h8.92V17.8c1.32,2.2,3.72,3.08,7.12,3.2,4.84.2,15.27.08,20.79-.32a20.38,20.38,0,0,0-1.16,3.64c-2.12.08-5,.16-8,.2ZM94.88,8.36a28,28,0,0,0-5.4-5.16L92.56.6a26.19,26.19,0,0,1,5.56,4.92Zm13.8-.48c.08-.4.2-.8.28-1.24H98.64V3.44h6a17.75,17.75,0,0,0-1.36-2.6l3.88-.72A17,17,0,0,1,109,3.44h5.48A29.85,29.85,0,0,0,116.16.08l4.44.68c-.6,1-1.21,1.92-1.77,2.68h5.88v3.2H113.32l-.52,1.24h8.67v12H101.8v-12Zm8.2,2.12H106.2v1.2h10.68Zm0,3.2H106.2v1.24h10.68Zm0,3.24H106.2v1.28h10.68Z" transform="translate(0 0)" fill="#005cdc"/><path d="M154.44,2.4c0,7.56,1.08,22.16,15.79,30.83a25.61,25.61,0,0,0-3.84,4.16c-8.27-5-12.51-12.55-14.71-19.71-3,9-7.8,15.59-14.76,19.75a38,38,0,0,0-4.36-3.88c8.32-4.19,13.08-11.91,15.28-22.43l2.44.44c-.28-1.52-.44-3-.56-4.32H140.6V2.4Z" transform="translate(0 0)" fill="#005cdc"/><path d="M198.2,0a42.5,42.5,0,0,0,17.27,14.52,25.94,25.94,0,0,0-3.2,4.28C206.08,15.36,199.4,9.6,196,4.68c-3.24,4.88-9.4,10.44-16,14.16A20,20,0,0,0,177,15c6.92-3.56,13.36-9.92,16.36-15Zm.68,32.11h14.31v4.32h-34V32.11h4.36V18.24h4.68V32.11h5.68V11.36h5v8.56h10.71v4.2H198.88Z" transform="translate(0 0)" fill="#005cdc"/><path d="M247.2,28.4a35.48,35.48,0,0,0,12.67,4.35,22.38,22.38,0,0,0-3.2,4.32,34.29,34.29,0,0,1-13.43-6.75v7.19h-4.68V30.56A38.09,38.09,0,0,1,225.16,37a22.19,22.19,0,0,0-3-4,42,42,0,0,0,12.64-4.67H223.28V24.48h15.28V22.72H227V19.28h11.52v-1.8H225V13.76h7.6a18,18,0,0,0-1.36-3.12l.48-.08H223.4V6.68h5.36a35.85,35.85,0,0,0-2.48-5l4.08-1.4a30.27,30.27,0,0,1,3,5.64l-2,.72h3.64V.16h4.44V6.68h3V.16H247V6.68h3.56l-1.44-.44a32.18,32.18,0,0,0,2.51-5.8l5,1.2c-1.12,1.84-2.2,3.64-3.12,5h5.2v3.88h-7.52c-.63,1.16-1.27,2.24-1.87,3.2h7.83v3.72H243.24v1.8h12v3.44h-12v1.76h15.55V28.4ZM236.32,10.56a19.7,19.7,0,0,1,1.36,3.08l-.68.12h7.48c.48-1,1-2.12,1.4-3.2Z" transform="translate(0 0)" fill="#005cdc"/><path d="M279,24.92c-.48-1.16-1.32-3-2.2-4.68V37.47h-4.32V22.52a33.65,33.65,0,0,1-3.64,7.87,23,23,0,0,0-2.08-4.19c2.24-3.12,4.36-8.68,5.36-13.4h-4.44V8.4h4.8V.16h4.32V8.4h4v4.4h-4v1.76c1.08,1.48,4,5.88,4.64,7Zm10.92,5.39c-2.8,1.64-5.92,3.4-8.48,4.8l-2-4c2.36-1.08,5.88-2.87,9.28-4.63ZM304,22.4c-1.68,1.72-3.72,3.64-5.28,4.92A16.49,16.49,0,0,0,305,31.83a17.7,17.7,0,0,0-3,3.84,18.92,18.92,0,0,1-7.07-7v4.15c0,2.16-.4,3.28-1.68,4s-3.2.8-5.68.8a14.8,14.8,0,0,0-1.28-4.24c1.36.08,2.92.08,3.4.08s.64-.2.64-.68V19.12h-9.4V15.24h9.4V13.48h-7.56V9.92h7.56V8.32h-8.64V4.6h4.08a22.71,22.71,0,0,0-1.56-3.12L288,.2a21.1,21.1,0,0,1,2.28,4.4h4.95c.6-1.36,1.4-3.2,1.8-4.48l4.72,1.08c-.72,1.2-1.44,2.4-2.08,3.4h3.88V8.32h-8.59v1.6h7.75v3.56h-7.75v1.76h9.31v3.88h-9.31v1.56a20.86,20.86,0,0,0,1.63,3.52,31.49,31.49,0,0,0,3.88-4.32ZM284.92,20a27.4,27.4,0,0,1,4,4.84l-3.4,2.4a28,28,0,0,0-3.8-5.12Z" transform="translate(0 0)" fill="#005cdc"/></g></g></g></svg>