<svg xmlns="http://www.w3.org/2000/svg" xmlns:xlink="http://www.w3.org/1999/xlink" width="242.29" height="36" viewBox="0 0 242.29 36"><defs><clipPath id="clip-path" transform="translate(-9.01 -3.6)"><rect width="260.3" height="45" fill="none"/></clipPath><clipPath id="clip-path-2" transform="translate(-9.01 -3.6)"><path d="M9,24.66A14.94,14.94,0,1,0,23.94,9.73,14.93,14.93,0,0,0,9,24.66" fill="none"/></clipPath><linearGradient id="linear-gradient" y1="45" x2="1" y2="45" gradientTransform="matrix(0, -29.87, -29.87, 0, 1359.23, 36)" gradientUnits="userSpaceOnUse"><stop offset="0" stop-color="#750005"/><stop offset="1" stop-color="#e00031"/></linearGradient><clipPath id="clip-path-4" transform="translate(-9.01 -3.6)"><rect x="15.46" y="9.73" width="22.5" height="25.4" fill="none"/></clipPath><clipPath id="clip-path-5" transform="translate(-9.01 -3.6)"><path d="M16.9,18.54A13.17,13.17,0,1,1,30.07,31.71,13.16,13.16,0,0,1,16.9,18.54m-1.77,0A14.94,14.94,0,1,0,30.07,3.6,14.94,14.94,0,0,0,15.13,18.54" fill="none"/></clipPath><linearGradient id="linear-gradient-2" y1="45" x2="1" y2="45" gradientTransform="matrix(0, -29.87, -29.87, 0, 1365.35, 29.87)" gradientUnits="userSpaceOnUse"><stop offset="0" stop-color="#dcdddd"/><stop offset="0.09" stop-color="#bfc0c0"/><stop offset="0.4" stop-color="#4c4948"/><stop offset="0.5" stop-color="#efefef"/><stop offset="1" stop-color="#d3d3d4"/></linearGradient><clipPath id="clip-path-6" transform="translate(-9.01 -3.6)"><path d="M17.8,18.54A12.27,12.27,0,1,1,30.07,30.81,12.27,12.27,0,0,1,17.8,18.54m-1.31,0A13.58,13.58,0,1,0,30.07,5,13.58,13.58,0,0,0,16.49,18.54" fill="none"/></clipPath><linearGradient id="linear-gradient-3" y1="45" x2="1" y2="45" gradientTransform="matrix(0, -27.15, -27.15, 0, 1242.72, 28.51)" gradientUnits="userSpaceOnUse"><stop offset="0" stop-color="#666464"/><stop offset="0.27" stop-color="#b5b5b6"/><stop offset="0.5" stop-color="#efefef"/><stop offset="0.86" stop-color="#b5b5b6"/><stop offset="1" stop-color="#4c4948"/></linearGradient></defs><g style="isolation:isolate"><g id="Layer_2" data-name="Layer 2"><g id="Layer_1-2" data-name="Layer 1"><g clip-path="url(#clip-path)"><g clip-path="url(#clip-path-2)"><rect y="6.12" width="29.87" height="29.87" fill="url(#linear-gradient)"/></g><g clip-path="url(#clip-path)"><g style="mix-blend-mode:multiply"><g clip-path="url(#clip-path-4)"><path d="M35.38,34.27A15,15,0,0,0,38,29.85,12.27,12.27,0,1,1,24,9.73h0a15,15,0,0,0-5,.85A14.94,14.94,0,0,0,35.38,34.27" transform="translate(-9.01 -3.6)" fill="#b3b3b3"/></g></g></g><g clip-path="url(#clip-path-5)"><rect x="6.13" width="29.87" height="29.87" fill="url(#linear-gradient-2)"/></g><g clip-path="url(#clip-path-6)"><rect x="7.48" y="1.36" width="27.15" height="27.15" fill="url(#linear-gradient-3)"/></g><g clip-path="url(#clip-path)"><path d="M196.1,19.53h-5.47V17.66h-1.89v1.87h-5.13v1.35h9.74c-1.76,2.95-5.66,4.81-10.13,6.43v1.51a33.7,33.7,0,0,0,5.52-2.33v4.84h1.89V25.72c1.34.78,4,2.51,6,3.87V27.65c-1-.7-3.54-2.38-4.65-3,1.65-1.27,3.48-2.86,4.16-5.07" transform="translate(-9.01 -3.6)" fill="#231815"/><path d="M153,23.37v1.54a6.85,6.85,0,0,0,4.35-5.42h6.11c0,5-2.38,9.57-8.18,10.47V31.3c6.89-.87,10.53-5.1,10.53-13.13H155.49c-.27,2.43-.9,4-2.48,5.2" transform="translate(-9.01 -3.6)" fill="#231815"/><path d="M243.44,17.66h-1.93V31.31h1.93V24a59.16,59.16,0,0,1,7.86,2V24.36a52,52,0,0,0-7.86-2.19Z" transform="translate(-9.01 -3.6)" fill="#231815"/><path d="M167.75,20.29H179.3a11.11,11.11,0,0,1-5.13,6.13c-.77-1-1.74-2.16-2.33-2.8H169.6a71.15,71.15,0,0,1,5.7,7.68h2.33c-.63-1-1.64-2.42-2.51-3.62,2.86-1.54,6.15-4.61,6.72-8.77H167.75Z" transform="translate(-9.01 -3.6)" fill="#231815"/><path d="M220.94,24.52a19.24,19.24,0,0,0,3-6.68h-2.25a19.9,19.9,0,0,1-2.31,5.49,25.48,25.48,0,0,0-5.5-3.1v1.36a24.25,24.25,0,0,1,4.56,3.13,18.41,18.41,0,0,1-6.67,5.3v1.35a18.39,18.39,0,0,0,8.12-5.44,21.32,21.32,0,0,1,2.93,3.34h2.26a21.23,21.23,0,0,0-4.16-4.75" transform="translate(-9.01 -3.6)" fill="#231815"/><path d="M227.29,31.31V29.58c5.38-.45,9.77-2.4,10.59-8.54h1.41c-.8,7.22-5.24,9.94-12,10.27" transform="translate(-9.01 -3.6)" fill="#231815"/><path d="M227.29,18.38c1.77.07,4.31.35,6.15.62v1.63a54.77,54.77,0,0,0-6.15-.88Z" transform="translate(-9.01 -3.6)" fill="#231815"/><path d="M199,31.31V29.58c5.37-.45,9.76-2.4,10.58-8.54H211c-.8,7.22-5.24,9.94-12,10.27" transform="translate(-9.01 -3.6)" fill="#231815"/><rect x="199.01" y="14.34" width="1.14" height="2.38" fill="#231815"/><rect x="200.88" y="14.34" width="1.12" height="2.38" fill="#231815"/><path d="M199,18.38c1.77.07,4.31.35,6.15.62v1.63a55.1,55.1,0,0,0-6.15-.88Z" transform="translate(-9.01 -3.6)" fill="#231815"/><path d="M199,22.35c1.77.07,4.31.35,6.15.62V24.6a55.1,55.1,0,0,0-6.15-.88Z" transform="translate(-9.01 -3.6)" fill="#231815"/><path d="M150.68,18.21H139.81v1.36h8.37a17.5,17.5,0,0,1-9.29,10.28v1.43a22.06,22.06,0,0,0,7.44-4.86c1.33,1.56,2.53,3.06,3.84,4.86h2.24a56.17,56.17,0,0,0-5-6,14.33,14.33,0,0,0,3.31-7.08" transform="translate(-9.01 -3.6)" fill="#231815"/><rect x="117.36" y="14.49" width="1.92" height="7.78" fill="#231815"/><path d="M135.53,22.58c0,4.39-2.42,6.85-7.41,7.34V31.3c6.74-.47,9.33-3.93,9.33-8.53V18.09h-1.92Z" transform="translate(-9.01 -3.6)" fill="#231815"/><polygon points="83.83 14.25 79.49 25.34 75.15 14.25 72.06 14.25 72.06 27.45 74.01 27.45 74.01 15.91 78.53 27.45 80.44 27.45 84.96 15.91 84.96 27.45 86.91 27.45 86.91 14.25 83.83 14.25" fill="#231815"/><path d="M54.14,29a10,10,0,0,0,4.09.93c1.64,0,3.31-.65,3.31-2.23,0-1.32-1.33-2.05-3-2.67l-1.2-.46c-1.6-.64-3.16-1.58-3.16-3.36,0-2.52,2.83-3.56,5.39-3.56a12.89,12.89,0,0,1,3.71.51l-.15,1.44A10.69,10.69,0,0,0,59.62,19c-1.63,0-3.14.65-3.14,2,0,1.09,1.09,1.68,2.59,2.26l1.16.45c2,.73,3.64,1.74,3.64,3.71,0,2.55-2.46,3.84-5.51,3.84A15.71,15.71,0,0,1,54,30.55Z" transform="translate(-9.01 -3.6)" fill="#231815"/><path d="M98.8,31.05V17.86h4.11c2.89,0,5.53.85,5.53,3.79s-2.61,4.14-5.68,4.14H101v5.26ZM101,24.43h2.1c1.94,0,3.12-1,3.12-2.76s-1.31-2.47-3.12-2.47H101Z" transform="translate(-9.01 -3.6)" fill="#231815"/><path d="M109.84,24.47c0-3.7,2.26-6.82,6.7-6.82s6.7,3,6.7,6.82-2.3,6.81-6.7,6.81-6.7-3.12-6.7-6.81m6.7,5.38c3.16,0,4.41-2.93,4.41-5.38s-1.23-5.39-4.41-5.39-4.41,3-4.41,5.39,1.25,5.38,4.41,5.38" transform="translate(-9.01 -3.6)" fill="#231815"/><path d="M65.4,24.47c0-3.7,2.26-6.82,6.7-6.82s6.7,3,6.7,6.82-2.3,6.81-6.7,6.81-6.7-3.12-6.7-6.81m6.7,5.38c3.16,0,4.41-2.93,4.41-5.38s-1.23-5.39-4.41-5.39-4.41,3-4.41,5.39,1.25,5.38,4.41,5.38" transform="translate(-9.01 -3.6)" fill="#231815"/></g></g></g></g></g></svg>