<svg xmlns="http://www.w3.org/2000/svg" xmlns:xlink="http://www.w3.org/1999/xlink" width="65.71" height="50" viewBox="0 0 65.71 50"><defs><clipPath id="clip-path" transform="translate(0 0)"><rect width="65.71" height="50" fill="none"/></clipPath></defs><g id="Layer_2" data-name="Layer 2"><g id="Layer_1-2" data-name="Layer 1"><g clip-path="url(#clip-path)"><path d="M15.82,3.34c-5.24,6-10.41,20.52-10.41,25.42,0,.48.23.49.49.13a30.68,30.68,0,0,1,4.93-4.59c2.66-1.83,4.89-1.31,5.38.76,1.68,7.08,3.15,6.37,8.59,3.21,2.58-1.5,3.56.61,1,2.39-12,8.24-13.77-2.49-13.85-2.77-1.17.64-5.15,5.07-6.54,8.36C4.72,37.86.24,38.58,0,34.36-.41,26,7.46,5.92,13.39.34c1.3-1.22,4.05,1.12,2.43,3" transform="translate(0 0)" fill="#231815"/><path d="M61.82,21.07c-17.72,17.45-15,7.94-12.94,4.2l.22-.38c.79-1.3-1.58-4.18-3.46-2.55s-3.91,3.95-5.32,5c-1.06.78-1.17,3,1.9,2.07.18-.05,1.08-.49,1.34-.63-2.11,5.1,4.17,9.51,13.11,2.51-3.81,7.69-3,13.54-2.46,16.1.92,4.52,6.4,2.42,4.86-.4a5.69,5.69,0,0,1-.77-1.79c-.81-3.87-.63-12.8,7.06-20.78,1.35-1.41-1.53-5.31-3.54-3.33" transform="translate(0 0)" fill="#231815"/><path d="M25.52,27.9a16.19,16.19,0,0,0,7.14-6.19c.25-.47.07-.57-.39-.26a12.35,12.35,0,0,0-4.94,7.4,2.68,2.68,0,0,0,.22,1.95c.29.44,4.46,3.62,17.13-7.65,3.6-3.19,3.25,1.15,2.08,2.4-14.65,15.57-21.53,8.8-22.45,7.35a5.52,5.52,0,0,1-.91-2.43,7.31,7.31,0,0,1,.09-2.35,15.78,15.78,0,0,1,3.7-7A18.7,18.7,0,0,1,30,18.37a6.84,6.84,0,0,1,2.16-1.1,4.07,4.07,0,0,1,1.57-.16,3.3,3.3,0,0,1,1.86.77,3.37,3.37,0,0,1,1,1.68,4.29,4.29,0,0,1,.12,1.56A6.63,6.63,0,0,1,36,23.47a11.4,11.4,0,0,1-2.67,3.19,29.53,29.53,0,0,1-6.58,3.73c-1.85.86-2.64-1.83-1.26-2.49" transform="translate(0 0)" fill="#231815"/></g></g></g></svg>