<svg xmlns="http://www.w3.org/2000/svg" xmlns:xlink="http://www.w3.org/1999/xlink" width="14.57" height="18.33" viewBox="0 0 14.57 18.33"><defs><clipPath id="clip-path" transform="translate(0 0)"><rect width="14.57" height="18.33" fill="none"/></clipPath></defs><g id="Layer_2" data-name="Layer 2"><g id="Layer_1-2" data-name="Layer 1"><g clip-path="url(#clip-path)"><path d="M7,12.53a.39.39,0,0,0,.63,0l4.15-5.47a.4.4,0,0,0-.32-.64H9.66A.39.39,0,0,1,9.26,6V.4A.39.39,0,0,0,8.87,0H5.71a.4.4,0,0,0-.4.4V6a.39.39,0,0,1-.4.39H3.15a.4.4,0,0,0-.32.64Z" transform="translate(0 0)" fill="#fff"/><polygon points="0.05 16.07 0.01 16.07 0 16.07 0 18.33 14.57 18.33 14.57 16.07 0.05 16.07" fill="#fff"/></g></g></g></svg>