<svg xmlns="http://www.w3.org/2000/svg" xmlns:xlink="http://www.w3.org/1999/xlink" width="170.23" height="37.55" viewBox="0 0 170.23 37.55"><defs><clipPath id="clip-path"><rect width="170.23" height="37.55" fill="none"/></clipPath></defs><g id="Layer_2" data-name="Layer 2"><g id="Layer_1-2" data-name="Layer 1"><g clip-path="url(#clip-path)"><path d="M28,26.12h8.55v3.6H28v3.2c0,2.11-.44,3.23-2,3.87s-3.72.64-6.68.64a15.71,15.71,0,0,0-1.48-4.11c2,.12,4.16.12,4.76.08s.84-.16.84-.6V29.72H11.52a26.09,26.09,0,0,1,4.16,3.52l-3.44,2.91a30.11,30.11,0,0,0-5.32-4.67L9,29.72H.2v-3.6H23.4V24.44c-2.68,0-5.16,0-7-.08-4-.16-6.76-1-8.68-3.56C5.8,22.12,3.84,23.36,1.6,24.72L0,21c1.48-.72,3.24-1.6,4.92-2.56V13.56H.32V10H9.24v7.76c1.32,2.2,3.72,3.08,7.12,3.2,4.84.2,15.28.08,20.79-.32A20.38,20.38,0,0,0,36,24.24c-2.11.08-5,.16-8,.2ZM6.68,8.28a28,28,0,0,0-5.4-5.16L4.36.52A26.19,26.19,0,0,1,9.92,5.44Zm13.8-.48c.08-.4.2-.8.28-1.24H10.44V3.36h6A17.75,17.75,0,0,0,15,.76L18.92,0a17,17,0,0,1,1.84,3.32h5.48A29.85,29.85,0,0,0,28,0L32.4.68c-.6,1-1.21,1.92-1.76,2.68h5.87v3.2H25.12L24.6,7.8h8.67v12H13.6V7.8Zm8.19,2.12H18v1.2H28.67Zm0,3.2H18v1.24H28.67Zm0,3.24H18v1.28H28.67Z" fill="#005cdc"/><path d="M66.24,2.32c0,7.56,1.08,22.16,15.79,30.83a25.61,25.61,0,0,0-3.84,4.16c-8.27-5-12.51-12.55-14.71-19.71-3,9-7.8,15.59-14.76,19.75a38,38,0,0,0-4.36-3.88C52.68,29.28,57.44,21.56,59.64,11l2.44.44c-.28-1.52-.44-3-.56-4.32H52.4V2.32Z" fill="#005cdc"/><path d="M126.43,26.32h-4.15v7h-4.84V31.64h-7.2v1.24c0,2.35-.56,3.31-2.12,4s-3.68.68-7.08.68a14.66,14.66,0,0,0-1.56-3.76c1.92.08,4.28.08,4.92.08s1-.27,1-1V31.64H93.24V28.2H105.4V26.32H89.56V22.68H105.4V21H93.56v-3.2H105.4V16H94.56V8.08H105.4V6.44H90.48V2.68H105.4V.08h4.84v2.6h15.27V6.44H110.24V8.08H121.6V16H110.24v1.76h12v4.92h4.15Zm-21-15.24H99.12V13h6.28ZM110.24,13h6.48V11.08h-6.48Zm0,9.68h7.2V21h-7.2Zm7.2,3.64h-7.2V28.2h7.2Z" fill="#005cdc"/><path d="M159.12,28V6H152.4c-.28,1.4-.56,2.88-.88,4.32h3.56l.76-.16,2.76.84c-1.44,12.92-5.64,22-11.76,26.43a16.59,16.59,0,0,0-3-3.64,20.66,20.66,0,0,0,7-8.83,27.78,27.78,0,0,0-3.48-3.28A18.52,18.52,0,0,1,145.08,25a24.34,24.34,0,0,0-2.64-3.2V37.39h-4.36v-20a31.91,31.91,0,0,1-2.48,3.28,33.09,33.09,0,0,0-2.28-5.12c3.24-3.72,6.16-9.56,7.92-15.4l4.4,1.32-.12.4H159.4V4.68h3.91V28Zm-16.68-6.4c3-3.84,4.64-10.08,5.44-15.56h-2.64V2.6c-.8,2.32-1.76,4.64-2.8,6.92Zm8-7.12c-.4,1.2-.8,2.36-1.24,3.48a32.08,32.08,0,0,1,3.32,2.64,49.5,49.5,0,0,0,1.36-6.12ZM170.23.84V32c0,2.51-.44,3.75-1.92,4.51s-3.68.92-6.83.92A17.77,17.77,0,0,0,160,32.8c2.15.12,4.19.12,4.91.08s.88-.21.88-.88V.84Z" fill="#005cdc"/></g></g></g></svg>