<svg xmlns="http://www.w3.org/2000/svg" xmlns:xlink="http://www.w3.org/1999/xlink" width="457.01" height="108.88" viewBox="0 0 457.01 108.88"><defs><clipPath id="clip-path" transform="translate(0 0)"><rect width="457.01" height="108.88" fill="none"/></clipPath></defs><g id="Layer_2" data-name="Layer 2"><g id="Layer_1-2" data-name="Layer 1"><g clip-path="url(#clip-path)"><path d="M16.23,1.87a87.31,87.31,0,0,1-4.47,9.65V44.74H6.1V20.31a40.92,40.92,0,0,1-3,3.6A39.41,39.41,0,0,0,0,18.15a50.55,50.55,0,0,0,11-18ZM37,39c2.83,0,3.31-1.15,3.75-6.58a19.37,19.37,0,0,0,5.18,2.21c-.77,7.11-2.45,9.51-8.5,9.51H26.83c-6.81,0-8.78-1.88-8.78-8.45V22.56L14.45,24l-2.21-5,5.81-2.25V5.33h5.66V14.4l4.66-1.77V.19H33.7V10.51l4.85-1.82.72-.58,1-.72,3.89,1.49L44,9.75C44,18.1,43.88,23.86,43.59,26c-.24,2.4-1.11,3.65-2.69,4.32a13.61,13.61,0,0,1-5.42.67,15.38,15.38,0,0,0-1.25-5.23c1.05.05,2.4.1,2.93.1s1-.2,1.2-1.11a95.86,95.86,0,0,0,.33-10.32l-5,2V33.46H28.37v-15l-4.66,1.83V35.67c0,2.88.48,3.31,3.56,3.31Z" transform="translate(0 0)"/><path d="M67,4a37.82,37.82,0,0,0-1.15,4.23c-.67,3.16-2.31,12.67-2.31,17.42a23.77,23.77,0,0,0,.19,3.08c.68-1.69,1.45-3.27,2.12-4.81l3,2.31a112.73,112.73,0,0,0-3.4,11.66,13.45,13.45,0,0,0-.29,2.21c0,.53,0,1.3.09,2l-5.47.38a60.68,60.68,0,0,1-1.87-15.55c0-7.15,1.44-15.17,2-18.82a35.84,35.84,0,0,0,.48-4.65ZM78.15,27.51a15.31,15.31,0,0,0-.58,4c0,2.11,1.82,3.36,6.62,3.36A54.43,54.43,0,0,0,96.1,33.6L96.24,40A66.57,66.57,0,0,1,84,41c-8.2,0-12.09-3-12.09-7.83A29.25,29.25,0,0,1,72.67,27ZM94.76,7.15V13.3a131.19,131.19,0,0,1-20.41,0l0-6.15a96.35,96.35,0,0,0,20.45,0" transform="translate(0 0)"/><path d="M142.8,19.59c3.17,4,4.61,7.39,4.61,11.42,0,7.15-6.43,12.34-16.85,12.34-7.49,0-12.77-3.27-12.77-11.19,0-1.15.15-2.83.34-4.8A52.61,52.61,0,0,1,109,25.78l.34-5.76a40.78,40.78,0,0,0,9.36,1.87c.28-2.11.52-4.32.81-6.48a59.52,59.52,0,0,1-9.45-1.68l.33-5.52A44.34,44.34,0,0,0,120.15,10c.19-1.44.28-2.74.38-3.8a30.14,30.14,0,0,0,.1-4.22l6.67.38c-.39,1.73-.63,3-.82,4.23-.14.81-.28,2.06-.53,3.6a69.25,69.25,0,0,0,8.74-.58l-.19,5.67a87.28,87.28,0,0,1-9.27.43c-.28,2.11-.57,4.37-.81,6.48h.33a93.29,93.29,0,0,0,9.56-.58l-.15,5.67c-2.68.24-5.47.43-8.4.43h-1.92c-.09,1.39-.19,2.59-.19,3.46,0,3.88,2.4,6,7.11,6,6.62,0,10.27-3,10.27-7C141,27,139.2,24,136.13,21Z" transform="translate(0 0)"/><path d="M168.15,26a19.88,19.88,0,0,0-.82,4.8c0,3,2.88,5.23,9.75,5.23a67.47,67.47,0,0,0,16.7-1.87l.05,6.67a72.48,72.48,0,0,1-16.51,1.63c-10.9,0-16.37-3.64-16.37-10.17a30.27,30.27,0,0,1,1-6.87Zm-4-20.16a126.09,126.09,0,0,0,13,.57c4.7,0,10.12-.29,13.77-.67v6.39c-3.31.24-9.21.57-13.73.57-5,0-9.12-.24-13-.53Z" transform="translate(0 0)"/><path d="M228.29,6.77c-2.35,3.41-5.95,10-8.3,14.21a10.78,10.78,0,0,1,5.42-1.44c3.55,0,5.71,2.3,5.91,6.24.09,2.11,0,5.95.24,7.92a2.68,2.68,0,0,0,3,2.59c4.08,0,6.67-5.33,8-11.23l5.13,4.18c-2.44,8.2-6.86,13.58-14.21,13.58-5.18,0-7.68-3.17-7.87-6.62-.19-2.55-.14-6.44-.29-8.36a2.55,2.55,0,0,0-2.78-2.64c-3.26,0-5.9,3.27-7.59,7.16a92.24,92.24,0,0,0-3.59,10.56l-6.73-2.26c3.51-9.5,13.54-29.47,16-34,.62-1.29,1.49-2.83,2.35-4.85l6.77,2.74c-.48.58-1,1.44-1.54,2.21" transform="translate(0 0)"/><path d="M281.67,12.67a70.32,70.32,0,0,1-8.26,1.64,87.47,87.47,0,0,1-10.18,20.35l-5.8-2.93a72.43,72.43,0,0,0,9.69-16.8c-.81.05-1.63.05-2.45.05-2,0-3.88-.05-5.95-.15l-.43-5.57a57.87,57.87,0,0,0,6.34.34c1.39,0,2.83,0,4.27-.14a40.93,40.93,0,0,0,1.3-8l6.57.67c-.38,1.54-1,3.94-1.63,6.48a48.87,48.87,0,0,0,6.38-1.49ZM287.91,17c-.15,2-.05,4,0,6.09,0,1.35.14,3.65.29,6a31.75,31.75,0,0,1,9.84,6.1l-3.17,5.09a41.89,41.89,0,0,0-6.43-5v.43c0,4.42-2.4,7.87-9.17,7.87-5.91,0-10.56-2.64-10.56-7.87,0-4.66,3.89-8.26,10.51-8.26,1.1,0,2.21.1,3.22.19-.15-3.55-.39-7.72-.53-10.6Zm-5.23,15.74a16.75,16.75,0,0,0-3.84-.48c-2.74,0-4.52,1.15-4.52,2.83s1.49,3,4.08,3c3.22,0,4.28-1.87,4.28-4.42Zm13.39-13.2a63.25,63.25,0,0,0-11.43-6.77L287.72,8a85.38,85.38,0,0,1,11.71,6.43Z" transform="translate(0 0)"/><path d="M338.36,33.89a42.75,42.75,0,0,0,15.21,5.23,27.33,27.33,0,0,0-3.84,5.19A41.11,41.11,0,0,1,333.6,36.2v8.64H328V36.48a45.54,45.54,0,0,1-16.08,7.78,26.81,26.81,0,0,0-3.65-4.75,50.58,50.58,0,0,0,15.17-5.62H309.65v-4.7H328V27.07H314.16V23H328V20.79H311.76V16.32h9.12a21.39,21.39,0,0,0-1.63-3.74l.58-.1h-10V7.83h6.44a43.59,43.59,0,0,0-3-6l4.9-1.68A36.52,36.52,0,0,1,321.79,7l-2.35.87h4.37V0h5.33V7.83h3.55V0h5.38V7.83h4.27l-1.73-.53a39.55,39.55,0,0,0,3-7l6,1.44C348.29,4,347,6.14,345.89,7.83h6.24v4.65h-9c-.77,1.39-1.54,2.69-2.26,3.84h9.41v4.47H333.6V23H348v4.12H333.6v2.12h18.68v4.7ZM325.3,12.48a23.2,23.2,0,0,1,1.63,3.7l-.82.14h9c.58-1.15,1.15-2.54,1.68-3.84Z" transform="translate(0 0)"/><path d="M403.54,9.55a23.56,23.56,0,0,1-4.8,7,37.15,37.15,0,0,0,8.83,2.83,22.44,22.44,0,0,0-3.6,4.85,34.37,34.37,0,0,1-9.79-4.13,38.35,38.35,0,0,1-9.79,4,18.05,18.05,0,0,0-1.35-2,54.94,54.94,0,0,1-2.35,8l-3.84-1.78a64.66,64.66,0,0,0,1.54-6.62h-2.55V38.64c0,2.6-.38,4.13-2.06,5s-3.79,1-6.77,1a18.93,18.93,0,0,0-1.63-5.42c1.77.05,3.69.05,4.32.05s.77-.15.77-.72V28.27a29.21,29.21,0,0,1-6,8.89,31.54,31.54,0,0,0-2.6-5.53,30.13,30.13,0,0,0,6.82-9.88h-6v-5h11a70.28,70.28,0,0,0-9.26-4.65L368,8.45c1.15.43,2.49,1,3.79,1.54a29.79,29.79,0,0,0,3-3H363.31V2.16h15.51l.86-.19,3.65,2.3a35.61,35.61,0,0,1-7,7.92,26.08,26.08,0,0,1,3.51,2.12l-2.35,2.44h2.3l.77-.24L384,17.67l-.19,1.1a29.58,29.58,0,0,0,5.86-2.21,27.12,27.12,0,0,1-3.41-4,27.36,27.36,0,0,1-2.16,2.06,41.6,41.6,0,0,0-4.66-3.22A28.46,28.46,0,0,0,388.61,0l5.33,1.44a30.93,30.93,0,0,1-1.78,3.36h14.17V9.55Zm2.26,17.19s-.1,1.49-.19,2.16c-.77,8.3-1.64,12-3,13.54a5.31,5.31,0,0,1-3.5,1.68,36.88,36.88,0,0,1-5.38.09,12.35,12.35,0,0,0-1.54-5.28c1.73.19,3.37.24,4.13.24a2,2,0,0,0,1.54-.53c.67-.62,1.29-2.69,1.82-7.15h-5.57c-1.63,5.71-5,10.37-12.62,13.35a16,16,0,0,0-3.31-4.42c5.76-2.11,8.54-5.18,10-8.93h-5.81V26.74h7a41.28,41.28,0,0,0,.48-4.27h5.71c-.14,1.44-.29,2.88-.48,4.27ZM390.05,9.55a18.76,18.76,0,0,0,4,4.08,14.47,14.47,0,0,0,3.16-4.08Z" transform="translate(0 0)"/><path d="M438.1,33.75c.1-1.39.14-3.6.19-5.67-3.5,1.92-5.42,3.8-5.42,6.15,0,2.64,2.25,3.36,6.91,3.36a73.12,73.12,0,0,0,13.49-1.39l-.19,6.19a132.73,132.73,0,0,1-13.44.77c-7.44,0-13.06-1.78-13.06-7.92s5.76-9.89,11.18-12.68a3.7,3.7,0,0,0-3.31-1.63A11.81,11.81,0,0,0,427,24.19a61.38,61.38,0,0,0-4.41,5.24l-5.09-3.79c5-4.61,8.35-8.84,10.46-13.06h-.57c-1.93,0-5.43-.1-8-.34V6.67a60,60,0,0,0,8.35.53H430a27,27,0,0,0,1-5.42l6.24.53c-.24,1.15-.58,2.78-1.16,4.7a109.5,109.5,0,0,0,13.45-1.39l0,5.57A155,155,0,0,1,434,12.43a29.66,29.66,0,0,1-2.73,4.8,14.91,14.91,0,0,1,5.37-1c2.88,0,5.28,1.25,6.34,3.7,2.45-1.15,4.46-2,6.43-2.83s3.51-1.63,5.23-2.45l2.4,5.52a48.38,48.38,0,0,0-5.66,2c-2.11.81-4.8,1.87-7.73,3.21.05,2.64.14,6.15.19,8.31Z" transform="translate(0 0)"/><path d="M125.23,66.16A73.88,73.88,0,0,1,120.77,75v33.75h-6V83.54a44.87,44.87,0,0,1-5,5.37,36.62,36.62,0,0,0-3.16-5.8,50.26,50.26,0,0,0,13.1-18.73Zm13.16,17.38c1.34,10.65,3.89,17.76,7.73,18.24,1.1.1,1.68-2.3,2.06-7.63a19.4,19.4,0,0,0,4.66,3.26c-1.2,9.27-3.8,11.47-6.48,11.33-8.12-.77-11.91-9.79-13.64-24.43l-9.45,1.29-.82-5.52,9.7-1.29c-.34-4.32-.63-9-.77-14.07h5.81c.09,4.71.28,9.22.62,13.3l13.68-1.78.82,5.38ZM147,75A41,41,0,0,0,140.4,67l4.28-2.64a43.15,43.15,0,0,1,6.91,7.73Z" transform="translate(0 0)"/><path d="M179.38,76.48a63.59,63.59,0,0,1-5.14,7.35v25h-5.71V90.11c-1.34,1.3-2.64,2.5-3.94,3.56a55.69,55.69,0,0,0-3.88-5,47,47,0,0,0,13.2-14.35ZM177.6,66.26a64.37,64.37,0,0,1-13.2,12.62,32.63,32.63,0,0,0-3.17-4.65A42.67,42.67,0,0,0,172.08,64Zm28.23,19.1h-6.58v16.85c0,3.07-.57,4.66-2.69,5.52s-5.08,1-9.36,1a24.09,24.09,0,0,0-1.72-5.81c2.73.15,5.9.15,6.76.1s1.2-.19,1.2-.91V85.36H179.28V79.94h26.55Zm-1.2-13.2H181.3V66.74h23.33Z" transform="translate(0 0)"/><path d="M228.58,66.74a48.28,48.28,0,0,0-.63,6.33c-.23,5.09-.57,15.75-.57,21.65,0,4.8,2.88,6.34,6.53,6.34,7.87,0,12.86-4.51,16.27-9.7l4.32,5.33a24.74,24.74,0,0,1-20.64,10.85c-7.78,0-12.82-3.41-12.82-11.52,0-6.39.48-18.87.48-23a30,30,0,0,0-.62-6.43Z" transform="translate(0 0)"/><path d="M297.65,104.9a36,36,0,0,0-9.6-6.58c.05.63.05,1.2.05,1.68,0,4.08-3.07,7.2-9.36,7.2-7.59,0-11.62-2.88-11.62-7.92,0-4.8,4.42-8.16,11.76-8.16a28,28,0,0,1,2.93.15c-.1-1.44-.14-2.93-.19-4.32h-2.45c-2.78,0-8.26-.24-11.42-.63l0-5.61a87.67,87.67,0,0,0,11.48.86h2.25V76.63h-2.25A79.36,79.36,0,0,1,269,75.91l-.05-5.43a62.41,62.41,0,0,0,10.32.91h2.35V69.23a19.2,19.2,0,0,0-.24-3.26h6.48a30.84,30.84,0,0,0-.33,3.36l-.05,1.87a99.79,99.79,0,0,0,11.33-1.15l.14,5.47c-3.12.29-7,.67-11.52.91l-.05,4.95c4.8-.19,8.79-.63,12.67-1.11v5.62c-4.27.48-8,.82-12.57,1,.09,1.78.19,3.7.33,5.52a36.92,36.92,0,0,1,13.3,7.2ZM282,96.36a24.37,24.37,0,0,0-3.89-.34c-3.36,0-5.18,1.3-5.18,2.93s1.68,2.93,4.94,2.93c2.55,0,4.18-.77,4.18-3.51,0-.53,0-1.2-.05-2" transform="translate(0 0)"/><path d="M352.66,77.25c-2.88-.14-7.34-.24-13.78-.24.05,2.4.05,5,.05,7.06a11.7,11.7,0,0,1,1.78,6.57c0,6.2-3.65,14.07-15.27,17.33l-5-5.09c4.8-1,9-2.59,11.62-5.42a10.5,10.5,0,0,1-2.16.24A8.38,8.38,0,0,1,321.65,89c0-5.37,4.32-8.88,9.51-8.88a11,11,0,0,1,1.87.15l0-3.17c-7.2.09-14.55.38-20.4.72L312.43,72c5.43,0,14.07-.24,20.45-.34,0-.57,0-1.1,0-1.44a31.41,31.41,0,0,0-.44-4.13h6.92c-.15.77-.29,3.32-.34,4.08,0,.39-.05.87-.05,1.44,4.8,0,11.28,0,13.78,0ZM331,92.42c2,0,3.75-1.49,3.12-5.62A3.39,3.39,0,0,0,331,85.12a3.65,3.65,0,1,0,0,7.3" transform="translate(0 0)"/></g></g></g></svg>