<svg xmlns="http://www.w3.org/2000/svg" xmlns:xlink="http://www.w3.org/1999/xlink" width="66" height="57.59" viewBox="0 0 66 57.59"><defs><clipPath id="clip-path" transform="translate(0 0)"><rect width="66" height="57.59" fill="none"/></clipPath></defs><g id="Layer_2" data-name="Layer 2"><g id="Layer_1-2" data-name="Layer 1"><g clip-path="url(#clip-path)"><path d="M19.7,21.42,2.16,39a7.34,7.34,0,0,0,0,10.39l6.08,6.09a7.35,7.35,0,0,0,10.4,0L36.08,38l.07-.07,0,0ZM4.12,44.2a.91.91,0,0,1,0-1.29l16.1-16.1a.91.91,0,0,1,1.28,1.28L5.4,44.2a.91.91,0,0,1-1.28,0" transform="translate(0 0)" fill="#fff"/><path d="M64.82,1.62,46.39,0a1.12,1.12,0,0,0-.69.33L33.45,12.57l-.07.08h0L44.93,24.23,65.68,3.48a1.1,1.1,0,0,0-.86-1.86M53.77,4l5.73.51a.19.19,0,0,1,.12.33L44.3,20.15a.2.2,0,0,1-.29-.26c3.06-4,8.45-11.35,9.56-15.76a.2.2,0,0,1,.2-.14" transform="translate(0 0)" fill="#fff"/><rect x="29.47" y="11.97" width="9.01" height="23.29" transform="translate(-6.75 30.94) rotate(-45)" fill="#fff"/></g></g></g></svg>