<svg xmlns="http://www.w3.org/2000/svg" xmlns:xlink="http://www.w3.org/1999/xlink" width="76" height="54.2" viewBox="0 0 76 54.2"><defs><clipPath id="clip-path"><rect width="76" height="54.2" fill="none"/></clipPath></defs><g id="Layer_2" data-name="Layer 2"><g id="Layer_1-2" data-name="Layer 1"><g clip-path="url(#clip-path)"><path d="M55.1,0H20.9a1.46,1.46,0,0,0-1.46,1.46v52.7h0v0H33.62v-10h8.76v10H56.56V1.46A1.46,1.46,0,0,0,55.1,0M49.35,6.57v4.27H44V6.57h5.34Zm0,13.22H44V15.44h5.35Zm0,9H44V24.39h5.35Zm0,9H44V33.34h5.35ZM40.44,6.57v4.27H35.1V6.57h5.34ZM35.1,15.44h5.34v4.35H35.1Zm0,9h5.34v4.35H35.1Zm0,9h5.34V37.7H35.1ZM31.54,6.57v4.27H26.19V6.57h5.35Zm0,13.22H26.19V15.44h5.35Zm0,9H26.19V24.39h5.35Zm0,9H26.19V33.34h5.35Z" fill="#fff"/><path d="M0,9.58V54.2H15.12v-14H4.47v-3.7H15.12V32.56H4.47V28.85H15.12V24.94H4.47V21.25H15.12V17.34H4.47V13.71H15.12V8.12H1.46A1.46,1.46,0,0,0,0,9.58" fill="#fff"/><path d="M74.54,8.12H60.88v5.59H71.53v3.63H60.88v3.87h0v0H71.53v3.69H60.88v3.88h0v0H71.53v3.71H60.88v3.87h0v0H71.53v3.7H60.88v14H76V9.58a1.46,1.46,0,0,0-1.46-1.46" fill="#fff"/></g></g></g></svg>