<svg xmlns="http://www.w3.org/2000/svg" xmlns:xlink="http://www.w3.org/1999/xlink" width="78" height="51.01" viewBox="0 0 78 51.01"><defs><clipPath id="clip-path" transform="translate(0 0)"><rect width="78" height="51.02" fill="none"/></clipPath></defs><g id="Layer_2" data-name="Layer 2"><g id="Layer_1-2" data-name="Layer 1"><g clip-path="url(#clip-path)"><path d="M63.68,33a3.88,3.88,0,0,0-1.31.23,7.77,7.77,0,0,0-.76.28l0,0-.07.07a3.89,3.89,0,0,0-2-.56,4,4,0,0,0,0,7.95,3.89,3.89,0,0,0,2.09-.61,3.89,3.89,0,0,0,2.09.61,4,4,0,0,0,0-7.95m0,7.15a3.15,3.15,0,0,1-2.09-.8,3.18,3.18,0,1,1,0-4.76h0a3.15,3.15,0,0,1,2.08-.8,3.18,3.18,0,0,1,0,6.36" transform="translate(0 0)" fill="#fff"/><polygon points="59.67 35.77 59.67 35.76 59.67 35.74 59.1 35.74 58.37 37.08 58.31 37.2 58.27 37.27 58.26 37.08 58.02 35.74 57.46 35.74 57.11 37.58 57.04 37.91 57.05 37.91 57.04 37.94 57.56 37.94 57.74 36.98 57.76 36.84 57.77 36.77 57.95 37.94 58.35 37.94 58.68 37.32 58.97 36.81 58.92 36.98 58.77 37.77 58.74 37.91 58.74 37.91 58.74 37.94 59.26 37.94 59.6 36.1 59.67 35.77" fill="#fff"/><path d="M60.47,36.18a1.19,1.19,0,0,0-.7.28l.1.22v0h0v0a.77.77,0,0,1,.45-.16l0,.05.09.17-.61.22a.65.65,0,0,0-.38.38l0,.07c-.07.35.09.52.43.52a.58.58,0,0,0,.39-.19l.1-.07a.22.22,0,0,0,.24.26l.28-.07,0-.24,0,0,0-.1.17-.91c.07-.36-.19-.51-.52-.51m0,1v.09c0,.18-.16.37-.36.37L60,37.46l.07-.17.42-.16Z" transform="translate(0 0)" fill="#fff"/><path d="M61.84,36.57a.6.6,0,0,1,.34.14l.31-.24a.65.65,0,0,0-.57-.29.74.74,0,0,0-.77.51c-.09.39.3.49.58.64l.11.13c0,.09-.09.13-.21.13a1,1,0,0,1-.39-.18l-.24.34a.94.94,0,0,0,.54.24,1.13,1.13,0,0,0,.39-.07.68.68,0,0,0,.4-.44c.12-.43-.27-.54-.57-.69l-.1-.11h0Z" transform="translate(0 0)" fill="#fff"/><path d="M63.25,37.56h0v0l-.18,0,0-.12.15-.81h.28l.06-.32,0-.06h0v0h-.29l.05-.24v0h0v0h-.49l0,.31h-.17l-.07.36.15,0-.17.89c0,.23,0,.47.33.47l.22,0,.22-.08,0-.31Z" transform="translate(0 0)" fill="#fff"/><path d="M64.62,37.45h0v0a1.07,1.07,0,0,1-.51.15c-.2,0-.22-.22-.19-.38v-.07h1l0-.28a.55.55,0,0,0-.55-.67,1,1,0,0,0-1,.87c-.09.46,0,1,.57,1a1.37,1.37,0,0,0,.7-.26l-.07-.22Zm-.12-.64H64c0-.12.16-.29.3-.29s.2.16.18.3" transform="translate(0 0)" fill="#fff"/><polygon points="66.13 36.25 66.14 36.23 65.97 36.18 65.8 36.29 65.7 36.34 65.71 36.27 65.72 36.25 65.71 36.25 65.72 36.23 65.21 36.23 64.94 37.65 64.89 37.91 64.89 37.91 64.89 37.94 65.39 37.94 65.62 36.72 65.77 36.67 65.98 36.72 66.13 36.26 66.13 36.25" fill="#fff"/><path d="M58.73,18.5h5.72A1.58,1.58,0,0,0,66,16.91v-5a1.58,1.58,0,0,0-1.58-1.58H58.73a1.58,1.58,0,0,0-1.58,1.58v5a1.58,1.58,0,0,0,1.58,1.59m0-.61a1,1,0,0,1-1-1v-.54H60v.11a1.58,1.58,0,0,0,.59,1.22,1.29,1.29,0,0,0,.21.19Zm1.23-2H57.77v-1.3H60Zm2.82-3h2.63v1.3H62.78v2.28a1.19,1.19,0,0,1-2.37,0V12.35a1.19,1.19,0,0,1,2.37,0Zm2.63,3H63.22v-1.3h2.19Zm0-3.48H63.22v-.1a1.63,1.63,0,0,0-.8-1.4h2a1,1,0,0,1,1,1Zm-7.64.45H60v1.3H57.77Zm4.65,5a1.63,1.63,0,0,0,.8-1.39v-.11h2.19v.54a1,1,0,0,1-1,1H63.34ZM60.74,11A1.61,1.61,0,0,0,60,12.35v.1H57.77v-.54a1,1,0,0,1,1-1h1.1Z" transform="translate(0 0)" fill="#fff"/><path d="M4.63,51H73.37A4.64,4.64,0,0,0,78,46.39V4.63A4.64,4.64,0,0,0,73.37,0H4.63A4.64,4.64,0,0,0,0,4.63V46.39A4.64,4.64,0,0,0,4.63,51M75.71,4.63V20h0a68.69,68.69,0,0,1-8.78,4.51v.6h0v0a67,67,0,0,0,7.59-3.78l1.2-.68V46.39a2.33,2.33,0,0,1-2.34,2.33H4.63a2.33,2.33,0,0,1-2.34-2.33V20.7a72.67,72.67,0,0,0,8.51,4.37L11,24.6l0,0h0v0A69.76,69.76,0,0,1,2.3,20V4.63A2.33,2.33,0,0,1,4.63,2.3H73.37a2.32,2.32,0,0,1,2.34,2.33" transform="translate(0 0)" fill="#fff"/><path d="M26.67,27.82a1.84,1.84,0,0,0,.4.06,1.76,1.76,0,0,0,.4-.06,1.27,1.27,0,0,0,.33-.2A1.07,1.07,0,0,0,28,27.3a1.1,1.1,0,0,0,.08-.43V25.45A1.19,1.19,0,0,0,28,25a.91.91,0,0,0-.22-.31,1.27,1.27,0,0,0-.33-.2,1.34,1.34,0,0,0-.4-.06,1.39,1.39,0,0,0-.4.06,1.07,1.07,0,0,0-.32.2.81.81,0,0,0-.23.31,1.19,1.19,0,0,0-.08.44v1.42a1.1,1.1,0,0,0,.08.43.94.94,0,0,0,.23.32,1.07,1.07,0,0,0,.32.2m0-.83a.5.5,0,0,1,0-.12V25.46a.5.5,0,0,1,.12-.35.36.36,0,0,1,.29-.11.39.39,0,0,1,.3.11.54.54,0,0,1,.11.35v1.41a.49.49,0,0,1-.11.33.4.4,0,0,1-.3.13.38.38,0,0,1-.29-.13s0-.06-.06-.09a.56.56,0,0,1,0-.12" transform="translate(0 0)" fill="#fff"/><polygon points="29.9 27.85 30.52 27.85 30.52 24.46 29.9 24.46 29.21 25.07 29.21 25.46 29.19 25.71 29.21 25.7 29.21 25.73 29.63 25.36 29.9 25.15 29.9 27.85" fill="#fff"/><path d="M33.21,25.82l-1.27,1.47v.54h0v0H34v-.56H32.71l.93-1.08L33.8,26l.11-.17.07-.2,0-.22a.94.94,0,0,0-.08-.41.67.67,0,0,0-.2-.31,1,1,0,0,0-.34-.19,1.07,1.07,0,0,0-.41-.07,1.09,1.09,0,0,0-.4.07.78.78,0,0,0-.33.19A.79.79,0,0,0,32,25a1.14,1.14,0,0,0-.06.33.11.11,0,0,0,0,.06h0v0h.62l0-.2.11-.13.12-.08H33a.38.38,0,0,1,.31.11.4.4,0,0,1,.1.3l0,.22Z" transform="translate(0 0)" fill="#fff"/><path d="M35.88,27.33l-.17,0-.15-.08-.1-.15,0-.19h-.62a1.08,1.08,0,0,0,.09.46.92.92,0,0,0,.24.31.91.91,0,0,0,.34.17,1.11,1.11,0,0,0,.4.06,1.16,1.16,0,0,0,.42-.06,1.38,1.38,0,0,0,.34-.18,1.44,1.44,0,0,0,.23-.32,1.06,1.06,0,0,0,.09-.45c0-.07,0-.1,0-.16a.66.66,0,0,0-.06-.2s0-.1,0-.14a.93.93,0,0,0-.23-.21.46.46,0,0,1-.07-.07.71.71,0,0,0,.28-.24.84.84,0,0,0,.11-.44,1.29,1.29,0,0,0-.07-.4,1,1,0,0,0-.22-.3,1,1,0,0,0-.32-.21,1.54,1.54,0,0,0-.43-.06,1.39,1.39,0,0,0-.4.06,1.13,1.13,0,0,0-.32.19.87.87,0,0,0-.22.31,1,1,0,0,0-.07.31.25.25,0,0,1,0,.07h0v0h.62a.38.38,0,0,1,.13-.3.4.4,0,0,1,.28-.1.44.44,0,0,1,.3.1.41.41,0,0,1,.13.32.45.45,0,0,1-.11.31.4.4,0,0,1-.33.12h-.09v.54h.09a.51.51,0,0,1,.36.12.48.48,0,0,1,.12.35.42.42,0,0,1-.13.34.47.47,0,0,1-.33.13" transform="translate(0 0)" fill="#fff"/><polygon points="42 27.85 42.59 27.85 42.59 27.37 42.9 27.37 42.9 26.79 42.59 26.79 42.59 26.16 42 26.16 42 26.79 41.5 26.79 41.29 26.78 42.08 25.18 42.45 24.48 42.43 24.48 42.45 24.46 41.78 24.46 40.61 26.79 40.61 27.37 42 27.37 42 27.85" fill="#fff"/><path d="M43.74,27.27a.67.67,0,0,0,.22.34.86.86,0,0,0,.3.19,1.2,1.2,0,0,0,.2,0h0a.92.92,0,0,0,.25.05,1.15,1.15,0,0,0,.44-.08.93.93,0,0,0,.3-.2.77.77,0,0,0,.24-.39,1.9,1.9,0,0,0,.06-.5,1.84,1.84,0,0,0-.06-.47.86.86,0,0,0-.25-.44.82.82,0,0,0-.26-.16.85.85,0,0,0-.37-.06.78.78,0,0,0-.31.05l-.14.09,0,0V25h1.36v-.56H43.75v1.91h.57l.12-.18a.42.42,0,0,1,.29-.09.36.36,0,0,1,.32.16.89.89,0,0,1,.09.45,2.83,2.83,0,0,1,0,.3l-.12.2a.41.41,0,0,1-.58,0,.59.59,0,0,1-.13-.31h-.61a1.51,1.51,0,0,0,.06.37" transform="translate(0 0)" fill="#fff"/><path d="M46.89,27.61a1.08,1.08,0,0,0,.33.2,1.3,1.3,0,0,0,.41.07,1.42,1.42,0,0,0,.42-.07,1,1,0,0,0,.34-.21.87.87,0,0,0,.22-.33,1.27,1.27,0,0,0,0-.86.92.92,0,0,0-.2-.32l-.28-.2a1,1,0,0,0-.34-.07l-.12,0h-.13l.48-1,.22-.42h0v0h-.68l-.71,1.47a3.45,3.45,0,0,0-.19.46,1.09,1.09,0,0,0-.1.44,1.2,1.2,0,0,0,.09.45.76.76,0,0,0,.23.33m.74-.28a.42.42,0,0,1-.31-.13.54.54,0,0,1-.13-.37.49.49,0,0,1,.13-.36.36.36,0,0,1,.31-.13.37.37,0,0,1,.32.13.51.51,0,0,1,.13.36.54.54,0,0,1-.13.37.44.44,0,0,1-.32.13" transform="translate(0 0)" fill="#fff"/><polygon points="50.09 25.55 50.09 25.55 50.12 25.55 50.12 25.02 50.79 25.02 51.01 25.03 50.21 27.08 49.91 27.83 49.92 27.83 49.91 27.85 50.59 27.85 51.68 25.02 51.68 24.46 49.56 24.46 49.55 24.46 49.52 24.46 49.52 25.55 50.09 25.55 50.09 25.55" fill="#fff"/><path d="M38.2,36.81a.88.88,0,0,0-.32-.19,1,1,0,0,0-.39-.07,1,1,0,0,0-.38.07.8.8,0,0,0-.32.19.73.73,0,0,0-.22.3,1,1,0,0,0-.08.43v1.39a.93.93,0,0,0,.08.42.84.84,0,0,0,.22.31,1.13,1.13,0,0,0,.32.19,1.21,1.21,0,0,0,.38.06,1.27,1.27,0,0,0,.39-.06,1.29,1.29,0,0,0,.32-.19,1,1,0,0,0,.21-.31.93.93,0,0,0,.09-.42V37.54a1,1,0,0,0-.09-.43.81.81,0,0,0-.21-.3m-.71,2.56a.37.37,0,0,1-.29-.12.49.49,0,0,1-.11-.33V37.54a.52.52,0,0,1,.11-.33.41.41,0,0,1,.58,0,.47.47,0,0,1,.11.33v1.38a.44.44,0,0,1-.11.33.37.37,0,0,1-.29.12" transform="translate(0 0)" fill="#fff"/><path d="M41.06,36.81a.74.74,0,0,0-.32-.19,1.07,1.07,0,0,0-.76,0,.8.8,0,0,0-.32.19.86.86,0,0,0-.23.3,1.18,1.18,0,0,0-.08.43v1.39a1.08,1.08,0,0,0,.08.42,1,1,0,0,0,.23.31,1.13,1.13,0,0,0,.32.19,1.23,1.23,0,0,0,.76,0,1,1,0,0,0,.32-.19.84.84,0,0,0,.22-.31.93.93,0,0,0,.08-.42V37.54a1,1,0,0,0-.08-.43.73.73,0,0,0-.22-.3m-.7,2.56a.37.37,0,0,1-.29-.12.44.44,0,0,1-.11-.33V37.54a.47.47,0,0,1,.11-.33.41.41,0,0,1,.58,0,.52.52,0,0,1,.11.33v1.38a.49.49,0,0,1-.11.33.37.37,0,0,1-.29.12" transform="translate(0 0)" fill="#fff"/><polygon points="43.29 36.23 42.29 39.26 41.97 40.2 41.98 40.2 41.97 40.23 42.53 40.23 43.53 37.21 43.86 36.26 43.85 36.26 43.86 36.23 43.29 36.23" fill="#fff"/><path d="M46.15,36.81a.8.8,0,0,0-.32-.19,1,1,0,0,0-.38-.07,1,1,0,0,0-.39.07.88.88,0,0,0-.32.19,1,1,0,0,0-.22.3,1.18,1.18,0,0,0-.08.43v1.39a1.08,1.08,0,0,0,.08.42,1.16,1.16,0,0,0,.22.31,1.29,1.29,0,0,0,.32.19,1.23,1.23,0,0,0,.39.06,1.21,1.21,0,0,0,.38-.06,1.13,1.13,0,0,0,.32-.19,1,1,0,0,0,.22-.31,1.08,1.08,0,0,0,.08-.42V37.54a1.18,1.18,0,0,0-.08-.43.84.84,0,0,0-.22-.3m-.7,2.56a.37.37,0,0,1-.29-.12.45.45,0,0,1-.12-.33V37.54a.48.48,0,0,1,.12-.33.41.41,0,0,1,.58,0,.52.52,0,0,1,.11.33v1.38a.49.49,0,0,1-.11.33.37.37,0,0,1-.29.12" transform="translate(0 0)" fill="#fff"/><path d="M49,36.81a.8.8,0,0,0-.32-.19,1,1,0,0,0-.38-.07,1,1,0,0,0-.39.07.88.88,0,0,0-.32.19,1,1,0,0,0-.22.3,1.18,1.18,0,0,0-.08.43v1.39a1.08,1.08,0,0,0,.08.42,1.16,1.16,0,0,0,.22.31,1.29,1.29,0,0,0,.32.19,1.23,1.23,0,0,0,.39.06,1.21,1.21,0,0,0,.38-.06,1.13,1.13,0,0,0,.32-.19,1.16,1.16,0,0,0,.22-.31,1.08,1.08,0,0,0,.08-.42V37.54a1.18,1.18,0,0,0-.08-.43,1,1,0,0,0-.22-.3m-.7,2.56a.37.37,0,0,1-.29-.12.45.45,0,0,1-.12-.33V37.54a.48.48,0,0,1,.12-.33.41.41,0,0,1,.58,0,.52.52,0,0,1,.11.33v1.38a.49.49,0,0,1-.11.33.37.37,0,0,1-.29.12" transform="translate(0 0)" fill="#fff"/><polygon points="35.69 33.61 35.52 33.94 35.09 33.04 34.79 33.04 34.79 33.04 34.76 33.04 34.76 34.7 34.76 34.7 34.76 34.73 35.09 34.73 35.09 34.2 35.11 33.78 35.42 34.38 35.64 34.38 35.81 34.04 35.96 33.78 35.96 34.73 36.29 34.73 36.29 33.04 35.97 33.04 35.69 33.61" fill="#fff"/><path d="M38,33.34l-.09-.14-.2-.13-.26,0-.25,0-.2.13-.1.14-.05.15,0,.18v.43l0,.18.05.15.1.14.2.13.25,0,.26,0,.2-.13.09-.14.06-.15,0-.18v-.43l0-.18Zm-.42,0,.09.06,0,.06,0,.08v.67l0,.08,0,.06-.09.06-.13,0-.12,0-.09-.06,0-.06,0-.08,0-.13v-.41l0-.13,0-.08,0-.06.09-.07.12,0,.12,0Z" transform="translate(0 0)" fill="#fff"/><polygon points="38.92 33.72 39.58 34.73 39.87 34.73 39.87 33.04 39.56 33.04 39.56 33.04 39.54 33.04 39.54 33.61 39.52 34.05 38.87 33.04 38.6 33.04 38.6 33.04 38.58 33.04 38.58 34.73 38.91 34.73 38.91 34.16 38.92 33.72" fill="#fff"/><polygon points="40.34 33.04 40.34 33.04 40.32 33.04 40.32 33.33 40.76 33.33 40.76 34.73 41.09 34.73 41.09 33.33 41.5 33.33 41.51 33.33 41.53 33.33 41.53 33.04 40.35 33.04 40.34 33.04" fill="#fff"/><polygon points="42.88 34.73 43.21 34.73 43.21 33.04 42.91 33.04 42.9 33.04 42.88 33.04 42.88 33.73 42.31 33.73 42.31 33.04 42 33.04 42 33.04 41.98 33.04 41.98 34.73 42.31 34.73 42.31 34.02 42.88 34.02 42.88 34.73" fill="#fff"/><polygon points="44.55 32.89 44.54 32.89 44.55 32.86 44.26 32.86 43.75 34.4 43.59 34.88 43.59 34.88 43.59 34.91 43.88 34.91 44.38 33.37 44.55 32.89" fill="#fff"/><polygon points="45.71 33.04 45.52 33.46 45.39 33.7 45.09 33.04 44.85 33.04 44.75 33.03 44.75 33.04 44.73 33.04 45.23 34.03 45.23 34.7 45.23 34.7 45.23 34.73 45.56 34.73 45.56 34.03 45.91 33.36 46.07 33.06 46.06 33.06 46.07 33.04 45.71 33.04" fill="#fff"/><polygon points="47.57 34.43 46.78 34.43 46.78 34.02 47.45 34.02 47.45 33.73 46.78 33.73 46.78 33.33 47.54 33.33 47.54 33.33 47.57 33.33 47.57 33.04 46.48 33.04 46.48 33.04 46.45 33.04 46.45 34.73 47.57 34.73 47.57 34.43" fill="#fff"/><path d="M48.5,33l-.45,1.24-.17.43h0v0h.35l.1-.3h.6l.1.3h.35L48.76,33Zm0,1.11h-.08l.21-.61.15.46.05.15Z" transform="translate(0 0)" fill="#fff"/><path d="M50.78,33.94l.1-.1.07-.12,0-.16,0-.2-.11-.17-.17-.11-.23,0h-.67v1.69h.33v-.67h.24l.33.67H51L50.67,34Zm-.38-.16h-.31v-.45h.31l.18.06.06.17-.06.16Z" transform="translate(0 0)" fill="#fff"/><path d="M11.31,16.22a2.16,2.16,0,0,0,.21.62,2,2,0,0,0,.41.55,2.55,2.55,0,0,0,.81.54,2.64,2.64,0,0,0,1.06.2,2.59,2.59,0,0,0,1.67-.56c.06-.05.1-.13.15-.18a2.42,2.42,0,0,0,.28-.34,3.07,3.07,0,0,0,.2-.36,3.31,3.31,0,0,0,.26-.75h0v0H15a1.63,1.63,0,0,1-.39.71,1.06,1.06,0,0,1-.79.28,1.19,1.19,0,0,1-.51-.1,1,1,0,0,1-.36-.26l-.17-.25a1.88,1.88,0,0,1-.1-.35c0-.15,0-.33-.06-.55s0-.49,0-.83,0-.6,0-.82,0-.4.06-.55a1.88,1.88,0,0,1,.1-.35l.17-.25a1,1,0,0,1,.36-.26,1.19,1.19,0,0,1,.51-.1,1,1,0,0,1,.78.28,1.54,1.54,0,0,1,.39.71h1.39a2.81,2.81,0,0,0-.1-.31c0-.13-.08-.25-.13-.37a2.34,2.34,0,0,0-.25-.47,2,2,0,0,0-.26-.32s-.09-.13-.15-.18A2.59,2.59,0,0,0,13.8,11a2.64,2.64,0,0,0-1.06.2,2.4,2.4,0,0,0-.81.54,2,2,0,0,0-.41.55,2.16,2.16,0,0,0-.21.62,5.41,5.41,0,0,0-.08.74c0,.27,0,.57,0,.9s0,.64,0,.91a5.59,5.59,0,0,0,.08.74" transform="translate(0 0)" fill="#fff"/><path d="M18.93,18.07l.42-1.24h2.48l.41,1.24h1.43l-2.55-7H20.05l-1.89,5.19L17.51,18h0v0Zm2.53-2.39H19.74l.88-2.54.64,1.93Z" transform="translate(0 0)" fill="#fff"/><path d="M26.63,18.07V15.28h1L29,18.07h1.58l-1.38-2.66L29,15.05a2,2,0,0,0,.48-.24,1.69,1.69,0,0,0,.4-.4,1.63,1.63,0,0,0,.28-.52,2,2,0,0,0,.11-.67,2.31,2.31,0,0,0-.15-.83A2,2,0,0,0,29,11.26a2.4,2.4,0,0,0-.95-.18H25.26v7Zm2-4.18a1,1,0,0,1-.72.25H26.63V12.3h1.28a1,1,0,0,1,.72.25.9.9,0,0,1,.27.67.87.87,0,0,1-.27.67" transform="translate(0 0)" fill="#fff"/><path d="M36.16,17.82a2.22,2.22,0,0,0,.88-.77,1.83,1.83,0,0,0,.25-.48,2.33,2.33,0,0,0,.14-.55c0-.2,0-.42,0-.66s0-.5,0-.79,0-.55,0-.79,0-.45,0-.65a2.33,2.33,0,0,0-.14-.55A1.83,1.83,0,0,0,37,12.1a2.22,2.22,0,0,0-.88-.77,2.71,2.71,0,0,0-1.22-.25H32.41v7h2.53a2.71,2.71,0,0,0,1.22-.25m-.09-4.47a3.52,3.52,0,0,1,0,.51c0,.2,0,.44,0,.71s0,.52,0,.72a3.52,3.52,0,0,1,0,.51,1.4,1.4,0,0,1-.08.35l-.15.27a1.22,1.22,0,0,1-1,.43h-1V12.3h1a1.22,1.22,0,0,1,1,.43L36,13a1.4,1.4,0,0,1,.08.35" transform="translate(0 0)" fill="#fff"/><polygon points="14.65 35.42 14.65 35.42 14.63 35.42 14.63 36.86 14.61 38.03 12.93 35.42 12.2 35.42 12.2 35.42 12.18 35.42 12.18 39.72 13.02 39.72 13.02 38.28 13.04 37.12 14.72 39.72 15.47 39.72 15.47 35.42 14.65 35.42 14.65 35.42" fill="#fff"/><path d="M18,35.42,16.86,38.6l-.41,1.1h0v0h.88l.26-.76h1.52l.26.76h.87l-1.57-4.3Zm0,2.84h-.24l.55-1.56.39,1.19.12.38Z" transform="translate(0 0)" fill="#fff"/><polygon points="23.6 36.86 23.17 37.73 22.05 35.42 21.25 35.42 21.25 35.42 21.23 35.42 21.23 39.72 22.07 39.72 22.07 38.39 22.09 37.26 22.89 38.85 23.46 38.85 23.9 37.98 24.28 37.26 24.28 39.72 25.12 39.72 25.12 35.42 24.3 35.42 23.6 36.86" fill="#fff"/><polygon points="26.6 35.42 26.6 35.42 26.58 35.42 26.58 39.72 29.41 39.72 29.41 38.97 27.42 38.97 27.42 37.93 29.11 37.93 29.11 37.18 27.42 37.18 27.42 36.17 29.41 36.17 29.41 35.42 26.61 35.42 26.6 35.42" fill="#fff"/><path d="M22.69,28.46a1.85,1.85,0,0,1-.53.34l-.08,0h0l0,0a71.75,71.75,0,0,0,16.93,2,71,71,0,0,0,15.48-1.72c.39-.08.78-.15,1.17-.24h0a2,2,0,0,1-.73-.42A70.28,70.28,0,0,1,39,30.31,69.76,69.76,0,0,1,22.74,28.4Z" transform="translate(0 0)" fill="#fff"/><polygon points="12.61 27.37 12.61 27.85 13.21 27.85 13.21 27.37 13.52 27.37 13.52 26.79 13.21 26.79 13.21 26.15 12.64 26.15 12.64 26.15 12.64 26.15 12.61 26.15 12.61 26.79 12.11 26.79 11.91 26.78 12.7 25.19 13.06 24.49 13.05 24.49 13.06 24.46 12.39 24.46 11.23 26.79 11.23 27.34 11.23 27.35 11.23 27.37 12.61 27.37" fill="#fff"/><path d="M16.07,24.71a.93.93,0,0,0-.33-.21,1.42,1.42,0,0,0-.42-.06,1.16,1.16,0,0,0-.42.07.88.88,0,0,0-.55.54,1,1,0,0,0-.09.44,1.18,1.18,0,0,0,.08.43,1.1,1.1,0,0,0,.2.31.84.84,0,0,0,.29.2.93.93,0,0,0,.33.07h.13l.08,0h0l-.48.95-.22.42h0v0h.67l.72-1.46c.07-.16.14-.31.19-.45a1.22,1.22,0,0,0,.09-.46A1.19,1.19,0,0,0,16.3,25a1,1,0,0,0-.23-.33m-.75.28a.46.46,0,0,1,.32.13.53.53,0,0,1,.12.37.49.49,0,0,1-.12.36.42.42,0,0,1-.32.13.41.41,0,0,1-.32-.13.52.52,0,0,1-.12-.36.49.49,0,0,1,.13-.37.42.42,0,0,1,.31-.13" transform="translate(0 0)" fill="#fff"/><path d="M17.49,27.62a1,1,0,0,0,.35.2,1.5,1.5,0,0,0,.84,0,1,1,0,0,0,.58-.52,1.14,1.14,0,0,0,.08-.43.79.79,0,0,0,0-.28l-.1-.21-.14-.16-.14-.11h0l.13-.11.12-.16.09-.19,0-.25a.87.87,0,0,0-.09-.4,1,1,0,0,0-.22-.31,1.19,1.19,0,0,0-.33-.19,1.34,1.34,0,0,0-.4-.06,1.25,1.25,0,0,0-.4.06,1.06,1.06,0,0,0-.33.19.91.91,0,0,0-.31.71l0,.25.09.19.12.16.13.1h0l-.15.11-.13.16-.11.21a1.11,1.11,0,0,0,0,.28,1,1,0,0,0,.09.43.94.94,0,0,0,.23.32M18.26,25a.38.38,0,0,1,.3.13.41.41,0,0,1,.12.3.43.43,0,0,1-.12.31.43.43,0,0,1-.6,0,.4.4,0,0,1-.13-.31.44.44,0,0,1,.43-.43m-.34,1.53a.45.45,0,0,1,.34-.13.44.44,0,0,1,.33.13.45.45,0,0,1,.13.34.44.44,0,0,1-.46.46.45.45,0,0,1-.34-.13.49.49,0,0,1-.13-.33.49.49,0,0,1,.13-.34" transform="translate(0 0)" fill="#fff"/><path d="M21.92,27.62a.91.91,0,0,0,.22-.32,1,1,0,0,0,.09-.43V25.44a1,1,0,0,0-.09-.43.87.87,0,0,0-.22-.31.91.91,0,0,0-.33-.2,1.23,1.23,0,0,0-.39-.06,1.34,1.34,0,0,0-.4.06,1.12,1.12,0,0,0-.33.2.87.87,0,0,0-.22.31,1,1,0,0,0-.08.43v1.43a1,1,0,0,0,.08.43.87.87,0,0,0,.55.51,1.09,1.09,0,0,0,.4.07,1,1,0,0,0,.39-.07.78.78,0,0,0,.33-.19m-.72-.3a.39.39,0,0,1-.3-.12.45.45,0,0,1-.12-.33V25.45a.45.45,0,0,1,.12-.33.37.37,0,0,1,.3-.13.38.38,0,0,1,.3.13.49.49,0,0,1,.11.33v1.42a.49.49,0,0,1-.11.33.41.41,0,0,1-.3.12" transform="translate(0 0)" fill="#fff"/><path d="M55.68,27.62a1.1,1.1,0,0,0,.35.2,1.5,1.5,0,0,0,.84,0,.94.94,0,0,0,.58-.52,1,1,0,0,0,.08-.43.79.79,0,0,0,0-.28l-.1-.21-.14-.16-.13-.11h0l.13-.11.12-.16.09-.19,0-.25a.87.87,0,0,0-.09-.4,1,1,0,0,0-.22-.31,1.06,1.06,0,0,0-.33-.19,1.34,1.34,0,0,0-.4-.06,1.29,1.29,0,0,0-.4.06,1.06,1.06,0,0,0-.33.19.91.91,0,0,0-.31.71l0,.25.09.19.12.16.13.1h0l-.15.11-.13.16-.11.21a1.11,1.11,0,0,0,0,.28,1,1,0,0,0,.09.43.94.94,0,0,0,.23.32M56.45,25a.38.38,0,0,1,.3.13.41.41,0,0,1,.12.3.43.43,0,0,1-.12.31.44.44,0,0,1-.6,0,.4.4,0,0,1-.13-.31.44.44,0,0,1,.43-.43m-.33,1.53a.43.43,0,0,1,.33-.13.44.44,0,0,1,.33.13.46.46,0,0,1,.14.34.45.45,0,0,1-.14.33.44.44,0,0,1-.33.13.43.43,0,0,1-.33-.13.45.45,0,0,1-.14-.33.46.46,0,0,1,.14-.34" transform="translate(0 0)" fill="#fff"/><path d="M59.45,27.85l.72-1.46c.08-.16.14-.31.2-.45a1.44,1.44,0,0,0,.08-.46,1.19,1.19,0,0,0-.08-.44,1,1,0,0,0-.22-.33,1.08,1.08,0,0,0-.34-.21,1.4,1.4,0,0,0-.41-.06,1.16,1.16,0,0,0-.42.07.9.9,0,0,0-.34.2,1,1,0,0,0-.22.34,1,1,0,0,0-.08.44,1.18,1.18,0,0,0,.07.43,1.38,1.38,0,0,0,.2.31.94.94,0,0,0,.29.2,1,1,0,0,0,.33.07h.13l.09,0h0l-.47.95-.23.42h0v0ZM59.4,25a.44.44,0,0,1,.31.13.53.53,0,0,1,.12.37.49.49,0,0,1-.12.36.4.4,0,0,1-.31.13.38.38,0,0,1-.32-.13.52.52,0,0,1-.12-.36.53.53,0,0,1,.12-.37A.44.44,0,0,1,59.4,25" transform="translate(0 0)" fill="#fff"/><path d="M62.72,24.5a1.3,1.3,0,0,0-.78,0,.91.91,0,0,0-.33.2.9.9,0,0,0-.23.31,1.18,1.18,0,0,0-.08.43v1.43a1.14,1.14,0,0,0,.08.43.94.94,0,0,0,.23.32.78.78,0,0,0,.33.19,1.12,1.12,0,0,0,.78,0,.78.78,0,0,0,.33-.19.94.94,0,0,0,.23-.32,1.14,1.14,0,0,0,.08-.43V25.44a1.18,1.18,0,0,0-.08-.43.9.9,0,0,0-.23-.31.91.91,0,0,0-.33-.2m-.39,2.82a.41.41,0,0,1-.3-.12.49.49,0,0,1-.11-.33V25.45a.49.49,0,0,1,.11-.33.38.38,0,0,1,.3-.13.37.37,0,0,1,.3.13.49.49,0,0,1,.11.33v1.42a.49.49,0,0,1-.11.33.39.39,0,0,1-.3.12" transform="translate(0 0)" fill="#fff"/><polygon points="65.16 27.85 65.78 27.85 65.78 24.46 65.16 24.46 64.47 25.06 64.47 25.45 64.45 25.71 64.47 25.7 64.47 25.73 64.9 25.36 65.16 25.15 65.16 27.85" fill="#fff"/></g></g></g></svg>