<svg xmlns="http://www.w3.org/2000/svg" xmlns:xlink="http://www.w3.org/1999/xlink" width="78" height="49.89" viewBox="0 0 78 49.89"><defs><clipPath id="clip-path" transform="translate(0 0)"><rect width="78" height="49.89" fill="none"/></clipPath></defs><g id="Layer_2" data-name="Layer 2"><g id="Layer_1-2" data-name="Layer 1"><g clip-path="url(#clip-path)"><path d="M11.83,5.39H66.18V36.93h5.39V5.39A5.39,5.39,0,0,0,66.18,0H11.83a5.4,5.4,0,0,0-5.4,5.39V36.93h5.4Z" transform="translate(0 0)" fill="#fff"/><path d="M.5,40.8H0v1a8,8,0,0,0,8.05,8H70a8,8,0,0,0,8-8v-1Zm33.62,5v-1a.65.65,0,0,1,.65-.65h8.46a.66.66,0,0,1,.65.65v1a.66.66,0,0,1-.65.65H34.77a.65.65,0,0,1-.65-.65" transform="translate(0 0)" fill="#fff"/><path d="M37.13,15.06H35.46l.32,2.57h11l-.3,2.46H36.08l.32,2.57h9.74l-.31,2.46H33.55L31.73,12.21a1.1,1.1,0,0,0-1.08-1H25.28v1a1.62,1.62,0,0,0,1.62,1.62h2.47L31.08,26A2,2,0,0,0,33,27.69H47A1.94,1.94,0,0,0,48.89,26l1.2-9.73.15-1.17h0v0Z" transform="translate(0 0)" fill="#fff"/><path d="M32.1,32.24a2.84,2.84,0,1,0,2.83-2.83,2.83,2.83,0,0,0-2.83,2.83" transform="translate(0 0)" fill="#fff"/><path d="M42.58,32.24a2.83,2.83,0,1,0,2.83-2.83,2.83,2.83,0,0,0-2.83,2.83" transform="translate(0 0)" fill="#fff"/></g></g></g></svg>