<svg xmlns="http://www.w3.org/2000/svg" xmlns:xlink="http://www.w3.org/1999/xlink" width="594" height="37.39" viewBox="0 0 594 37.39"><defs><clipPath id="clip-path" transform="translate(0)"><rect width="594" height="37.39" fill="none"/></clipPath></defs><g id="Layer_2" data-name="Layer 2"><g id="Layer_1-2" data-name="Layer 1"><g clip-path="url(#clip-path)"><path d="M13.52,1.56a72.67,72.67,0,0,1-3.72,8V37.27H5.08V16.92a33.14,33.14,0,0,1-2.52,3A33,33,0,0,0,0,15.12,42,42,0,0,0,9.12.12ZM30.83,32.48c2.36,0,2.76-1,3.12-5.48a16.55,16.55,0,0,0,4.32,1.84c-.64,5.91-2,7.91-7.08,7.91H22.36c-5.68,0-7.32-1.56-7.32-7V18.8L12,20l-1.84-4.2L15,13.88V4.44h4.72V12l3.88-1.48V.16h4.44v8.6l4-1.52.6-.48.88-.6L36.83,7.4l-.16.72c0,7-.12,11.76-.36,13.52-.2,2-.92,3-2.24,3.6a11.35,11.35,0,0,1-4.52.56,12.91,12.91,0,0,0-1-4.36c.88,0,2,.08,2.43.08s.84-.16,1-.92a78.19,78.19,0,0,0,.28-8.6l-4.15,1.64V27.88H23.64V15.4l-3.88,1.52v12.8c0,2.4.4,2.76,3,2.76Z" transform="translate(0)"/><path d="M55.84,3.36a33.29,33.29,0,0,0-1,3.52C54.32,9.52,53,17.44,53,21.4A19.12,19.12,0,0,0,53.12,24c.56-1.4,1.2-2.72,1.76-4l2.48,1.92a95.5,95.5,0,0,0-2.84,9.72,11.38,11.38,0,0,0-.24,1.83c0,.44,0,1.08.08,1.64l-4.56.32a50.48,50.48,0,0,1-1.56-12.95A109.83,109.83,0,0,1,49.88,6.76a29.6,29.6,0,0,0,.4-3.88Zm9.28,19.56a13,13,0,0,0-.48,3.32c0,1.76,1.52,2.8,5.52,2.8a45.5,45.5,0,0,0,9.91-1l.12,5.36A56,56,0,0,1,70,34.15c-6.84,0-10.08-2.47-10.08-6.51a24.41,24.41,0,0,1,.68-5.16ZM79,6v5.12a109.5,109.5,0,0,1-17,0l0-5.12A80.73,80.73,0,0,0,79,6" transform="translate(0)"/><path d="M119,16.32c2.64,3.36,3.83,6.16,3.83,9.52,0,5.95-5.35,10.27-14,10.27-6.24,0-10.64-2.72-10.64-9.31,0-1,.12-2.36.28-4a44.42,44.42,0,0,1-7.6-1.32l.28-4.8a33.72,33.72,0,0,0,7.8,1.56c.24-1.76.44-3.6.68-5.4a49.51,49.51,0,0,1-7.88-1.4L92,6.84a36.72,36.72,0,0,0,8.12,1.48c.16-1.2.24-2.28.32-3.16a25,25,0,0,0,.08-3.52l5.56.32c-.32,1.44-.52,2.48-.68,3.52-.12.68-.24,1.72-.44,3A58.14,58.14,0,0,0,112.24,8l-.16,4.72a71,71,0,0,1-7.72.36c-.24,1.76-.48,3.64-.68,5.4H104a78.58,78.58,0,0,0,8-.48l-.12,4.72c-2.24.2-4.56.36-7,.36h-1.6c-.08,1.16-.16,2.16-.16,2.88,0,3.23,2,5,5.92,5,5.52,0,8.56-2.51,8.56-5.79,0-2.68-1.52-5.24-4.08-7.68Z" transform="translate(0)"/><path d="M140.12,21.68a16.44,16.44,0,0,0-.68,4c0,2.52,2.4,4.36,8.12,4.36a56.17,56.17,0,0,0,13.92-1.56l0,5.55a60.48,60.48,0,0,1-13.76,1.36c-9.08,0-13.64-3-13.64-8.47a25.48,25.48,0,0,1,.8-5.72Zm-3.36-16.8a103.82,103.82,0,0,0,10.8.48c3.92,0,8.44-.24,11.48-.56v5.32c-2.76.2-7.68.48-11.44.48-4.16,0-7.6-.2-10.84-.44Z" transform="translate(0)"/><path d="M190.24,5.64c-2,2.84-5,8.36-6.92,11.84a9,9,0,0,1,4.52-1.2c3,0,4.76,1.92,4.92,5.2.08,1.76,0,5,.2,6.6a2.24,2.24,0,0,0,2.52,2.16c3.4,0,5.56-4.44,6.68-9.36l4.27,3.48c-2,6.84-5.71,11.31-11.83,11.31-4.32,0-6.4-2.63-6.56-5.51-.16-2.12-.12-5.36-.24-7a2.13,2.13,0,0,0-2.32-2.2c-2.72,0-4.92,2.72-6.32,6a77,77,0,0,0-3,8.79l-5.6-1.88C173.48,26,181.84,9.32,183.92,5.56c.52-1.08,1.24-2.36,2-4l5.64,2.28c-.4.48-.84,1.2-1.28,1.84" transform="translate(0)"/><path d="M234.72,10.56a58,58,0,0,1-6.88,1.36,73.12,73.12,0,0,1-8.48,17l-4.84-2.44a60.44,60.44,0,0,0,8.08-14c-.68,0-1.36,0-2,0-1.64,0-3.24,0-5-.12l-.36-4.64a50.35,50.35,0,0,0,5.28.28c1.16,0,2.36,0,3.56-.12a33.73,33.73,0,0,0,1.08-6.64l5.48.56c-.32,1.28-.8,3.28-1.36,5.4A41.84,41.84,0,0,0,234.6,6Zm5.2,3.56c-.12,1.68,0,3.32,0,5.08,0,1.12.12,3,.24,5a26.45,26.45,0,0,1,8.19,5.08l-2.64,4.23a34,34,0,0,0-5.35-4.19v.36c0,3.67-2,6.55-7.64,6.55-4.92,0-8.8-2.2-8.8-6.55,0-3.88,3.24-6.88,8.76-6.88.92,0,1.84.08,2.68.16-.12-3-.32-6.44-.44-8.84Zm-4.36,13.12a14,14,0,0,0-3.2-.4c-2.28,0-3.76,1-3.76,2.36s1.24,2.48,3.4,2.48c2.68,0,3.56-1.57,3.56-3.68Zm11.15-11a52.73,52.73,0,0,0-9.51-5.64l2.56-3.92A71.13,71.13,0,0,1,249.51,12Z" transform="translate(0)"/><path d="M282,28.24a35.55,35.55,0,0,0,12.67,4.35,22.8,22.8,0,0,0-3.2,4.32A34.29,34.29,0,0,1,278,30.16v7.19h-4.68v-7a37.92,37.92,0,0,1-13.4,6.47,22.19,22.19,0,0,0-3-4,41.75,41.75,0,0,0,12.64-4.67H258V24.32h15.28V22.56H261.8V19.12h11.52v-1.8H259.8V13.6h7.6A18,18,0,0,0,266,10.48l.48-.08h-8.36V6.52h5.36a35.85,35.85,0,0,0-2.48-5l4.08-1.4a30.27,30.27,0,0,1,3,5.64l-2,.72h3.64V0h4.44V6.52h3V0h4.48V6.52h3.56l-1.44-.44a32.22,32.22,0,0,0,2.52-5.8l5,1.2c-1.11,1.84-2.19,3.64-3.11,5h5.19V10.4h-7.51c-.64,1.16-1.28,2.24-1.88,3.2h7.83v3.72H278v1.8h12v3.44H278v1.76h15.55v3.92ZM271.08,10.4a19.7,19.7,0,0,1,1.36,3.08l-.68.12h7.48c.48-1,1-2.12,1.4-3.2Z" transform="translate(0)"/><path d="M336.28,8a19.65,19.65,0,0,1-4,5.84,31.19,31.19,0,0,0,7.35,2.36,18.54,18.54,0,0,0-3,4,28.81,28.81,0,0,1-8.16-3.44,32,32,0,0,1-8.16,3.36,15.14,15.14,0,0,0-1.12-1.68,46.69,46.69,0,0,1-2,6.68L314,23.64a52.14,52.14,0,0,0,1.28-5.52H313.2V32.19c0,2.16-.32,3.44-1.72,4.16s-3.16.84-5.64.84a15.85,15.85,0,0,0-1.36-4.52c1.48,0,3.08,0,3.6,0s.64-.12.64-.6V23.56a24.18,24.18,0,0,1-5,7.39,26.57,26.57,0,0,0-2.16-4.59,25.13,25.13,0,0,0,5.68-8.24h-5V14h9.16a58,58,0,0,0-7.72-3.88l3-3c1,.36,2.08.8,3.16,1.28a25,25,0,0,0,2.52-2.52h-9.6v-4h12.92l.72-.16,3,1.92a29.86,29.86,0,0,1-5.84,6.6,22.39,22.39,0,0,1,2.92,1.76l-2,2h1.92l.64-.2,2.88,1-.16.92a24.23,24.23,0,0,0,4.88-1.84,22.62,22.62,0,0,1-2.84-3.32,23.82,23.82,0,0,1-1.8,1.72,34.93,34.93,0,0,0-3.88-2.68A23.85,23.85,0,0,0,323.84,0l4.44,1.2A26.82,26.82,0,0,1,326.8,4h11.8V8Zm1.88,14.32s-.08,1.24-.16,1.8c-.64,6.91-1.36,10-2.52,11.27a4.4,4.4,0,0,1-2.92,1.4,30.56,30.56,0,0,1-4.48.08,10.32,10.32,0,0,0-1.28-4.4,33.88,33.88,0,0,0,3.44.2,1.63,1.63,0,0,0,1.28-.44c.56-.52,1.08-2.23,1.52-5.95H328.4C327,31,324.2,34.87,317.88,37.35a13.45,13.45,0,0,0-2.76-3.68c4.8-1.76,7.12-4.32,8.36-7.43h-4.84v-4h5.84a33.39,33.39,0,0,0,.4-3.56h4.76c-.12,1.2-.24,2.4-.4,3.56ZM325,8a15.68,15.68,0,0,0,3.32,3.4A12.15,12.15,0,0,0,331,8Z" transform="translate(0)"/><path d="M365.08,28.12c.08-1.16.12-3,.16-4.72-2.92,1.6-4.52,3.16-4.52,5.12,0,2.2,1.88,2.79,5.76,2.79a61.43,61.43,0,0,0,11.24-1.15l-.16,5.15a109.6,109.6,0,0,1-11.2.64c-6.2,0-10.88-1.48-10.88-6.59s4.8-8.24,9.32-10.56A3.1,3.1,0,0,0,362,17.44a9.8,9.8,0,0,0-6.2,2.72,50.73,50.73,0,0,0-3.68,4.36l-4.24-3.16a38.72,38.72,0,0,0,8.72-10.88h-.48c-1.6,0-4.52-.08-6.68-.28V5.56a50.82,50.82,0,0,0,7,.44h1.92a22,22,0,0,0,.8-4.52l5.2.44c-.2,1-.48,2.32-1,3.92a91.47,91.47,0,0,0,11.2-1.16l0,4.64a129,129,0,0,1-12.92,1,24.2,24.2,0,0,1-2.28,4,12.4,12.4,0,0,1,4.48-.8,5.4,5.4,0,0,1,5.28,3.08c2-1,3.72-1.64,5.36-2.36s2.92-1.36,4.35-2l2,4.6a42.58,42.58,0,0,0-4.71,1.68c-1.76.68-4,1.56-6.44,2.68,0,2.2.12,5.12.16,6.92Z" transform="translate(0)"/><path d="M404.44,1.8a63.55,63.55,0,0,1-3.72,7.36V37.27h-5v-21a37.69,37.69,0,0,1-4.16,4.48A30.55,30.55,0,0,0,389,15.92,41.81,41.81,0,0,0,399.88.32Zm11,14.48c1.12,8.88,3.24,14.79,6.44,15.19.92.08,1.4-1.92,1.72-6.35a16.53,16.53,0,0,0,3.87,2.72c-1,7.71-3.15,9.55-5.39,9.43-6.76-.64-9.92-8.15-11.36-20.35L402.8,18l-.68-4.6,8.08-1.08c-.28-3.6-.52-7.52-.64-11.72h4.84c.08,3.92.24,7.68.52,11.08l11.39-1.48.68,4.48Zm7.16-7.08a34,34,0,0,0-5.48-6.72l3.56-2.2a35.66,35.66,0,0,1,5.75,6.44Z" transform="translate(0)"/><path d="M449.56,10.4a53.05,53.05,0,0,1-4.28,6.12V37.39h-4.76V21.76c-1.12,1.08-2.2,2.08-3.28,3A46.87,46.87,0,0,0,434,20.6a39,39,0,0,0,11-12Zm-1.48-8.52a53.7,53.7,0,0,1-11,10.52,27.66,27.66,0,0,0-2.64-3.88,35.58,35.58,0,0,0,9-8.52ZM471.6,17.8h-5.48v14c0,2.55-.48,3.87-2.24,4.59s-4.24.8-7.8.8a19.5,19.5,0,0,0-1.44-4.83c2.28.12,4.92.12,5.64.08s1-.16,1-.76V17.8h-11.8V13.28H471.6Zm-1-11H451.16V2.28H470.6Z" transform="translate(0)"/><path d="M490.56,2.28A40.65,40.65,0,0,0,490,7.56c-.2,4.24-.48,13.12-.48,18,0,4,2.4,5.27,5.44,5.27,6.56,0,10.72-3.75,13.56-8.07l3.6,4.44a20.63,20.63,0,0,1-17.2,9c-6.48,0-10.68-2.84-10.68-9.59,0-5.32.4-15.72.4-19.12a24.87,24.87,0,0,0-.52-5.36Z" transform="translate(0)"/><path d="M548.12,34.07a30,30,0,0,0-8-5.47c0,.52,0,1,0,1.4,0,3.39-2.56,6-7.8,6-6.32,0-9.68-2.4-9.68-6.59,0-4,3.68-6.8,9.8-6.8a24.31,24.31,0,0,1,2.44.12c-.08-1.2-.12-2.44-.16-3.6h-2c-2.32,0-6.88-.2-9.52-.52l0-4.68a71.86,71.86,0,0,0,9.56.72h1.88V10.52H532.8a66,66,0,0,1-8.6-.6l0-4.52a52.44,52.44,0,0,0,8.6.76h2V4.36a15.86,15.86,0,0,0-.2-2.72h5.4a26.48,26.48,0,0,0-.28,2.8l0,1.56A83,83,0,0,0,549,5l.12,4.56c-2.6.24-5.8.56-9.6.76l0,4.12c4-.16,7.32-.52,10.56-.92v4.68c-3.56.4-6.64.68-10.48.8.08,1.48.16,3.08.28,4.6a30.64,30.64,0,0,1,11.08,6Zm-13-7.11a21.23,21.23,0,0,0-3.24-.28c-2.8,0-4.32,1.08-4.32,2.44s1.4,2.44,4.12,2.44c2.12,0,3.48-.65,3.48-2.92,0-.44,0-1,0-1.68" transform="translate(0)"/><path d="M594,11c-2.4-.12-6.12-.2-11.48-.2,0,2,0,4.16,0,5.88A9.77,9.77,0,0,1,584,22.2c0,5.16-3,11.71-12.72,14.43l-4.2-4.23c4-.84,7.48-2.16,9.68-4.52a8.55,8.55,0,0,1-1.8.2,7,7,0,0,1-6.84-7.28c0-4.48,3.6-7.4,7.92-7.4a9.5,9.5,0,0,1,1.56.12l0-2.64c-6,.08-12.12.32-17,.6l-.12-4.8c4.52,0,11.72-.2,17-.28a10.15,10.15,0,0,0,0-1.2,26.8,26.8,0,0,0-.36-3.44h5.76c-.12.64-.24,2.76-.28,3.4,0,.32,0,.72,0,1.2,4,0,9.4,0,11.48,0Zm-18,12.64c1.64,0,3.12-1.24,2.6-4.68a2.82,2.82,0,0,0-2.6-1.4,3,3,0,1,0,0,6.08" transform="translate(0)"/></g></g></g></svg>