<svg xmlns="http://www.w3.org/2000/svg" xmlns:xlink="http://www.w3.org/1999/xlink" width="231.73" height="61.61" viewBox="0 0 231.73 61.61"><defs><clipPath id="e1270426-3310-4dc6-81d2-a2e91f59006c" transform="translate(0)"><rect width="231.73" height="61.61" fill="none"/></clipPath></defs><g id="a3018ccb-5187-47df-942e-2f985c228bd8" data-name="Layer 2"><g id="e71bb43a-69d1-4a6f-a626-8038187b7728" data-name="Layer 1"><g clip-path="url(#e1270426-3310-4dc6-81d2-a2e91f59006c)"><path d="M161.23,35.11a13,13,0,0,1-3.36,3.72l-.89-.71a9.28,9.28,0,0,0,3-3h-7.7c-.5,0-1,0-1.54.08V33.94a11,11,0,0,0,1.54.13H160a8.88,8.88,0,0,0,.95-.08l.66.63c-.1.13-.27.34-.37.49m-8.79,9.14-1-.81a4.64,4.64,0,0,0,1.22-.61c2.09-1.28,2.39-3.2,2.39-5.46a6.56,6.56,0,0,0-.06-1h1.22c0,3.66-.32,6.13-3.77,7.85" transform="translate(0)" fill="#005cdc"/><path d="M168.85,33.94V35.2h3a2.55,2.55,0,0,0,.93-.11l.73.46c-.06.2-.15.56-.2.81A12.9,12.9,0,0,1,172,40.43a8.62,8.62,0,0,1-5.35,3.82l-.88-1a7.73,7.73,0,0,0,1.41-.38,7.22,7.22,0,0,0,3.66-2.72,10,10,0,0,0,1.28-3.94h-7.55v2.42a5.34,5.34,0,0,0,0,.81h-1.17a8.31,8.31,0,0,0,0-.87V36.19a9,9,0,0,0,0-1,12.07,12.07,0,0,0,1.25.05h3V33.94a6.74,6.74,0,0,0-.07-1h1.3a5.77,5.77,0,0,0-.08,1" transform="translate(0)" fill="#005cdc"/><path d="M176.78,34.7a8.47,8.47,0,0,0-.1-1.4H178c0,.41-.09,1-.09,1.4v2.2a42.71,42.71,0,0,1,5.76,2.23l-.46,1.15a36.12,36.12,0,0,0-5.3-2.18c0,2,0,4.07,0,4.46s0,1.15.08,1.59h-1.31a11.45,11.45,0,0,0,.09-1.59Z" transform="translate(0)" fill="#005cdc"/><path d="M188.49,34.67l1.2.26c-.08.3-.19.69-.24,1a29.54,29.54,0,0,1-1.23,4.23,19.44,19.44,0,0,1-2,3.71l-1.14-.48a18,18,0,0,0,2.08-3.68,20.76,20.76,0,0,0,1.32-5m3.36.23,1.09-.36a43.13,43.13,0,0,1,2,4.27c.55,1.33,1.27,3.4,1.62,4.61l-1.2.4a40.65,40.65,0,0,0-1.53-4.65,33.82,33.82,0,0,0-2-4.27m3.81.18-.73.32a16,16,0,0,0-1.09-1.87l.71-.3a15.35,15.35,0,0,1,1.11,1.85m1.51-.55-.73.32A12.4,12.4,0,0,0,195.32,33l.72-.3a15.72,15.72,0,0,1,1.13,1.84" transform="translate(0)" fill="#005cdc"/><path d="M204.16,33.94V35.2h3a2.58,2.58,0,0,0,.93-.11l.73.46a7.38,7.38,0,0,0-.2.81,12.69,12.69,0,0,1-1.33,4.07A8.57,8.57,0,0,1,202,44.25l-.87-1a7.42,7.42,0,0,0,1.4-.38,7.18,7.18,0,0,0,3.66-2.72,9.86,9.86,0,0,0,1.28-3.94H199.9v2.42a5.34,5.34,0,0,0,0,.81h-1.18a8.31,8.31,0,0,0,0-.87V36.19a9,9,0,0,0,0-1,12.39,12.39,0,0,0,1.26.05h3V33.94a8.12,8.12,0,0,0-.06-1h1.29a7,7,0,0,0-.08,1" transform="translate(0)" fill="#005cdc"/><path d="M216.11,40.93a12.7,12.7,0,0,0,4.51-5l.65,1.14a13.48,13.48,0,0,1-4.54,4.81,14.82,14.82,0,0,1-5.31,2.1l-.71-1.11a14,14,0,0,0,5.4-2m-.8-4.28-.85.85a27.31,27.31,0,0,0-3.36-2.83l.77-.82a28.14,28.14,0,0,1,3.44,2.8" transform="translate(0)" fill="#005cdc"/><path d="M224.09,34.88a8.71,8.71,0,0,0-.11-1.41h1.34a11.27,11.27,0,0,0-.1,1.41v2.2A44.8,44.8,0,0,1,231,39.31l-.47,1.14a36.19,36.19,0,0,0-5.3-2.16v4.45c0,.43,0,1.16.08,1.59H224c.05-.43.08-1.1.08-1.59Zm6,1.18-.77.36a13.88,13.88,0,0,0-1.2-2.06l.74-.33a19.12,19.12,0,0,1,1.23,2m1.67-.71-.75.38a13.64,13.64,0,0,0-1.26-2l.74-.35a17.69,17.69,0,0,1,1.27,2" transform="translate(0)" fill="#005cdc"/><path d="M2.49,20.45a5.61,5.61,0,0,0,.15.59,15.91,15.91,0,0,1,2.25-.61.47.47,0,0,1,.48.46v0c0,.33-.26.39-.58.46-1.57.36-3.82,1-3.82,1.95,0,.36.21.8,2,.8.42,0,.93,0,1.34-.08.11,0,.68-.08.81-.08a.41.41,0,0,1,.44.37v.09a.43.43,0,0,1-.35.45,13.54,13.54,0,0,1-2.11.16C2,25.05,0,25,0,23.37c0-1.15,1.13-1.71,1.71-2-.07-.28-.11-.46-.17-.73l-.23-1.21a.44.44,0,0,1,0-.2c0-.33.36-.4.58-.4s.37.26.4.42Z" transform="translate(0)" fill="#1a1311"/><path d="M9.74,21.79,11,21.74a.43.43,0,0,1,.45.39v.07c0,.43-.31.45-.67.47s-1.19,0-1.24,0a3.05,3.05,0,0,0-.06.6c0,.4.13,1,1.36,1,.43,0,1.51-.07,1.51-1.1a1.85,1.85,0,0,0-.13-.66c-.08-.22-.1-.24-.1-.31,0-.26.28-.39.48-.39a.45.45,0,0,1,.44.28,2.83,2.83,0,0,1,.25,1.15c0,1.06-.64,1.91-2.42,1.91-1.42,0-2.28-.62-2.28-1.86a3.35,3.35,0,0,1,.05-.63c-1.1-.05-1.3-.17-1.3-.54a.44.44,0,0,1,.43-.47l.48.06.56.05L9,21c-1.06-.06-1.33-.12-1.33-.52A.43.43,0,0,1,8,20h0c.09,0,.45.06.53.06l.55.05.17-.84c0-.16.09-.42.43-.42,0,0,.52,0,.52.39a.77.77,0,0,1,0,.15l-.15.74,1.13,0a.41.41,0,0,1,.43.36v.08c0,.47-.25.49-1.75.48Z" transform="translate(0)" fill="#1a1311"/><path d="M15.84,19.31a.41.41,0,0,1,.39-.2c.24,0,.51.13.51.4a1.69,1.69,0,0,1-.07.38,11.93,11.93,0,0,0-.26,2.45,9.92,9.92,0,0,0,.21,2,2,2,0,0,1,.05.35c0,.41-.41.41-.49.41a.41.41,0,0,1-.43-.28,9.16,9.16,0,0,1-.29-2.44,13,13,0,0,1,.38-3.1m2.24,3c.18,0,.41.09.41.3a.37.37,0,0,1-.06.21c-.15.27-.18.31-.18.42,0,.45.63.51,1.36.51a8.06,8.06,0,0,0,1-.06l.38,0a.41.41,0,0,1,.43.38v.07a.45.45,0,0,1-.31.46,6.28,6.28,0,0,1-1.44.13c-.9,0-2.27-.08-2.27-1.26,0-.23.15-1.12.7-1.12m2.51-1.71-.85,0c-.22,0-.63,0-1.31.05l-.45,0c-.29,0-.38-.19-.38-.47a.41.41,0,0,1,.35-.46h0a14.06,14.06,0,0,1,1.72-.11c1.12,0,1.41,0,1.41.46s-.28.5-.5.5" transform="translate(0)" fill="#1a1311"/><path d="M24.16,21.4a.45.45,0,0,1-.44-.43v0c0-.43.31-.44.7-.46.71,0,1.72-.1,2.44-.17.16,0,.87-.12,1-.12a.41.41,0,0,1,.43.39v0c0,.16-.08.23-.26.38a19.64,19.64,0,0,0-1.57,1.34c.8,0,.8.62.8.89,0,.08,0,.43,0,.51,0,.46.13.55.73.55.15,0,.92-.07,1-.07a.36.36,0,0,1,.39.32v.09c0,.42-.21.51-1.31.51S26.36,25,26.36,24c0-.1,0-.55,0-.64a.28.28,0,0,0-.32-.32c-.23,0-.43.06-1.54,1.36-.56.65-.57.65-.72.65a.53.53,0,0,1-.53-.49c0-.2.07-.27.74-.94.84-.87,1.71-1.71,2.61-2.51-1,.17-2.31.29-2.45.29M25,18.84c.17,0,.89.17,1,.19.35.06.91.1,1.27.14a.36.36,0,0,1,.39.4.37.37,0,0,1-.34.41h-.08a12.38,12.38,0,0,1-1.61-.17c-.82-.13-1.07-.17-1.07-.51a.42.42,0,0,1,.38-.45h0" transform="translate(0)" fill="#1a1311"/><path d="M32.74,20.49c0-.22.25-1.31.27-1.36s.12-.24.43-.24.5.11.5.36a11.27,11.27,0,0,1-.21,1.16c1.41,0,1.74.73,1.74,2,0,2-.5,2.71-1.69,2.71-.46,0-.78-.06-.78-.49,0-.19.08-.46.32-.46l.29,0a.92.92,0,0,0,.66-.29,4.57,4.57,0,0,0,.24-1.6c0-.91-.32-1-1-1a14.79,14.79,0,0,1-1.19,3.19c-.23.45-.35.62-.59.62a.51.51,0,0,1-.55-.46c0-.13,0-.17.29-.62a11.29,11.29,0,0,0,1.05-2.63c-.18,0-1,.18-1.13.18a.44.44,0,0,1-.41-.49c0-.38.28-.41.58-.45Zm4.47,2.13c0,.34-.35.45-.53.45s-.35-.16-.42-.51a4.44,4.44,0,0,0-.88-1.89c-.31-.37-.31-.37-.31-.49a.43.43,0,0,1,.43-.38c.57,0,1.71,2.05,1.71,2.82m-.13-2.49a.3.3,0,0,1-.3.3c-.15,0-.21-.1-.32-.28a4.72,4.72,0,0,0-.56-.71c-.1-.11-.1-.16-.1-.2a.3.3,0,0,1,.31-.3h0a2.69,2.69,0,0,1,.93,1.18M37.54,19c.13.17.39.5.39.66a.32.32,0,0,1-.31.3c-.14,0-.18-.06-.31-.27a3.92,3.92,0,0,0-.57-.72c-.09-.11-.09-.15-.09-.21a.3.3,0,0,1,.31-.29h0c.15,0,.36.29.54.53" transform="translate(0)" fill="#1a1311"/><path d="M40.45,20.89c.84-.5,1.66-1,2.47-1.61.49-.34.54-.38.71-.38a.54.54,0,0,1,.53.53c0,.29,0,.3-3.1,2.16a4.21,4.21,0,0,0-.53.32.14.14,0,0,0-.08.12c0,.08,0,.1.32.25,1.46.76,1.55.81,2.18,1.19a11.62,11.62,0,0,1,1.11.72c.24.17.33.28.33.46a.54.54,0,0,1-.52.55c-.15,0-.15,0-.79-.45a23.09,23.09,0,0,0-2.48-1.51c-1-.52-1.28-.67-1.28-1.17s.24-.63,1.13-1.17" transform="translate(0)" fill="#1a1311"/><path d="M48,25.16a.59.59,0,0,1-.49-.32,10.5,10.5,0,0,0-1-1.19.47.47,0,0,1-.15-.34.52.52,0,0,1,.52-.46c.15,0,.27,0,.54.32a10.86,10.86,0,0,1,1.06,1.19.44.44,0,0,1,.11.29.57.57,0,0,1-.57.51" transform="translate(0)" fill="#1a1311"/><path d="M56.58,21.1c0-.24.13-.42.42-.42.45,0,.5.27.5.45a6.08,6.08,0,0,1-.28,1.52,4.64,4.64,0,0,1,.61.46c.19.15.24.23.24.39a.53.53,0,0,1-.44.55c-.17,0-.23,0-.76-.48a3.15,3.15,0,0,1-1.75,1.67.51.51,0,0,1-.49-.47c0-.17,0-.2.43-.5a3.44,3.44,0,0,0,1-1.26,6.26,6.26,0,0,0-1.44-.72A11.11,11.11,0,0,1,54,23.5c-.45.7-.8,1.1-1.34,1.1s-.94-.5-.94-1.2a2.12,2.12,0,0,1,2.1-2.12,1.72,1.72,0,0,1,.39,0c.11-.26.27-.62.5-1.26-.54,0-1.23.07-1.49.07s-.56,0-.56-.45.33-.45.62-.45h.67a8.43,8.43,0,0,0,1-.06l.41-.06a.53.53,0,0,1,.52.43,16.67,16.67,0,0,1-.81,1.95,8.39,8.39,0,0,1,1.36.63,7.14,7.14,0,0,0,.17-1m-4.07,2.31c0,.06,0,.25.15.25s.84-1.05,1.08-1.51a1.22,1.22,0,0,0-1.22,1.24v0" transform="translate(0)" fill="#1a1311"/><path d="M63.45,21.27c1.34,0,2.11.71,2.11,1.74a1.88,1.88,0,0,1-1.33,1.79,5.89,5.89,0,0,1-2,.31c-1,0-1.41-.08-1.41-.55a.42.42,0,0,1,.39-.44h0l.49.05.59,0c.43,0,2.26,0,2.26-1.21,0-.84-1-.84-1.16-.84a3.65,3.65,0,0,0-2.12.71c-.39.28-.43.31-.6.31a.48.48,0,0,1-.52-.44v0c0-.29.3-1.8.39-2.23s.12-.54.47-.54c.15,0,.5.06.5.37a4.91,4.91,0,0,1-.17.76c-.08.37-.15.69-.18.87a4.47,4.47,0,0,1,2.25-.64m-1.72-2.37a9.4,9.4,0,0,1,2,.38c.42.12.67.18.67.51a.45.45,0,0,1-.4.48h0a7.38,7.38,0,0,1-.84-.22c-.24-.06-1.52-.29-1.52-.3a.36.36,0,0,1-.33-.38.45.45,0,0,1,.42-.47h.06" transform="translate(0)" fill="#1a1311"/><path d="M68.7,19.72c0,.1-.06.57-.08.68,0,.32-.06.72-.06,1.11,0,1.16.29,2.37.77,2.37.2,0,.42-.43.55-.76.21-.49.25-.6.48-.6a.46.46,0,0,1,.49.43,3.32,3.32,0,0,1-.36.95c-.33.65-.68,1.05-1.21,1.05-1,0-1.67-1.36-1.67-3.53a11,11,0,0,1,.12-1.62c0-.21.08-.45.47-.45.17,0,.49.06.49.36m4.48,1.11a5.7,5.7,0,0,1,.57,2.37c0,.2,0,.6-.5.6s-.44-.27-.46-.58a5.21,5.21,0,0,0-.72-2.46c-.19-.32-.21-.34-.21-.45a.46.46,0,0,1,.46-.41c.15,0,.39,0,.85.92" transform="translate(0)" fill="#1a1311"/><path d="M77.6,21a1.61,1.61,0,0,1,.65-.13,1.23,1.23,0,0,1,1.19.74A7.27,7.27,0,0,1,81,21a.47.47,0,0,1,.43.49c0,.23,0,.25-.81.53l-1.06.4c0,.12,0,.37,0,.5,0,.64,0,.94-.43.94a.42.42,0,0,1-.44-.37v-.07c0-.1,0-.55,0-.64-.76.38-1.06.63-1.06,1s.82.51,1.34.51a9.42,9.42,0,0,0,1.4-.1h.24a.36.36,0,0,1,.38.36v.06c0,.32,0,.52-1.76.52-.72,0-2.46,0-2.46-1.33,0-1,1.13-1.51,1.84-1.86-.06-.16-.16-.36-.59-.36a2,2,0,0,0-1.54,1c-.21.29-.26.37-.47.37a.45.45,0,0,1-.45-.43c0-.15.05-.19.41-.67s.64-.9.92-1.36h-.85a.38.38,0,0,1-.37-.39v0c0-.43.32-.44.51-.44s1,0,1.2,0l.33-.64a.41.41,0,0,1,.4-.23c.25,0,.49.13.49.33s0,.16-.25.51c.23,0,.66,0,1.11-.1.13,0,.7-.12.82-.12a.41.41,0,0,1,.39.41,0,0,0,0,1,0,0c0,.35-.2.38-.72.44-.86.12-1.64.17-2.11.19l-.3.48" transform="translate(0)" fill="#1a1311"/><path d="M85.68,23.94a1.25,1.25,0,0,1-1.25,1.25,1.27,1.27,0,0,1-1.25-1.26,1.25,1.25,0,0,1,2.5,0h0m-1.92,0a.67.67,0,1,0,.67-.67.67.67,0,0,0-.67.67" transform="translate(0)" fill="#1a1311"/><path d="M26.24,40.24a.71.71,0,0,0,.72-.71h0v-3a5.33,5.33,0,0,0-5.27-5.38l-.52,0a5.33,5.33,0,0,0-5.78,4.84,6.26,6.26,0,0,0,0,.75V42a5.33,5.33,0,0,0,5,5.61,4.7,4.7,0,0,0,.75,0c3.4,0,5.31-1.62,5.72-4.43h0a.58.58,0,0,0-.45-.69l-.14,0H24.1a.93.93,0,0,0-.87.72,1.88,1.88,0,0,1-2.06,1.48A2,2,0,0,1,19,42.74a1.77,1.77,0,0,1,0-.4v-2.1ZM19,36.42a2.14,2.14,0,0,1,4.28-.2.67.67,0,0,1,0,.2v.87H19Z" transform="translate(0)" fill="#008edc"/><path d="M98.18,40.24a.71.71,0,0,0,.72-.71h0v-3a5.8,5.8,0,0,0-11.58.23V42a5.33,5.33,0,0,0,5,5.61,4.79,4.79,0,0,0,.76,0c3.4,0,5.31-1.62,5.72-4.43h0a.58.58,0,0,0-.45-.69l-.14,0H96a.93.93,0,0,0-.86.72,1.9,1.9,0,0,1-2.06,1.48A2,2,0,0,1,91,42.74a1.77,1.77,0,0,1,0-.4v-2.1ZM91,36.42a2.14,2.14,0,1,1,4.28-.2v1.07H91Z" transform="translate(0)" fill="#1a1311"/><path d="M113.52,40.24a.72.72,0,0,0,.72-.71h0v-3a5.81,5.81,0,0,0-11.59.23V42a5.34,5.34,0,0,0,5,5.61,4.83,4.83,0,0,0,.76,0c3.39,0,5.3-1.62,5.71-4.43h0a.58.58,0,0,0-.44-.69l-.15,0h-2.2a.92.92,0,0,0-.86.72,1.9,1.9,0,0,1-2.06,1.48,2,2,0,0,1-2.16-1.86,2.54,2.54,0,0,1,0-.39v-2.1Zm-7.22-3.82a2.15,2.15,0,0,1,4.29-.23v1.1H106.3Z" transform="translate(0)" fill="#1a1311"/><path d="M30.75,37.18c0-4.17,2.15-6,5.8-6s5.78,1.8,5.78,6v4.4c0,4.16-2.14,6-5.78,6s-5.8-1.8-5.8-6ZM34.4,42.5c0,1.21.87,1.85,2.14,1.85s2.14-.64,2.14-1.85V36.25c0-1.21-.87-1.85-2.14-1.85S34.4,35,34.4,36.25Z" transform="translate(0)" fill="#008edc"/><path d="M57.06,41.52H54.84a.73.73,0,0,0-.78.67v.31c0,1.21-.87,1.85-2.14,1.85s-2.14-.64-2.14-1.85V36.25c0-1.22.87-1.85,2.14-1.85s2.14.63,2.14,1.85a.74.74,0,0,0,.77.69H57c.5,0,.66-.35.63-.74-.3-3.47-2.39-5-5.72-5-3.65,0-5.79,1.79-5.79,6v4.4c0,4.17,2.14,6,5.79,6,3.44,0,5.54-1.6,5.77-5.28,0-.39-.13-.74-.63-.74" transform="translate(0)" fill="#1a1311"/><path d="M83.71,31.26h0a3.91,3.91,0,0,0-3,2.33H80.6V32.23a.71.71,0,0,0-.71-.72H77.76a.72.72,0,0,0-.72.72V46.54a.72.72,0,0,0,.72.72H80a.72.72,0,0,0,.72-.72V36.48a1.72,1.72,0,0,1,1.7-1.74h.1a4.29,4.29,0,0,1,1.12.18l.1,0a.54.54,0,0,0,.72-.53V31.86a.61.61,0,0,0-.6-.61h-.12" transform="translate(0)" fill="#1a1311"/><path d="M125.28,31.26h0a3.91,3.91,0,0,0-3,2.33h0V32.23a.72.72,0,0,0-.72-.72h-2.13a.72.72,0,0,0-.72.72V46.54a.72.72,0,0,0,.72.72h2.21a.72.72,0,0,0,.72-.72V36.48A1.72,1.72,0,0,1,124,34.74h.1a4.37,4.37,0,0,1,1.13.18l.09,0a.54.54,0,0,0,.69-.31.53.53,0,0,0,0-.22V31.86a.6.6,0,0,0-.59-.61h-.13" transform="translate(0)" fill="#1a1311"/><path d="M7.93,46.53v-10a2.15,2.15,0,0,0-4.29-.25V46.53a.71.71,0,0,1-.71.72H.72A.72.72,0,0,1,0,46.53V32.22a.72.72,0,0,1,.72-.72H2.8a.73.73,0,0,1,.72.71h0v.62a6,6,0,0,1,4-1.63,3.91,3.91,0,0,1,4.11,3.7,4,4,0,0,1,0,.6v11a.72.72,0,0,1-.72.72H8.65a.71.71,0,0,1-.72-.71h0" transform="translate(0)" fill="#008edc"/><path d="M72.66,42.66c0,3.18-2.09,4.88-5.74,4.88s-5.74-1.71-5.74-4.88a4.18,4.18,0,0,1,3.06-4.09L69,36.9V36a1.7,1.7,0,0,0-1.5-1.88h-.38a2,2,0,0,0-1.9,1.24.94.94,0,0,1-1,.7H62.18c-.49,0-.65-.35-.63-.74.56-3,3-4.15,5.75-4.15,3.88,0,5.35,2,5.35,4.78v6.67Zm-5.74,2A1.91,1.91,0,0,0,69,43c0-.1,0-.2,0-.3V39.8l-2.77.94a2,2,0,0,0-1.43,2,1.9,1.9,0,0,0,1.8,2h.3" transform="translate(0)" fill="#1a1311"/><path d="M129.92,29.92a1.25,1.25,0,0,1-1.26-1.26,1.29,1.29,0,0,1,.36-.89l4.74-4.72a1.26,1.26,0,0,1,.89-.37h12.23a1.81,1.81,0,0,0,1.8-1.8V4.32a1.81,1.81,0,0,0-1.8-1.8H115.2a1.8,1.8,0,0,0-1.8,1.8V20.88a1.8,1.8,0,0,0,1.8,1.8h12.2a1.26,1.26,0,0,1,.09,2.52H115.2a4.31,4.31,0,0,1-4.32-4.32V4.32A4.32,4.32,0,0,1,115.2,0h31.68a4.33,4.33,0,0,1,4.32,4.32V20.88a4.33,4.33,0,0,1-4.32,4.32h-11.7l-4.37,4.36a1.26,1.26,0,0,1-.89.37" transform="translate(0)" fill="#008edc"/><path d="M47.78,61.42H46.9l-.21-.92a3.45,3.45,0,0,1-1.1.87,3.12,3.12,0,0,1-1.27.24,3.69,3.69,0,0,1-1.58-.32,3.48,3.48,0,0,1-1.19-.89,4.17,4.17,0,0,1-.75-1.31,5.12,5.12,0,0,1,0-3.19,4.06,4.06,0,0,1,.75-1.31,3.51,3.51,0,0,1,1.19-.9,3.7,3.7,0,0,1,1.58-.33,4.6,4.6,0,0,1,1.22.17,3.31,3.31,0,0,1,1,.51,2.86,2.86,0,0,1,1.13,2H46.35a1.72,1.72,0,0,0-.69-1.17,2.37,2.37,0,0,0-.62-.3,2.46,2.46,0,0,0-.72-.1,2.16,2.16,0,0,0-1.08.26,2.1,2.1,0,0,0-.75.67,3.21,3.21,0,0,0-.42,1,4.36,4.36,0,0,0,0,2.21,3.05,3.05,0,0,0,.42,1,2.11,2.11,0,0,0,1.83.93,2.5,2.5,0,0,0,.94-.14,1.78,1.78,0,0,0,.69-.43,1.73,1.73,0,0,0,.42-.68,3.17,3.17,0,0,0,.16-.91h-2.1v-1h3.35Z" transform="translate(0)" fill="#1a1311"/><path d="M50.86,53.55h3.76a3,3,0,0,1,2,.56,2,2,0,0,1,.65,1.57,2.29,2.29,0,0,1-.17.93,2.1,2.1,0,0,1-.38.6,1.55,1.55,0,0,1-.44.32l-.31.13v0a1,1,0,0,1,.38.11,1.14,1.14,0,0,1,.38.28,1.32,1.32,0,0,1,.29.5,2.25,2.25,0,0,1,.12.77,6.63,6.63,0,0,0,.1,1.26,1.66,1.66,0,0,0,.33.81H56a1.23,1.23,0,0,1-.18-.56c0-.2,0-.4,0-.59a5.86,5.86,0,0,0-.07-.94,1.56,1.56,0,0,0-.24-.65A1.06,1.06,0,0,0,55,58.3a2.06,2.06,0,0,0-.78-.12h-2v3.24H50.86Zm1.38,3.58h2.24a1.42,1.42,0,0,0,1-.31,1.21,1.21,0,0,0,.34-.94,1.41,1.41,0,0,0-.11-.61,1,1,0,0,0-.3-.37,1.09,1.09,0,0,0-.44-.17,3,3,0,0,0-.52,0H52.23Z" transform="translate(0)" fill="#1a1311"/><path d="M63.25,53.36a3.7,3.7,0,0,1,1.58.33,3.51,3.51,0,0,1,1.19.9,3.86,3.86,0,0,1,.74,1.31,5,5,0,0,1,0,3.19A4,4,0,0,1,66,60.4a3.48,3.48,0,0,1-1.19.89,4,4,0,0,1-3.16,0,3.48,3.48,0,0,1-1.19-.89,4,4,0,0,1-.74-1.31,5,5,0,0,1,0-3.19,3.86,3.86,0,0,1,.74-1.31,3.64,3.64,0,0,1,1.19-.9,3.7,3.7,0,0,1,1.58-.33m0,1.13a2.3,2.3,0,0,0-1.09.25,2.19,2.19,0,0,0-.74.68,2.84,2.84,0,0,0-.42,1,4.36,4.36,0,0,0,0,2.21,2.89,2.89,0,0,0,.42,1,2.16,2.16,0,0,0,.74.67,2.46,2.46,0,0,0,2.18,0,2.07,2.07,0,0,0,.74-.67,3.24,3.24,0,0,0,.43-1,4.59,4.59,0,0,0,0-2.21,3.08,3.08,0,0,0-.43-1,2.2,2.2,0,0,0-.74-.68,2.3,2.3,0,0,0-1.09-.25" transform="translate(0)" fill="#1a1311"/><path d="M69.71,53.55h1.38v4.59a7.26,7.26,0,0,0,0,.8,1.76,1.76,0,0,0,.22.74,1.4,1.4,0,0,0,.55.53,2.68,2.68,0,0,0,2.08,0,1.4,1.4,0,0,0,.55-.53,1.94,1.94,0,0,0,.23-.74c0-.27,0-.54,0-.8V53.55h1.38v5a3.5,3.5,0,0,1-.23,1.32,2.51,2.51,0,0,1-.66,1,2.61,2.61,0,0,1-1,.56,4.74,4.74,0,0,1-2.64,0,2.61,2.61,0,0,1-1-.56,2.51,2.51,0,0,1-.66-1,3.5,3.5,0,0,1-.23-1.32Z" transform="translate(0)" fill="#1a1311"/><path d="M79.3,53.55h3.47a3.31,3.31,0,0,1,1.36.24,2.15,2.15,0,0,1,.82.61,2,2,0,0,1,.39.79,3.59,3.59,0,0,1,.11.8,3.41,3.41,0,0,1-.11.78,2,2,0,0,1-.39.79,2.06,2.06,0,0,1-.82.61,3.49,3.49,0,0,1-1.36.24H80.68v3H79.3Zm1.38,3.73h2a1.59,1.59,0,0,0,.48-.07,1.32,1.32,0,0,0,.45-.21,1.16,1.16,0,0,0,.33-.4,1.33,1.33,0,0,0,.13-.62,1.54,1.54,0,0,0-.11-.64,1.12,1.12,0,0,0-.3-.41,1.06,1.06,0,0,0-.43-.2,2.31,2.31,0,0,0-.52-.06h-2Z" transform="translate(0)" fill="#1a1311"/></g></g></g></svg>